<svg xmlns="http://www.w3.org/2000/svg" xmlns:xlink="http://www.w3.org/1999/xlink" id="Layer_1" x="0px" y="0px" viewBox="0 0 85 85" style="enable-background:new 0 0 85 85;" xml:space="preserve">
<style type="text/css">
	.st0{fill:#FFFFFF;}
	.st1{fill:none;stroke:#4D4D4D;stroke-width:0.25;stroke-miterlimit:10;}
	.st2{fill:#FBAE17;}
	.st3{fill:#FF5E14;}
</style>
<g>
	<path class="st2" d="M42.49,52.47c-0.29,0-0.57-0.09-0.8-0.26l-10.91-7.87c-2.86-2.07-4.56-5.4-4.57-8.93V18.89   c0-0.2,0.12-0.38,0.3-0.46l15.79-6.91c0.06-0.03,0.13-0.04,0.2-0.04s0.14,0.01,0.2,0.04l15.79,6.91c0.18,0.08,0.3,0.26,0.3,0.46   v16.53c0,3.52-1.71,6.86-4.57,8.92l-10.91,7.87C43.06,52.38,42.78,52.47,42.49,52.47z M27.2,19.21v16.2c0,3.21,1.56,6.24,4.16,8.12   l11.13,8.03l11.13-8.03c2.6-1.88,4.15-4.91,4.16-8.12v-16.2l-15.29-6.69L27.2,19.21z"></path>
	<path class="st2" d="M42.49,47.48c-0.1,0-0.21-0.03-0.29-0.09l-8.96-6.46c-1.76-1.28-2.82-3.34-2.82-5.51V21.64   c0-0.2,0.12-0.38,0.3-0.46l11.58-5.07c0.06-0.03,0.13-0.04,0.2-0.04s0.14,0.01,0.2,0.04l11.58,5.07c0.18,0.08,0.3,0.26,0.3,0.46   v13.77c0,2.18-1.06,4.24-2.82,5.51l-8.96,6.46C42.7,47.45,42.59,47.48,42.49,47.48z M31.41,21.96v13.45c0,1.86,0.9,3.62,2.41,4.71   l8.67,6.25l8.67-6.25c1.5-1.09,2.4-2.85,2.41-4.7V21.96l-11.08-4.85L31.41,21.96z"></path>
	<path class="st2" d="M25.98,62.99c-0.13,0-0.26-0.05-0.35-0.15l-7.61-7.61c-0.91-0.91-1.64-1.96-2.17-3.14l-4.13-9.07   c-0.4-0.91-0.28-1.97,0.3-2.78c0.53-0.72,1.37-1.15,2.26-1.15c0.1,0,0.2,0.01,0.3,0.02c0.99,0.11,1.86,0.74,2.26,1.65l2.54,5.93   l0.56-0.37c0.7-0.46,1.52-0.71,2.36-0.71c0.99,0,1.96,0.35,2.73,0.98c1.81,1.66,3.88,2.99,6.16,3.95c1.32,0.47,2.45,1.29,3.28,2.38   c1.44,1.86,2.22,4.19,2.2,6.55v3.02c0,0.27-0.22,0.5-0.5,0.5H25.98z M14.27,40.06c-0.62,0-1.19,0.31-1.52,0.83   c-0.33,0.52-0.38,1.16-0.13,1.72l4.13,9.07c0.48,1.06,1.14,2.02,1.97,2.84l7.42,7.42L35.68,62v-2.52c0.04-2.12-0.66-4.23-1.96-5.92   c-0.71-0.94-1.67-1.66-2.78-2.06c-2.41-0.98-4.61-2.38-6.53-4.14c-0.6-0.5-1.35-0.77-2.12-0.77c-0.73,0-1.43,0.24-2.01,0.68   l-0.03,0.03l-0.09,0.09l-0.07,0.12l-0.06,0.32l0.04,0.07c0.48,0.71,0.94,1.28,1.45,1.79l4.81,4.81c0.13,0.13,0.19,0.32,0.14,0.49   c-0.05,0.17-0.18,0.31-0.36,0.36c-0.04,0.01-0.08,0.02-0.13,0.02c-0.13,0-0.26-0.06-0.36-0.15l-4.82-4.82   c-1.08-1.08-1.93-2.34-2.54-3.75l-2.35-5.49C15.65,40.49,15,40.06,14.27,40.06L14.27,40.06z"></path>
	<path class="st2" d="M25.65,73.52c-0.86,0-1.55-0.7-1.55-1.55v-8.42c0-0.86,0.7-1.55,1.55-1.55h11.58c0.85,0,1.55,0.7,1.55,1.55   v8.42c0,0.85-0.7,1.55-1.55,1.55H25.65z M25.09,72.52h12.69v-9.53H25.09V72.52z"></path>
	<path class="st2" d="M33.02,68.26c-0.27,0-0.5-0.22-0.5-0.5s0.22-0.5,0.5-0.5h1.05c0.27,0,0.5,0.22,0.5,0.5s-0.22,0.5-0.5,0.5   H33.02z"></path>
	<path class="st2" d="M48.8,62.99c-0.27,0-0.5-0.22-0.5-0.5v-3.01c-0.03-2.37,0.75-4.69,2.19-6.55c0.83-1.1,1.96-1.92,3.25-2.37   c2.31-0.97,4.4-2.31,6.22-3.98c0.75-0.62,1.72-0.97,2.72-0.97c0.84,0,1.66,0.24,2.36,0.71l0.55,0.36l2.53-5.91   c0.39-0.93,1.26-1.58,2.27-1.7c0.11-0.01,0.21-0.02,0.32-0.02c0.9,0,1.74,0.43,2.27,1.16c0.59,0.82,0.7,1.89,0.27,2.81l-4.13,9.08   c-0.53,1.17-1.26,2.23-2.17,3.14l-7.61,7.61c-0.09,0.09-0.22,0.15-0.35,0.15H48.8z M62.7,46.59c-0.77,0-1.52,0.27-2.1,0.76   c-1.95,1.78-4.15,3.18-6.57,4.16c-1.1,0.4-2.05,1.11-2.76,2.06c-1.3,1.69-1.99,3.79-1.96,5.92V62h9.43l7.52-7.46   c0.83-0.83,1.49-1.78,1.97-2.84l4.12-9.07c0.26-0.56,0.21-1.21-0.13-1.73c-0.33-0.52-0.9-0.83-1.52-0.83   c-0.72,0-1.38,0.43-1.66,1.1l-2.35,5.49c-0.6,1.41-1.46,2.67-2.54,3.74l-4.81,4.81c-0.09,0.08-0.21,0.13-0.34,0.13   c-0.13,0-0.26-0.05-0.35-0.15c-0.19-0.19-0.19-0.5,0-0.69l4.8-4.8c0.51-0.51,0.97-1.07,1.37-1.67l0.02-0.04l0.05-0.11l0.02-0.14   l-0.04-0.32l-0.06-0.05C64.13,46.83,63.44,46.59,62.7,46.59z"></path>
	<path class="st2" d="M47.75,73.52c-0.85,0-1.55-0.7-1.55-1.55v-8.42c0-0.86,0.7-1.55,1.55-1.55h11.58c0.85,0,1.55,0.7,1.55,1.55   v8.42c0,0.85-0.7,1.55-1.55,1.55H47.75z M47.2,72.52h12.69v-9.53H47.2V72.52z"></path>
	<path class="st2" d="M50.91,68.26c-0.27,0-0.5-0.22-0.5-0.5s0.22-0.5,0.5-0.5h1.05c0.27,0,0.5,0.22,0.5,0.5s-0.22,0.5-0.5,0.5   H50.91z"></path>
	<path class="st2" d="M40.38,37.73c-0.11,0-0.21-0.04-0.3-0.1l-4.21-3.16c-0.11-0.08-0.17-0.2-0.19-0.33   c-0.02-0.13,0.01-0.26,0.1-0.37c0.09-0.12,0.24-0.2,0.4-0.2c0.11,0,0.21,0.03,0.3,0.1l3.79,2.84l8.13-12.19   c0.09-0.14,0.25-0.22,0.42-0.22c0.1,0,0.19,0.03,0.27,0.08c0.11,0.07,0.19,0.19,0.21,0.32c0.03,0.13,0,0.26-0.07,0.37L40.8,37.51   c-0.08,0.11-0.2,0.19-0.33,0.21L40.38,37.73z"></path>
</g>
</svg>