<svg xmlns="http://www.w3.org/2000/svg" xmlns:xlink="http://www.w3.org/1999/xlink" id="Layer_1" x="0px" y="0px" viewBox="0 0 85 85" style="enable-background:new 0 0 85 85;" xml:space="preserve">
<style type="text/css">
	.st0{fill:#FFFFFF;}
	.st1{fill:none;stroke:#4D4D4D;stroke-width:0.25;stroke-miterlimit:10;}
	.st2{fill:#FBAE17;}
	.st3{fill:#FF5E14;}
</style>
<g>
	<path class="st2" d="M46.53,36.1c-0.14,0-0.28-0.07-0.38-0.18l-8.55-9.49l-8.52,8.52c-0.1,0.1-0.24,0.16-0.39,0.16   c-0.15,0-0.28-0.06-0.39-0.16l-2.98-2.98c-0.21-0.21-0.21-0.56,0-0.77l11.91-11.91c0.12-0.11,0.25-0.16,0.39-0.16   c0.16,0,0.3,0.07,0.41,0.18l8.55,9.5l10.57-10.57H53.5c-0.3,0-0.55-0.24-0.55-0.55v-3.97c0-0.3,0.24-0.55,0.55-0.55h11.91   c0.3,0,0.55,0.25,0.55,0.55v11.91c0,0.3-0.25,0.55-0.55,0.55h-3.97c-0.3,0-0.55-0.24-0.55-0.55v-3.64L46.94,35.94   c-0.1,0.1-0.24,0.16-0.39,0.16H46.53z M37.65,25.08c0.14,0,0.28,0.07,0.38,0.18l8.55,9.5l14.48-14.48c0.1-0.1,0.24-0.16,0.39-0.16   c0.3,0,0.55,0.25,0.55,0.55v4.42h2.88V14.27H54.05v2.88h4.41c0.15,0,0.28,0.06,0.39,0.16c0.21,0.21,0.21,0.56,0,0.77L46.94,29.99   c-0.12,0.11-0.24,0.16-0.39,0.16c-0.15,0-0.3-0.07-0.41-0.18l-8.55-9.5L26.49,31.58l2.21,2.2l8.54-8.54   c0.1-0.1,0.24-0.16,0.39-0.16H37.65z"></path>
	<path class="st2" d="M32.11,49v-9.93h-2.88V49h-1.09V38.53c0-0.3,0.25-0.55,0.55-0.55h3.97c0.3,0,0.55,0.25,0.55,0.55V49H32.11z"></path>
	<path class="st2" d="M47.99,52.97v-12.9h-2.88v12.9h-1.09V39.52c0-0.3,0.25-0.55,0.55-0.55h3.97c0.3,0,0.55,0.24,0.55,0.55v13.45   H47.99z"></path>
	<path class="st2" d="M40.05,52.97V36.1h-2.88v14.89h-1.09V35.55c0-0.3,0.25-0.55,0.55-0.55h3.97c0.3,0,0.55,0.25,0.55,0.55v17.42   H40.05z"></path>
	<path class="st2" d="M51.96,46.02V35.55c0-0.3,0.25-0.55,0.55-0.55h3.97c0.3,0,0.55,0.25,0.55,0.55v9.48h-1.09V36.1h-2.88v9.92   H51.96z"></path>
	<path class="st2" d="M63.87,44.04v-13.9H61v13.9H59.9V29.6c0-0.3,0.25-0.55,0.55-0.55h3.97c0.3,0,0.55,0.25,0.55,0.55v14.44H63.87z   "></path>
	<path class="st2" d="M42.58,71.83c-6.15,0-12.03-2.29-16.57-6.45l-0.75-0.69v3.61c0,0.3-0.24,0.55-0.55,0.55H21.3v2.43   c0,0.3-0.24,0.55-0.55,0.55h-7.49v-1.09h6.95V49.99h-6.95V48.9h7.49c0.3,0,0.55,0.25,0.55,0.55v1.44h3.42   c0.3,0,0.55,0.24,0.55,0.55v1.75l0.67-0.38c1.14-0.65,2.44-0.99,3.75-0.99c2.02,0,3.92,0.79,5.35,2.21l1.82,1.82h12.18   c0.51,0,1.01,0.1,1.48,0.29l0.4,0.16l2.68-5.95l0.07-0.14c0.65-1.3,1.96-2.11,3.41-2.11c0.59,0,1.17,0.14,1.7,0.4   c0.22,0.11,0.43,0.24,0.61,0.38l0.36,0.28l0.69-0.93c0.25-0.33,0.54-0.61,0.89-0.83c0.56-0.36,1.2-0.55,1.85-0.55   c1.17,0,2.24,0.59,2.88,1.57l0.23,0.36l0.37-0.22c0.52-0.31,1.12-0.48,1.73-0.48c0.9,0,1.74,0.35,2.37,0.98   c0.63,0.63,0.98,1.48,0.98,2.37c0,0.9-0.35,1.74-0.98,2.37L59.91,64.65C55.29,69.28,49.13,71.83,42.58,71.83z M29.68,52.9   c-1.57,0-3.08,0.57-4.26,1.6l-0.15,0.13v8.48l0.76,0.76c4.42,4.42,10.3,6.86,16.56,6.86s12.13-2.44,16.56-6.86l10.85-10.85   c0.43-0.43,0.66-0.99,0.66-1.6c0-0.6-0.23-1.17-0.66-1.6c-0.43-0.43-0.99-0.66-1.6-0.66c-0.6,0-1.17,0.23-1.6,0.66l-8.66,8.66   c-1.72,1.72-3.74,3.07-5.99,4l-0.04,0.02l-0.08,0.05c-0.79,0.86-1.87,1.33-2.98,1.33H37.08V62.8h11.96c1.61,0,2.93-1.31,2.93-2.93   s-1.31-2.93-2.93-2.93H36.63c-0.14,0-0.28-0.06-0.39-0.16l-1.99-1.98C33.04,53.58,31.41,52.9,29.68,52.9z M21.3,67.76h2.88V51.98   H21.3V67.76z M63.19,47.94c-0.73,0-1.43,0.35-1.87,0.94l-8.27,11.09l0.54,0.61l0.14-0.08c1.33-0.76,2.55-1.7,3.63-2.78l8.09-8.09   l-0.12-0.28c-0.19-0.45-0.52-0.83-0.94-1.08C64.02,48.06,63.61,47.94,63.19,47.94z M57.07,49.19c-1.07,0-2.04,0.63-2.48,1.6   l-2.77,6.16l0.2,0.22c0.19,0.21,0.36,0.44,0.49,0.67l0.34,0.58l6.25-8.39l-0.34-0.27c-0.15-0.12-0.3-0.22-0.46-0.29l-0.1-0.04   C57.83,49.27,57.46,49.19,57.07,49.19z"></path>
</g>
</svg>