<svg xmlns="http://www.w3.org/2000/svg" xmlns:xlink="http://www.w3.org/1999/xlink" id="Layer_1" x="0px" y="0px" viewBox="0 0 85 85" style="enable-background:new 0 0 85 85;" xml:space="preserve">
<style type="text/css">
	.st0{fill:#FFFFFF;}
	.st1{fill:none;stroke:#4D4D4D;stroke-width:0.25;stroke-miterlimit:10;}
	.st2{fill:#FBAE17;}
	.st3{fill:#FF5E14;}
</style>
<g>
	<path class="st2" d="M26.95,71.3c-0.33,0-0.61-0.27-0.61-0.61V66.8c0-0.33,0.27-0.61,0.61-0.61h4.5l2.79-3.65   c0.11-0.15,0.3-0.24,0.49-0.24h2.54l1.7-3.4l0.01-26.57l-0.57,0.4c-0.21,0.15-0.42,0.31-0.61,0.48l-2.56,2.24   c-2.06,1.8-4.7,2.8-7.44,2.8H24.9l3.45,9.48h1.52c0.34,0,0.61,0.27,0.61,0.61c0,4.09-3.33,7.41-7.41,7.41   c-4.09,0-7.41-3.33-7.41-7.41c0-0.33,0.27-0.61,0.61-0.61h1.52l3.45-9.48h-6.91c-0.33,0-0.61-0.27-0.61-0.61v-3.89   c0-0.33,0.27-0.61,0.61-0.61h6.42c4.82,0,9.21-2.64,11.47-6.88l1.19-2.23c1.16-2.18,3.06-3.87,5.36-4.76l0.23-0.09v-1.95   c0-1.94,1.58-3.52,3.53-3.52c1.94,0,3.52,1.58,3.52,3.52v1.95l0.23,0.09c2.3,0.9,4.2,2.59,5.36,4.76l1.19,2.23   c2.26,4.25,6.65,6.88,11.46,6.88h6.43c0.33,0,0.61,0.27,0.61,0.61v3.89c0,0.34-0.27,0.61-0.61,0.61h-6.91l3.45,9.48h1.52   c0.34,0,0.61,0.27,0.61,0.61c0,4.09-3.33,7.41-7.41,7.41c-4.09,0-7.41-3.33-7.41-7.41c0-0.33,0.27-0.61,0.61-0.61h1.52l3.45-9.48   h-2.89c-2.74,0-5.38-0.99-7.44-2.8l-2.56-2.24c-0.2-0.17-0.4-0.33-0.61-0.48l-0.57-0.4v26.52l1.71,3.45h2.54   c0.19,0,0.37,0.09,0.49,0.24l2.7,3.6l4.59,0.05c0.33,0,0.61,0.27,0.61,0.61v3.89c0,0.33-0.27,0.61-0.61,0.61H26.95z M27.55,70.08   h29.89v-2.67H27.55V70.08z M33.02,66.2h18.96l-1.97-2.62l-14.98-0.05L33.02,66.2z M42.5,31.44c-0.69,0-1.38,0.1-2.05,0.3   l-0.26,0.08v27.2c0,0.09-0.02,0.19-0.07,0.27l-1.5,3.01h7.76l-1.5-3.01c-0.04-0.08-0.07-0.18-0.07-0.27v-27.2l-0.26-0.08   C43.88,31.54,43.19,31.44,42.5,31.44z M55.83,49.37c0.51,2.99,3.08,5.16,6.11,5.16c3.03,0,5.6-2.18,6.11-5.16l0.07-0.43H55.76   L55.83,49.37z M16.95,49.37c0.51,2.99,3.08,5.16,6.11,5.16c3.03,0,5.6-2.18,6.11-5.16l0.07-0.43H16.87L16.95,49.37z M57.95,47.72   h7.99l-3.45-9.48H61.4L57.95,47.72z M19.06,47.72h7.99l-3.45-9.48h-1.09L19.06,47.72z M42.5,30.23c2.03,0,3.98,0.74,5.51,2.07   l2.56,2.24c1.84,1.61,4.2,2.49,6.64,2.49h12.88v-2.67h-5.81c-5.27,0-10.07-2.88-12.54-7.53l-1.19-2.23   c-0.85-1.6-2.15-2.9-3.75-3.75c-1.32-0.7-2.8-1.07-4.28-1.07c-3.38,0-6.46,1.85-8.05,4.83l-1.19,2.23   c-2.47,4.64-7.27,7.53-12.53,7.53h-5.83v2.67h12.87c2.44,0,4.8-0.89,6.64-2.49l2.56-2.24C38.51,30.96,40.47,30.23,42.5,30.23z    M42.5,18.56c0.63,0,1.26,0.06,1.88,0.17l0.43,0.08v-1.59c0-1.27-1.03-2.31-2.31-2.31c-1.27,0-2.31,1.03-2.31,2.31v1.59l0.43-0.08   C41.24,18.62,41.87,18.56,42.5,18.56z"></path>
	<path class="st2" d="M42.5,27.55c-1.41,0-2.55-1.15-2.55-2.55c0-1.41,1.15-2.55,2.55-2.55c1.41,0,2.55,1.15,2.55,2.55   C45.05,26.41,43.91,27.55,42.5,27.55z M42.5,23.66c-0.74,0-1.34,0.6-1.34,1.34c0,0.74,0.6,1.34,1.34,1.34   c0.74,0,1.34-0.6,1.34-1.34C43.84,24.26,43.24,23.66,42.5,23.66z"></path>
</g>
</svg>