<svg xmlns="http://www.w3.org/2000/svg" xmlns:xlink="http://www.w3.org/1999/xlink" id="Layer_1" x="0px" y="0px" viewBox="0 0 85 85" style="enable-background:new 0 0 85 85;" xml:space="preserve">
<style type="text/css">
	.st0{fill:#FFFFFF;}
	.st1{fill:none;stroke:#4D4D4D;stroke-width:0.25;stroke-miterlimit:10;}
	.st2{fill:#FBAE17;}
	.st3{fill:#FF5E14;}
</style>
<g>
	<path class="st2" d="M14.08,70.92v-0.96L14.77,68c0.63-1.77,1.25-3.54,1.84-5.33c0.25-0.78,0.56-0.92,1.05-0.92c0,0,0.17,0,0.17,0   c0.22,0,0.44-0.03,0.65-0.07l0.85-0.12v-25.1H18.6c-0.32,0-0.63,0.01-0.93,0.02l-0.15,0c-0.22,0.01-0.44,0.01-0.66,0.01   c-0.38,0-0.68-0.02-0.95-0.06c-0.51-0.07-1.02-0.26-1.57-0.45l-0.27-0.1v-5.37l0.18-0.16c0.28-0.26,0.54-0.5,0.82-0.66   c7.55-4.35,15.12-8.68,22.68-13.02l4.55-2.61h0.39l4.97,2.85c7.38,4.23,14.77,8.47,22.14,12.71c0.31,0.18,0.61,0.45,0.91,0.71   l0.21,0.18v5.38l-0.22,0.09c-0.49,0.2-0.92,0.38-1.34,0.43c-0.32,0.04-0.67,0.06-1.12,0.06c-0.3,0-0.6-0.01-0.9-0.02   c-0.32-0.01-0.64-0.02-0.96-0.02h-0.73v25.55l0.9-0.22c0.24-0.06,0.45-0.09,0.64-0.09c0.72,0,1.05,0.41,1.48,1.81   c0.48,1.59,1.07,3.2,1.59,4.63c0.22,0.61,0.44,1.21,0.66,1.82v0.96l-28.42,0L14.08,70.92z M19.32,62.91   c-0.22,0-0.41,0.02-0.58,0.06c-0.31,0.08-1.07,0.32-1.29,0.93c-0.43,1.19-0.82,2.39-1.22,3.64l-0.71,2.18h53.94   c0,0-0.59-1.82-0.73-2.24c-0.32-0.96-0.61-1.83-0.85-2.72c-0.35-1.3-1.09-1.86-2.48-1.86c-9.45,0.03-18.87,0.03-28.3,0.03l-17.15,0   C19.9,62.93,19.38,62.91,19.32,62.91z M49.78,61.72h6.65V36.55h-6.65V61.72z M28.57,61.72h6.64V36.56h-6.64V61.72z M20.63,61.7   h6.61V36.53h-6.61V61.7z M57.74,61.69h6.61V36.57h-6.61V61.69z M36.52,61.69h11.94V36.56H36.52V61.69z M15.29,35.24H69.7v-4.02   H15.29V35.24z M42.59,15.73c-0.45,0-0.93,0.12-1.27,0.31c-6.41,3.62-12.79,7.28-19.18,10.94l-1.81,1.04   c-0.17,0.1-0.33,0.22-0.54,0.38l-0.3,0.23l-1.76,1.3h47.79l0.14-1.02l-0.32-0.51l-3.77-2.16c-6.01-3.45-12.03-6.89-18.07-10.3   C43.26,15.81,42.95,15.73,42.59,15.73z"></path>
</g>
</svg>