<svg xmlns="http://www.w3.org/2000/svg" xmlns:xlink="http://www.w3.org/1999/xlink" id="Layer_1" x="0px" y="0px" viewBox="0 0 85 85" style="enable-background:new 0 0 85 85;" xml:space="preserve">
<style type="text/css">
	.st0{fill:#FFFFFF;}
	.st1{fill:none;stroke:#4D4D4D;stroke-width:0.25;stroke-miterlimit:10;}
	.st2{fill:#FBAE17;}
	.st3{fill:#FF5E14;}
</style>
<g>
	<path class="st2" d="M42.54,42.34c-1.34,0-2.63-0.42-3.71-1.22c-0.27-0.2-0.32-0.58-0.13-0.84c0.11-0.16,0.29-0.24,0.48-0.24   c0.13,0,0.25,0.04,0.36,0.12c0.87,0.64,1.9,0.98,2.99,0.98c1.09,0,2.14-0.34,3.01-1c0.1-0.08,0.23-0.12,0.36-0.12   c0.19,0,0.37,0.09,0.48,0.24c0.2,0.27,0.14,0.64-0.12,0.84C45.19,41.91,43.89,42.34,42.54,42.34z"></path>
	<path class="st2" d="M33.43,58.22c-0.33,0-0.6-0.27-0.6-0.6c0-0.35,0.26-0.62,0.6-0.62c0.33,0,0.6,0.27,0.6,0.6   C34.04,57.95,33.77,58.22,33.43,58.22z"></path>
	<path class="st2" d="M51.57,58.22c-0.33,0-0.6-0.27-0.6-0.6c0-0.35,0.27-0.62,0.6-0.62c0.33,0,0.6,0.27,0.6,0.6   C52.17,57.95,51.9,58.22,51.57,58.22z"></path>
	<path class="st2" d="M18.99,70.13c-0.17,0-0.33-0.07-0.45-0.2c-0.12-0.13-0.17-0.3-0.15-0.47l0.67-6.13   c0.43-3.92,3.31-7.07,7.18-7.84c0.15-0.03,0.6-0.13,0.69-0.14l7.48-1.49c1.46-0.29,2.52-1.58,2.52-3.07v-2.07l-4.87-2.79   c-1.65-1.09-2.74-3.04-2.9-5.23l0-0.58h-0.82c-1.31,0-2.38-1.07-2.38-2.38V34.9c0-0.74,0.34-1.42,0.92-1.88l0.37-0.29l-0.27-0.39   c-0.07-0.1-0.11-0.22-0.11-0.34V19.27c0-2.43,1.97-4.4,4.4-4.4h27.04c0.33,0,0.6,0.27,0.6,0.6v15.31c0,0.65-0.21,1.27-0.61,1.79   l-0.27,0.34l0.31,0.31c0.45,0.45,0.69,1.04,0.69,1.67v2.85c0,1.31-1.07,2.38-2.38,2.38h-0.82l0,0.6c-0.17,2.16-1.25,4.1-2.89,5.19   l-4.88,2.8v2.08c0,1.49,1.06,2.78,2.52,3.07l7.43,1.48c0.11,0.01,0.45,0.09,0.63,0.12c3.97,0.79,6.87,3.95,7.29,7.87l0.67,6.13   c0.02,0.17-0.04,0.34-0.15,0.47c-0.12,0.13-0.28,0.2-0.45,0.2H18.99z M61.16,68.92h4.18l-0.59-5.46c-0.22-2.03-1.21-3.87-2.78-5.16   l-0.81-0.67V68.92z M56.52,60.45l1.65,2.35c0.17,0.23,0.14,0.55-0.06,0.76l-5.13,5.36h6.97V57.62l0.07-0.5l-0.39-0.14   c-0.28-0.1-0.58-0.19-0.88-0.26l-0.38-0.09L56.52,60.45z M33.43,60.31c0.33,0,0.6,0.27,0.6,0.6v8.01h16.93v-8.01   c0-0.33,0.27-0.6,0.6-0.6c0.33,0,0.6,0.27,0.6,0.6v7.11l4.72-4.94l-1.57-2.23c-0.13-0.18-0.15-0.41-0.05-0.61l1.87-3.85l-6.8-1.35   c-0.54-0.11-1.05-0.32-1.52-0.62l-0.77-0.5v3.68c0,0.23-0.13,0.44-0.34,0.54c-0.08,0.04-0.17,0.06-0.26,0.06   c-0.14,0-0.27-0.05-0.38-0.13l-4.59-3.66l-4.59,3.66c-0.11,0.08-0.24,0.13-0.37,0.13c-0.09,0-0.18-0.02-0.26-0.06   c-0.21-0.1-0.34-0.31-0.34-0.54v-3.68l-0.77,0.5c-0.46,0.3-0.97,0.51-1.51,0.62l-6.8,1.35l1.87,3.85c0.1,0.2,0.08,0.43-0.05,0.61   l-1.57,2.23l4.72,4.94v-7.11C32.83,60.58,33.1,60.31,33.43,60.31z M26.24,56.72c-0.3,0.07-0.59,0.16-0.88,0.26l-0.39,0.14l0.06,0.4   l0.01,11.4h6.97l-5.13-5.36c-0.2-0.21-0.22-0.53-0.06-0.76l1.65-2.35l-1.86-3.82L26.24,56.72z M23.03,58.3   c-1.57,1.29-2.55,3.13-2.77,5.16l-0.6,5.46h4.18V57.63L23.03,58.3z M43.5,53.67l3.36,2.67v-5.03L43.5,53.67z M38.14,56.35   l3.35-2.67l-3.35-2.36V56.35z M40.97,51.83l1.53,1.07l1.53-1.07l-0.35-0.81l-0.2,0.04c-0.33,0.07-0.65,0.1-0.98,0.1   c-0.33,0-0.65-0.03-0.97-0.1l-0.2-0.04L40.97,51.83z M34.32,27.51c0,2.22-1.49,4.22-3.61,4.87l-0.35,0.11v8.13   c0.15,1.81,1.01,3.4,2.3,4.27l7.66,4.38c0.69,0.45,1.42,0.68,2.18,0.68c0.75,0,1.49-0.23,2.14-0.66l7.65-4.38   c1.33-0.89,2.21-2.48,2.35-4.25l0-15.07l-0.7,0.31c-1.07,0.48-2.22,0.72-3.4,0.72H34.32V27.51z M55.85,38.92h0.82   c0.65,0,1.17-0.53,1.17-1.17V34.9c0-0.65-0.53-1.17-1.17-1.17h-0.82V38.92z M28.33,33.73c-0.65,0-1.17,0.53-1.17,1.17v2.85   c0,0.65,0.53,1.17,1.17,1.17h0.82v-5.19H28.33z M56.85,23.76c-0.25,0.29-0.53,0.57-0.83,0.83l-0.14,0.12l-0.04,7.95l0.64-0.2   c0.74-0.23,1.23-0.9,1.23-1.67v-8.02L56.85,23.76z M31.27,16.08c-1.76,0-3.2,1.43-3.2,3.2V31.4h1.15c2.14,0,3.89-1.74,3.89-3.89   v-1.49c0-0.33,0.27-0.6,0.6-0.6h16.83c3.95,0,7.17-3.22,7.17-7.17v-2.17H31.27z"></path>
</g>
</svg>