<svg xmlns="http://www.w3.org/2000/svg" xmlns:xlink="http://www.w3.org/1999/xlink" id="Layer_1" x="0px" y="0px" viewBox="0 0 85 85" style="enable-background:new 0 0 85 85;" xml:space="preserve">
<style type="text/css">
	.st0{fill:#FFFFFF;}
	.st1{fill:none;stroke:#4D4D4D;stroke-width:0.25;stroke-miterlimit:10;}
	.st2{fill:#FBAE17;}
	.st3{fill:#FF5E14;}
</style>
<g>
	<path class="st2" d="M44.64,66.84c-0.85,0-1.65-0.33-2.25-0.93l-2.74-2.74l-2.15,2.15c-0.59,0.59-1.38,0.92-2.22,0.92   c-0.84,0-1.62-0.33-2.22-0.92c-0.66-0.66-0.99-1.46-0.98-2.32l0-0.39H31.7c-0.88,0-1.66-0.32-2.26-0.92   c-0.6-0.6-0.93-1.4-0.92-2.25l0-0.39h-0.39c-0.88,0-1.66-0.32-2.26-0.92c-0.59-0.59-0.92-1.38-0.92-2.22v-0.35l-0.14-0.03   c-0.22-0.05-0.22-0.05-0.24-0.05c-0.88,0-1.66-0.32-2.26-0.92c-0.59-0.59-0.92-1.38-0.92-2.22c0-0.84,0.33-1.62,0.92-2.22   l0.61-0.61l-0.57-0.57c-0.79-0.79-1.23-1.84-1.23-2.96v-2.35l-4.53-4.53l-0.21,0.05c-0.2,0.05-0.39,0.08-0.58,0.08   c-0.64,0-1.24-0.25-1.69-0.7l-5.15-5.15c-0.12-0.12-0.18-0.27-0.18-0.44c0-0.16,0.06-0.32,0.18-0.44c0.12-0.12,0.27-0.18,0.44-0.18   c0.16,0,0.32,0.06,0.44,0.18l5.15,5.15c0.22,0.22,0.51,0.34,0.82,0.34c0.31,0,0.6-0.12,0.82-0.34l1.61-1.61   c0.12-0.12,0.27-0.18,0.44-0.18c0.16,0,0.32,0.06,0.44,0.18c0.12,0.12,0.18,0.27,0.18,0.44c0,0.17-0.06,0.32-0.18,0.44l-1.47,1.47   l4.55,4.55c0.12,0.11,0.18,0.27,0.18,0.44V46c0,0.79,0.31,1.53,0.86,2.08l0.57,0.57l0.68-0.68c0.59-0.59,1.38-0.92,2.22-0.92   c0.84,0,1.63,0.33,2.22,0.92c0.38,0.38,0.65,0.85,0.8,1.36l0.12,0.44l0.41-0.2c0.42-0.2,0.88-0.31,1.36-0.31   c0.84,0,1.63,0.33,2.22,0.92s0.92,1.38,0.92,2.22c0,0.39-0.07,0.77-0.21,1.13l-0.16,0.41l0.42,0.1c0.56,0.14,1.06,0.42,1.47,0.83   c0.54,0.54,0.86,1.25,0.91,2l0.03,0.4l0.39-0.04c0.11-0.01,0.21-0.02,0.32-0.02c0.84,0,1.63,0.33,2.22,0.92   c1.08,1.08,1.27,2.66,0.53,3.89l-0.15,0.26l2.76,2.76c0.37,0.37,0.85,0.57,1.37,0.57s1.01-0.2,1.37-0.57   c0.76-0.76,0.76-1.99,0-2.75l-3.93-3.93c-0.12-0.12-0.18-0.27-0.18-0.44c0-0.16,0.06-0.32,0.18-0.44c0.12-0.12,0.27-0.18,0.44-0.18   c0.16,0,0.32,0.06,0.44,0.18l3.93,3.93c0.37,0.37,0.85,0.57,1.37,0.57s1.01-0.2,1.37-0.57c0.76-0.76,0.76-1.99,0-2.75l-3.93-3.93   c-0.12-0.12-0.18-0.27-0.18-0.44c0-0.17,0.06-0.32,0.18-0.44c0.12-0.12,0.27-0.18,0.44-0.18c0.16,0,0.32,0.06,0.44,0.18l3.93,3.93   c0.37,0.37,0.85,0.57,1.37,0.57c0.52,0,1.01-0.2,1.37-0.57c0.37-0.37,0.57-0.85,0.57-1.37c0-0.52-0.2-1.01-0.57-1.37l-3.93-3.93   c-0.12-0.12-0.18-0.27-0.18-0.44c0-0.17,0.06-0.32,0.18-0.44c0.12-0.12,0.27-0.18,0.44-0.18c0.16,0,0.32,0.06,0.44,0.18l3.93,3.93   c0.37,0.37,0.85,0.57,1.37,0.57c0.52,0,1.01-0.2,1.37-0.57c0.37-0.37,0.57-0.86,0.57-1.37s-0.2-1.01-0.57-1.37l-7.07-7.07   c-0.12-0.12-0.18-0.27-0.18-0.44c0-0.17,0.06-0.32,0.18-0.44c0.12-0.12,0.27-0.18,0.44-0.18c0.16,0,0.32,0.06,0.44,0.18l7.07,7.07   c0.07,0.07,0.14,0.15,0.2,0.22l0.27,0.33L64,45.32c0.12-0.12,0.27-0.18,0.44-0.18c0.17,0,0.32,0.06,0.44,0.18   c0.24,0.24,0.24,0.63,0,0.87l-6.21,6.21l0.01,0.17c0.06,0.92-0.27,1.82-0.92,2.46c-0.6,0.6-1.4,0.93-2.25,0.93h-0.34l-0.1,0.33   c-0.01,0.95-0.33,1.75-0.94,2.36c-0.6,0.6-1.4,0.93-2.25,0.93h-0.34l-0.1,0.34c0.01,0.92-0.32,1.74-0.93,2.35   c-0.6,0.6-1.4,0.93-2.25,0.93h-0.34l-0.1,0.34c0.01,0.92-0.32,1.74-0.93,2.35C46.28,66.51,45.49,66.84,44.64,66.84z M37.91,58.45   c-0.51,0-0.99,0.2-1.34,0.56l-2.69,2.69c-0.36,0.36-0.56,0.84-0.56,1.34c0,0.51,0.2,0.99,0.56,1.34c0.42,0.42,0.9,0.62,1.4,0.62   s0.99-0.2,1.34-0.56l2.69-2.69c0.74-0.74,0.74-1.95,0-2.69C38.9,58.64,38.42,58.45,37.91,58.45z M34.05,55.19   c-0.51,0-0.99,0.2-1.34,0.56l-2.39,2.39c-0.74,0.74-0.74,1.95,0,2.69c0.36,0.36,0.84,0.56,1.34,0.56s0.99-0.2,1.34-0.56l2.39-2.39   c0.36-0.36,0.56-0.84,0.56-1.34c0-0.51-0.2-0.98-0.56-1.34C35.03,55.38,34.55,55.19,34.05,55.19z M31.61,50.5   c-0.51,0-0.98,0.2-1.34,0.56l-3.51,3.51c-0.36,0.36-0.56,0.84-0.56,1.34c0,0.51,0.2,0.98,0.56,1.34c0.36,0.36,0.84,0.56,1.34,0.56   c0.51,0,0.98-0.2,1.34-0.56l3.51-3.51c0.36-0.36,0.56-0.84,0.56-1.34c0-0.51-0.2-0.99-0.56-1.34C32.59,50.7,32.11,50.5,31.61,50.5z    M26.7,48.29c-0.51,0-0.99,0.2-1.34,0.56l-2.16,2.16c-0.36,0.36-0.56,0.84-0.56,1.34s0.2,0.98,0.56,1.34   c0.36,0.36,0.84,0.56,1.34,0.56c0.51,0,0.99-0.2,1.34-0.56l2.16-2.16c0.36-0.36,0.56-0.83,0.56-1.34c0-0.51-0.2-0.99-0.56-1.34   C27.69,48.49,27.21,48.29,26.7,48.29z"></path>
	<path class="st2" d="M67.45,43.36c-0.16,0-0.32-0.06-0.44-0.18c-0.12-0.12-0.18-0.27-0.18-0.44c0-0.16,0.06-0.32,0.18-0.44   l1.85-1.85L57.51,29.62l-4.19,4.11c-0.2,0.19-0.47,0.3-0.75,0.3c-0.18,0-0.36-0.05-0.52-0.13l-3.75-2.09   c-0.2-0.11-0.43-0.17-0.67-0.17H37.59c-0.3,0-0.59,0.12-0.81,0.33l-3.81,3.81c-0.45,0.45-0.7,1.05-0.7,1.68   c0,0.64,0.25,1.24,0.7,1.68c0.45,0.45,1.05,0.7,1.68,0.7c0.55,0,1.09-0.19,1.51-0.55l3.16-2.6c0.11-0.09,0.25-0.14,0.39-0.14h4.89   c0.34,0,0.62,0.28,0.62,0.62c0,0.12-0.03,0.23-0.1,0.33l-0.17,0.26l2.69,2.7c0.12,0.12,0.18,0.27,0.18,0.44   c0,0.17-0.06,0.32-0.18,0.44c-0.12,0.12-0.27,0.18-0.44,0.18c-0.17,0-0.32-0.06-0.44-0.18l-3.54-3.54h-3.3l-2.99,2.46   c-0.65,0.53-1.47,0.83-2.3,0.83c-0.96,0-1.87-0.38-2.56-1.06c-0.68-0.68-1.06-1.59-1.06-2.56c0-0.97,0.38-1.87,1.06-2.56l3.81-3.81   c0.05-0.05,0.1-0.09,0.15-0.14l0.33-0.27l-0.3-0.3c-0.51-0.5-1.11-0.88-1.78-1.14l-2.87-1.09c-0.08-0.03-0.16-0.08-0.22-0.14   l-1.59-1.59l-7.5,7.5c-0.12,0.12-0.27,0.18-0.44,0.18s-0.32-0.06-0.44-0.18c-0.24-0.24-0.24-0.63,0-0.87l8.17-8.17   c0.22-0.22,0.34-0.51,0.34-0.82c0-0.31-0.12-0.6-0.34-0.82l-4.02-4.02c-0.12-0.12-0.18-0.27-0.18-0.44c0-0.16,0.06-0.32,0.18-0.44   c0.12-0.12,0.27-0.18,0.44-0.18c0.16,0,0.32,0.06,0.44,0.18l4.02,4.02c0.78,0.78,0.92,1.98,0.36,2.92l-0.15,0.26l1.47,1.47   l2.77,1.07c0.85,0.33,1.61,0.82,2.25,1.46l0.85,0.85h9.8c0.44,0,0.88,0.11,1.27,0.33l3.64,2.03l4.05-3.97l-0.2-0.27   c-0.23-0.3-0.36-0.66-0.36-1.04c-0.01-0.47,0.18-0.92,0.51-1.26l7.87-7.87c0.12-0.12,0.27-0.18,0.44-0.18   c0.17,0,0.32,0.06,0.44,0.18c0.24,0.24,0.24,0.63,0,0.87l-7.87,7.87c-0.1,0.1-0.15,0.23-0.15,0.38c0,0.14,0.06,0.27,0.17,0.37   L70.69,40.5c0.09,0.09,0.22,0.14,0.36,0.14c0.14,0,0.27-0.05,0.37-0.15l3.75-3.75c0.12-0.12,0.27-0.18,0.44-0.18   s0.32,0.06,0.44,0.18c0.12,0.12,0.18,0.27,0.18,0.44c0,0.16-0.06,0.32-0.18,0.44l-3.75,3.75c-0.33,0.33-0.77,0.51-1.24,0.51   c-0.38,0-0.74-0.12-1.05-0.34l-0.27-0.2l-1.85,1.85C67.77,43.3,67.61,43.36,67.45,43.36z"></path>
</g>
</svg>