<svg xmlns="http://www.w3.org/2000/svg" xmlns:xlink="http://www.w3.org/1999/xlink" id="Layer_1" x="0px" y="0px" viewBox="0 0 85 85" style="enable-background:new 0 0 85 85;" xml:space="preserve">
<style type="text/css">
	.st0{fill:#FFFFFF;}
	.st1{fill:none;stroke:#4D4D4D;stroke-width:0.25;stroke-miterlimit:10;}
	.st2{fill:#FBAE17;}
	.st3{fill:#FF5E14;}
</style>
<g>
	<path class="st2" d="M35.74,67.27c-5.12,0-9.28-4.16-9.28-9.28c0-5.12,4.16-9.28,9.28-9.28c5.11,0.01,9.28,4.17,9.28,9.28   C45.02,63.1,40.86,67.27,35.74,67.27z M35.74,49.85c-4.49,0-8.14,3.65-8.14,8.14s3.65,8.14,8.14,8.14c4.48,0,8.13-3.65,8.14-8.14   C43.88,53.5,40.23,49.85,35.74,49.85z"></path>
	<path class="st2" d="M35.17,63.4v-1l-0.26-0.05c-1.38-0.26-2.39-1.05-2.6-2.03h1.21c0.27,0.48,1.05,0.97,2.22,0.97   c1.4,0,2.33-0.71,2.33-1.36c0-0.65-0.96-1.36-2.33-1.36c-1.95,0-3.47-1.1-3.47-2.51c0-1.16,1.04-2.13,2.58-2.42l0.24-0.05   l0.08-0.25l0-0.76h1.14v1l0.26,0.05c1.38,0.26,2.38,1.05,2.6,2.03h-1.21c-0.27-0.48-1.05-0.97-2.22-0.97   c-1.4,0-2.33,0.71-2.33,1.36c0,0.66,0.94,1.36,2.33,1.36c1.95,0,3.47,1.1,3.47,2.51c0,1.16-1.04,2.13-2.58,2.42l-0.24,0.05   l-0.08,0.25l0,0.76H35.17z"></path>
	<path class="st2" d="M20.65,71.14V45.98h-4.27c-1.38,0-2.51-1.13-2.51-2.51v-27.1c0-1.38,1.13-2.51,2.51-2.51h21.29   c1.38,0,2.51,1.13,2.51,2.51v1.36H52.5l11.93,12l-0.05,14.31h-1.14V30.49H51.62V18.88H40.18v24.59c0,1.38-1.13,2.51-2.51,2.51   H21.79V70h41.44V58.38h1.14v12.76H20.65z M16.38,15c-0.75,0-1.36,0.61-1.36,1.36v27.1c0,0.75,0.61,1.36,1.36,1.36h21.29   c0.75,0,1.37-0.61,1.37-1.36v-27.1c0-0.75-0.61-1.36-1.37-1.36H16.38z M52.76,29.35h9.67l-9.67-9.66V29.35z"></path>
	<rect x="44.85" y="38.06" class="st2" width="1.14" height="1.14"></rect>
	<rect x="48.72" y="38.06" class="st2" width="10.82" height="1.14"></rect>
	<rect x="44.85" y="34.19" class="st2" width="1.14" height="1.14"></rect>
	<rect x="48.72" y="34.19" class="st2" width="10.82" height="1.14"></rect>
	<rect x="44.85" y="41.93" class="st2" width="1.14" height="1.14"></rect>
	<rect x="48.72" y="41.93" class="st2" width="10.82" height="1.14"></rect>
	<rect x="44.85" y="45.8" class="st2" width="1.14" height="1.14"></rect>
	<rect x="48.72" y="45.8" class="st2" width="10.82" height="1.14"></rect>
	<path class="st2" d="M16.78,22.75v-5.98h20.5v5.98H16.78z M17.92,21.6h18.21v-3.7H17.92V21.6z"></path>
	<path class="st2" d="M19.29,29.52c-0.85,0-1.54-0.69-1.54-1.54v-1.94c0-0.85,0.69-1.54,1.54-1.54h1.94c0.85,0,1.54,0.69,1.54,1.54   v1.94c0,0.85-0.69,1.54-1.54,1.54H19.29z M18.89,28.38h2.73v-2.73h-2.73V28.38z"></path>
	<path class="st2" d="M26.06,29.52c-0.85,0-1.54-0.69-1.54-1.54v-1.94c0-0.85,0.69-1.54,1.54-1.54H28c0.85,0,1.54,0.69,1.54,1.54   v1.94c0,0.85-0.69,1.54-1.54,1.54H26.06z M25.67,28.38h2.73v-2.73h-2.73V28.38z"></path>
	<path class="st2" d="M32.84,29.52c-0.85,0-1.54-0.69-1.54-1.54v-1.94c0-0.85,0.69-1.54,1.54-1.54h1.94c0.85,0,1.54,0.69,1.54,1.54   v1.94c0,0.85-0.69,1.54-1.54,1.54H32.84z M32.44,28.38h2.73v-2.73h-2.73V28.38z"></path>
	<path class="st2" d="M19.29,36.3c-0.85,0-1.54-0.69-1.54-1.54v-1.94c0-0.85,0.69-1.54,1.54-1.54h1.94c0.85,0,1.54,0.69,1.54,1.54   v1.94c0,0.85-0.69,1.54-1.54,1.54H19.29z M18.89,35.15h2.73v-2.73h-2.73V35.15z"></path>
	<path class="st2" d="M26.06,36.3c-0.85,0-1.54-0.69-1.54-1.54v-1.94c0-0.85,0.69-1.54,1.54-1.54H28c0.85,0,1.54,0.69,1.54,1.54   v1.94c0,0.85-0.69,1.54-1.54,1.54H26.06z M25.67,35.15h2.73v-2.73h-2.73V35.15z"></path>
	<path class="st2" d="M32.84,36.3c-0.85,0-1.54-0.69-1.54-1.54v-1.94c0-0.85,0.69-1.54,1.54-1.54h1.94c0.85,0,1.54,0.69,1.54,1.54   v1.94c0,0.85-0.69,1.54-1.54,1.54H32.84z M32.44,35.15h2.73v-2.73h-2.73V35.15z"></path>
	<path class="st2" d="M19.29,43.07c-0.85,0-1.54-0.69-1.54-1.54V39.6c0-0.85,0.69-1.54,1.54-1.54h1.94c0.85,0,1.54,0.69,1.54,1.54   v1.94c0,0.85-0.69,1.54-1.54,1.54H19.29z M18.89,41.93h2.73V39.2h-2.73V41.93z"></path>
	<path class="st2" d="M26.06,43.07c-0.85,0-1.54-0.69-1.54-1.54V39.6c0-0.85,0.69-1.54,1.54-1.54H28c0.85,0,1.54,0.69,1.54,1.54   v1.94c0,0.85-0.69,1.54-1.54,1.54H26.06z M25.67,41.93h2.73V39.2h-2.73V41.93z"></path>
	<path class="st2" d="M32.84,43.07c-0.85,0-1.54-0.69-1.54-1.54V39.6c0-0.85,0.69-1.54,1.54-1.54h1.94c0.85,0,1.54,0.69,1.54,1.54   v1.94c0,0.85-0.69,1.54-1.54,1.54H32.84z M32.44,41.93h2.73V39.2h-2.73V41.93z"></path>
	<path class="st2" d="M48.32,67.27c-0.15,0-0.3-0.06-0.4-0.17c-0.17-0.17-0.21-0.43-0.12-0.64l2.34-5.07   c0.03-0.06,0.07-0.12,0.12-0.17l16.59-16.59c0.48-0.45,1.11-0.71,1.77-0.71c0.66,0,1.3,0.25,1.78,0.71   c0.47,0.47,0.73,1.1,0.73,1.77c0,0.67-0.26,1.3-0.73,1.77L53.8,64.76c-0.05,0.05-0.1,0.08-0.17,0.11l-5.07,2.34   C48.49,67.25,48.41,67.27,48.32,67.27z M51.16,61.93l-1.67,3.6l3.55-1.63l12.73-12.71l-1.93-1.93L51.16,61.93z M64.64,48.44   l1.93,1.93l1.24-1.24l-1.93-1.93L64.64,48.44z M68.62,45.04c-0.36,0-0.7,0.14-0.96,0.38l-0.97,0.97l1.93,1.93l0.96-0.97   c0.26-0.26,0.4-0.6,0.4-0.96s-0.14-0.71-0.4-0.96C69.32,45.18,68.98,45.04,68.62,45.04z"></path>
</g>
</svg>