<svg xmlns="http://www.w3.org/2000/svg" xmlns:xlink="http://www.w3.org/1999/xlink" id="Layer_1" x="0px" y="0px" viewBox="0 0 85 85" style="enable-background:new 0 0 85 85;" xml:space="preserve">
<style type="text/css">
	.st0{fill:#FFFFFF;}
	.st1{fill:none;stroke:#4D4D4D;stroke-width:0.25;stroke-miterlimit:10;}
	.st2{fill:#FBAE17;}
	.st3{fill:#FF5E14;}
</style>
<g>
	<path class="st2" d="M51.3,69.66c-0.26,0-0.48-0.21-0.48-0.48c0-0.26,0.21-0.48,0.48-0.48h18.95v-4.02c0-3.5-1.49-6.83-4.19-9.4   c-1.6-1.51-3.55-2.67-5.66-3.34l-0.3-0.1l-1.56,3.02l1.84,8.19c0.04,0.17-0.01,0.34-0.14,0.46l-3.56,3.26   c-0.09,0.08-0.2,0.13-0.32,0.13s-0.23-0.04-0.32-0.13l-3.56-3.26c-0.13-0.11-0.18-0.29-0.14-0.46l1.86-8.06l-1.57-3.15l-0.3,0.1   c-1.44,0.46-2.8,1.14-4.03,2.01l-0.22,0.16l-0.33,0.25c-0.22,0.18-0.44,0.35-0.65,0.54l-0.4,0.37c-2.72,2.58-4.21,5.93-4.21,9.42   v4.02h5.99c0.26,0,0.48,0.21,0.48,0.48c0,0.26-0.21,0.48-0.48,0.48H42c-0.26,0-0.48-0.21-0.48-0.48v-4.5c0-3.1,1.14-6.2,3.22-8.73   l0.5-0.61H24.59c-0.26,0-0.48-0.21-0.48-0.48c0-0.26,0.21-0.48,0.48-0.48h21.6l0.08-0.07c1.81-1.6,3.95-2.78,6.18-3.42l0.82-0.23   l-0.73-0.44c-1.25-0.76-2.23-1.86-2.85-3.19c-0.06-0.12-0.1-0.22-0.14-0.31c-0.06-0.15-0.09-0.24-0.13-0.32l-0.13-0.41l-0.07-0.26   l-0.08-0.35l-0.06-0.35l-0.04-0.36l-0.03-0.36c0-0.11-0.01-0.24-0.01-0.36v-2.96l-0.42,0.06c-0.38,0.05-0.77,0.08-1.15,0.09   l-0.37,0v1.09c0,1.29-1.05,2.34-2.34,2.34s-2.34-1.05-2.34-2.34v-1.09h-5.91c-0.26,0-0.48-0.21-0.48-0.48   c0-0.26,0.21-0.48,0.48-0.48h5.91v-2.45c0-0.26,0.21-0.48,0.47-0.48h3.74c0.26,0,0.48,0.21,0.48,0.48v2.46l0.38-0.01   c0.42-0.01,0.83-0.05,1.24-0.12l0.31-0.05v-1.98c0-0.12,0-0.25,0.01-0.37c0-0.01,0.02-0.29,0.03-0.37l0.05-0.37l0.06-0.35   l0.08-0.35l0.1-0.34l0.11-0.34l0.13-0.33l0.14-0.32l0.16-0.31l0.17-0.3l0.19-0.29l0.2-0.29l0.21-0.27l0.22-0.26l0.34-0.36   l0.25-0.24l0.26-0.23l0.27-0.21l0.28-0.2l0.29-0.19l0.25-0.14c0.13-0.07,0.21-0.11,0.29-0.15c0.28-0.14,0.49-0.23,0.72-0.31   c0,0,0.25-0.09,0.33-0.11l0.35-0.1l0.35-0.08l0.36-0.07l0.35-0.04l0.66-0.06v-5.5H14.75v6.02c0,4.14,2.81,7.73,6.83,8.71l0.46,0.12   v-2.31c0-0.26,0.21-0.48,0.48-0.48h3.74c0.26,0,0.48,0.21,0.48,0.48v2.45h6.93c0.26,0,0.48,0.21,0.48,0.48   c0,0.26-0.21,0.48-0.48,0.48h-6.93v1.09c0,1.29-1.05,2.34-2.34,2.34s-2.34-1.05-2.34-2.34V41l-0.3-0.06   c-2.56-0.52-4.86-2.08-6.3-4.27l-0.69-1.04v18.77h7.01c0.26,0,0.48,0.21,0.48,0.48c0,0.26-0.21,0.48-0.48,0.48h-7.49   c-0.26,0-0.48-0.21-0.48-0.48V24.72c0-0.26,0.21-0.47,0.48-0.47h9.47v-3.78c0-2.83,2.3-5.12,5.12-5.12h13.24   c2.83,0,5.12,2.3,5.12,5.12v3.78h9.47c0.26,0,0.48,0.21,0.48,0.47v6.03l0.32,0.05c3.54,0.55,6.21,3.67,6.21,7.25v5.91   c0,2.58-1.32,4.92-3.53,6.27l-0.73,0.44l0.83,0.23c6.34,1.8,10.93,7.6,10.93,13.79v4.5c0,0.26-0.21,0.48-0.48,0.48H51.3z M53.33,63   l3.03,2.78L59.4,63l-1.77-7.66h-2.54L53.33,63z M54.74,51.4l-0.43,0.07l-0.74,0.13l1.44,2.79h2.72l1.44-2.8l-0.89-0.15L58,51.4   c-0.13-0.02-0.47-0.05-0.47-0.05c-0.24-0.02-0.39-0.04-0.55-0.04l-0.35-0.01H56.1l-0.33,0.01c-0.21,0.01-0.47,0.04-0.47,0.04   C55.3,51.34,54.87,51.38,54.74,51.4z M56.57,50.33l0.11,0c3.41-0.19,6.07-3,6.07-6.38V40.6l-0.32-0.05   c-3.1-0.48-4.39-3.71-4.4-3.74l-0.29-0.76l-0.39,0.72c-0.02,0.04-1.96,3.49-7.03,3.82l-0.35,0.02v3.34c0,0.11,0,0.21,0.01,0.32   c0.17,3.28,2.87,5.95,6.15,6.06l0.22,0L56.57,50.33z M43.35,42.24c0,0.77,0.62,1.39,1.39,1.39c0.77,0,1.39-0.62,1.39-1.39v-4.02   h-2.78V42.24z M22.99,42.24c0,0.77,0.62,1.39,1.39,1.39s1.39-0.62,1.39-1.39v-4.02h-2.78V42.24z M41.47,18.34   c1.5,0,2.73,1.22,2.73,2.73v3.17h2.09v-3.78c0-2.3-1.87-4.17-4.17-4.17H28.87c-2.3,0-4.17,1.87-4.17,4.17v3.78h2.09v-3.17   c0-1.5,1.22-2.73,2.73-2.73H41.47z M29.51,19.3c-0.98,0-1.78,0.8-1.78,1.78v3.17h15.51v-3.17c0-0.98-0.8-1.78-1.78-1.78H29.51z"></path>
</g>
</svg>