<svg id="Layer_1" data-name="Layer 1" xmlns="http://www.w3.org/2000/svg" viewBox="0 0 85 85"><defs><style>.cls-1{fill:#fbae17;}</style></defs><path class="cls-1" d="M51,72.45l-.3-.06-.84-.18a9.47,9.47,0,0,1-4-2.16,1.94,1.94,0,0,0-1.26-.48H27a2.55,2.55,0,0,1-1.81-.72,2.06,2.06,0,0,1-.54-1.69V65.72c0-.54.06-.6.66-.6h1.14V57.8h-2c-.42,0-.48-.18-.48-.43v-2.1c0-2.16,0-4.62.06-7a4.7,4.7,0,0,1,3.67-4.63c2.76-.84,5.58-1.56,7.74-2.16a1.55,1.55,0,0,0,1.27-1.32l.18-.72L37,39v-.48l-.12-.24a.46.46,0,0,0-.31-.12,9.08,9.08,0,0,1-4.2-4.75,1.49,1.49,0,0,0-1.08-.9A3,3,0,0,1,29.09,29a3.38,3.38,0,0,1,.24-.72,1.61,1.61,0,0,0,.06-1.39,10.62,10.62,0,0,1-.78-5.1,8.74,8.74,0,0,1,1.74-4,13.19,13.19,0,0,1,10.51-5.35h1.08a12.64,12.64,0,0,1,10.57,7.21,6.6,6.6,0,0,1,.48,4l-.06.48c-.18.84-.3,1.68-.42,2.52a1.45,1.45,0,0,0,.3,1.09,3,3,0,0,1,.42,3.12,2.81,2.81,0,0,1-2.64,1.74,1,1,0,0,0-1.08.72,8.94,8.94,0,0,1-4.21,4.81c-.12.06-.18.12-.3.18l-.3.24.24.78c.06.3.18.6.24.9a1.34,1.34,0,0,0,1.14,1.14l5.41,1.44,1.74.48c.06,0,.12.06.18.06,3.07,1,4.15,2.4,4.27,5.53q.09,2.25,0,4.5v2.7a1.89,1.89,0,0,0,.42,1.14,8.61,8.61,0,0,1,2,9.13,8.48,8.48,0,0,1-7.15,5.89c-.12,0-.18.06-.3.06Zm1-17A8.17,8.17,0,0,0,52,71.79,6.75,6.75,0,0,0,55,71.07l.72-.42-.6-.54-.3-.24a1.4,1.4,0,0,1-.42-.42,1.78,1.78,0,0,0-1.56-.72h-1a5.18,5.18,0,0,1-5.1-5.29,3.52,3.52,0,0,1,.24-1.38c.12-.3.24-.48.36-.48h0a.74.74,0,0,1,.48.24l.42.36c.48.42,1,1,1.44,1.44a1.59,1.59,0,0,0,1.32.66,3,3,0,0,0,.72-.12,1.76,1.76,0,0,0,1.08-1.26,1.54,1.54,0,0,0-.36-1.44l-1-1c-.42-.42-.78-.78-1.14-1.2a.5.5,0,0,1-.18-.48c0-.12.24-.18.36-.24a9.87,9.87,0,0,1,1.86-.24,2.25,2.25,0,0,1,.66.06,5.23,5.23,0,0,1,4.27,5.88,1.7,1.7,0,0,0,.24,1.08,6,6,0,0,0,.84.9l1,1,.36-.78a8.08,8.08,0,0,0-4.51-10.51,8.62,8.62,0,0,0-3-.6Zm1.5,12.32a.74.74,0,0,1,.6.3c.42.48.84.9,1.32,1.38l1,1,2.65-2.34L57.92,67c-.48-.48-.9-.9-1.39-1.32a.79.79,0,0,1-.3-1,4.17,4.17,0,0,0-.48-3.48,4.58,4.58,0,0,0-3-2H50.89l1.74,1.68.84.78a.57.57,0,0,1,.18.66l-.18.72c-.12.48-.24.9-.36,1.32,0,.24-.24.42-.48.48-.6.18-1.26.3-1.86.54a.76.76,0,0,1-.36.06.63.63,0,0,1-.54-.3,3.92,3.92,0,0,0-.78-1l-1.8-1.74.3,1.8a4.49,4.49,0,0,0,2.1,3.18A4.3,4.3,0,0,0,52,68a3.87,3.87,0,0,0,1.2-.18C53.29,67.83,53.41,67.77,53.53,67.77Zm-28-1.45a2.82,2.82,0,0,0,.24,2.11,1.77,1.77,0,0,0,1.33.42H44.52l-.36-.78c-.06-.18-.12-.3-.18-.48a4,4,0,0,1-.3-.73,1.17,1.17,0,0,0-1.38-1H25.6Zm3.55-19.1c-1.32,0-1.74.43-1.74,1.75V65H43.2v-.6A8.89,8.89,0,0,1,46.14,57,9.19,9.19,0,0,1,54,54.91l.66.12V48.91c0-1.26-.48-1.69-1.68-1.69Zm4.74-4.5h-.36c-1.86.54-3.72,1-5.58,1.62a4,4,0,0,0-3,3.91c-.12,1.56-.12,3.18-.12,4.56v4.08h1.8V49a2.24,2.24,0,0,1,1.87-2.53h8.71L36,44.94c-.48-.66-.9-1.26-1.32-1.86A1.18,1.18,0,0,0,33.83,42.72Zm19.22,3.72a2.13,2.13,0,0,1,1.68.66A2.5,2.5,0,0,1,55.39,49c-.06,1.2,0,2.46,0,3.42v2a1.06,1.06,0,0,0,.9,1.26h.85V48.55a4.39,4.39,0,0,0-3.43-4.39l-2.34-.66-2.82-.78h-.24a.88.88,0,0,0-.84.3c-.42.6-.85,1.2-1.33,1.8l-1.08,1.56h5.47c.78,0,1.56,0,2.34-.06ZM41,44.88A1.38,1.38,0,0,0,40,45.6l-.48.84h3l-.42-.84a1.32,1.32,0,0,0-1-.72Zm-5.35-2.7-.6.3,2.65,3.6,2.64-1.8-1.38-1a8.39,8.39,0,0,0-1.56-1l-.48-.3c-.12-.06-.12-.12-.24-.18l-.19-.12Zm9.73-.12a1.75,1.75,0,0,0-.54.12c-.6.36-1.14.72-1.74,1.14l-1.38,1,2.64,1.8,2.83-3.9H45.78Zm-7.68-2.34a5.62,5.62,0,0,0-.24,1A1.1,1.1,0,0,0,38,41.76c.84.6,1.68,1.14,2.52,1.68a1,1,0,0,0,.6.12,1,1,0,0,0,.6-.18c.72-.42,1.44-1,2.34-1.56a1.25,1.25,0,0,0,.48-1,10.82,10.82,0,0,0-.3-1.14l-.24-1-.54.12a8.42,8.42,0,0,1-2.46.36,10.42,10.42,0,0,1-2.34-.3l-.54-.12Zm7.44-18.44a2,2,0,0,0-1.5.9c-.06.06-.12.18-.18.24l-.06.12A9.85,9.85,0,0,1,40,25.72a12.29,12.29,0,0,1-6,1.38,1.17,1.17,0,0,0-1.32,1v1a16,16,0,0,0,0,2.4,8.48,8.48,0,0,0,8.17,7h.66a8.37,8.37,0,0,0,7.75-8.47,12,12,0,0,0-1-4.33L48,25a13.46,13.46,0,0,0-1.45-2.82,1.53,1.53,0,0,0-1.32-.9ZM31,27.77a2.14,2.14,0,0,0-1,2.88,1.87,1.87,0,0,0,1,1l.84.48V27.4Zm19-.18V32l.66-.06a2.15,2.15,0,0,0,2-2.28v-.06a2.1,2.1,0,0,0-2.1-2H50ZM40.8,13.23a11.59,11.59,0,0,0-10.33,5.89c-1.74,2.7-1.14,5.4-.42,7.44l.18.48,1-.24.6-.18a5.1,5.1,0,0,1,1.32-.24,8.86,8.86,0,0,1,1.26-.06A14.71,14.71,0,0,0,36,26.2a9.41,9.41,0,0,0,6.91-4.26,2.63,2.63,0,0,1,2.16-1.44h0a2.47,2.47,0,0,1,2,1.26A16.35,16.35,0,0,1,48.73,25l.18.42c.48,1.14.72,1.32,2.16,1.32h.54l.24-1.62c.12-.66.18-1.32.3-2a4.84,4.84,0,0,0-.6-3.42A11.31,11.31,0,0,0,41.4,13.23Z"/></svg>