<svg xmlns="http://www.w3.org/2000/svg" viewBox="0 0 980 303.54"><defs><style>.cls-1{fill:#231f20;}.cls-2{fill:#fbae17;}.cls-3{fill:#8d53a0;}.cls-4{fill:#ec1651;}.cls-5{fill:#929497;}</style></defs><g id="Layer_2" data-name="Layer 2"><g id="Layer_1-2" data-name="Layer 1"><rect class="cls-1" x="406.71" width="47.28" height="209.09"></rect><path class="cls-1" d="M203,58.27l1.67,19.85a50,50,0,0,1,17.95-16.8q10.77-5.93,24.75-5.91t24.23,6.14c6.81,4.1,11.9,10.34,15.38,18.67a50.56,50.56,0,0,1,17.9-18.33c7.29-4.34,15.86-6.48,25.61-6.48q22,0,34.66,15.14c8.38,10.1,12.62,25.62,12.62,46.66v91.88H330.44V117.21q0-14.64-4.57-20.09T312.3,91.69a28.56,28.56,0,0,0-12.09,2.43,25.78,25.78,0,0,0-8.85,6.76c0,1.57,0,3,.14,4.14s.14,2.29.14,3.38V209.09H244.51V117.21q0-14.64-4.48-20.09c-2.94-3.62-7.56-5.43-13.8-5.43a27.16,27.16,0,0,0-11.62,2.43,25,25,0,0,0-8.85,6.76V209.09H158.58V58.27Z"></path><path class="cls-1" d="M62.74,178.24a29.48,29.48,0,0,0,12.86-2.76,27.12,27.12,0,0,0,9.47-7.23V144.82H68.32c-7.43,0-12.86,1.81-16.24,5.43A19.15,19.15,0,0,0,47,164a13.29,13.29,0,0,0,4.38,10.33,16.53,16.53,0,0,0,11.37,4M87.6,191.52a52,52,0,0,1-16.19,14.91c-6.33,3.66-14,5.52-23,5.52-14.28,0-25.95-4.14-34.9-12.43S0,180.24,0,166.53c0-15,5.62-26.52,16.81-34.66S45,119.68,67.93,119.68H85.07V109c0-6.38-1.52-11.28-4.52-14.71s-7.71-5.14-14-5.14c-5.39,0-9.38,1.29-12.05,3.81s-4,6.47-4,11.85l-45.6-.14-.24-.86q-1-20.62,17.13-34.51t48-13.86q27.84,0,45.22,14c11.62,9.34,17.38,22.62,17.38,40v99.9C115,209.15,91.63,209.79,87.6,191.52Z"></path><path class="cls-1" d="M914.45,91.69c-6.76,0-11.86,2.38-15.29,7.19s-5.42,11.24-6.18,19.23l.42.72H934v-3.62q0-11.35-4.72-17.43c-3.19-4-8.09-6.09-14.8-6.09M864.6,191.05q-19.85-20.93-19.9-52.42v-5.28q0-34.42,18.09-56.27t51.66-21.67q30.7,0,48.13,18.38T980,123.59v24.66H893.83l-.28.86A31,31,0,0,0,903,168.2c16.72,15.81,59,2.52,77-5V198.5C946.46,214.38,892.27,220.21,864.6,191.05Z"></path><path class="cls-1" d="M627.42,191.19a49.56,49.56,0,0,1-17.81,15.38A51.58,51.58,0,0,1,585.86,212q-23.5,0-36.75-15t-13.33-46.65v-92h47v92.17c0,8.47,1.62,14.81,4.81,18.94s7.81,6.29,13.76,6.29a38.85,38.85,0,0,0,13.24-2.09,25,25,0,0,0,9.75-6.29v-109h47.14V209.09c-18.63.93-34.29-3.32-44-17.9"></path><path class="cls-1" d="M753.55,178.24a29.47,29.47,0,0,0,12.85-2.76,27.16,27.16,0,0,0,9.48-7.23V144.82H759.12q-11.14,0-16.24,5.43A19.19,19.19,0,0,0,737.79,164a13.32,13.32,0,0,0,4.38,10.33,16.54,16.54,0,0,0,11.38,4m24.85,13.28a51.84,51.84,0,0,1-16.19,14.91c-6.33,3.66-14,5.52-23,5.52-14.28,0-25.94-4.14-34.89-12.43s-13.48-19.28-13.48-33c0-15,5.62-26.52,16.81-34.66s28.23-12.19,51.13-12.19h17.14V109c0-6.38-1.53-11.28-4.52-14.71s-7.72-5.14-14.05-5.14c-5.38,0-9.38,1.29-12,3.81s-4,6.47-4,11.85l-45.61-.14-.24-.86q-1-20.62,17.14-34.51t48-13.86q27.86,0,45.22,14c11.62,9.34,17.38,22.62,17.38,40v99.9C805.81,209.15,782.43,209.79,778.4,191.52Z"></path><rect class="cls-2" width="377.72" height="33.12"></rect><rect class="cls-3" x="695.66" width="284.34" height="33.12"></rect><rect class="cls-4" x="535.78" width="135.68" height="33.12"></rect><path class="cls-5" d="M796.59,256l9.56,22.75h.18L815.92,256h7.23l-13.76,30v16.85H802.9V285.57L789.29,256ZM771.76,298.6l.1.12a11.75,11.75,0,0,0,1.73-.12,7.87,7.87,0,0,0,1.52-.39,8.92,8.92,0,0,0,1.36-.62,5.5,5.5,0,0,0,1.15-.9,6.83,6.83,0,0,0,.9-1.11,8.34,8.34,0,0,0,.66-1.26,8,8,0,0,0,.39-1.44,9.66,9.66,0,0,0,.14-1.65,11.53,11.53,0,0,0-.12-1.59,6.51,6.51,0,0,0-.36-1.43,7.78,7.78,0,0,0-.57-1.28,5.79,5.79,0,0,0-.82-1.14,7.62,7.62,0,0,0-1.13-1,11.19,11.19,0,0,0-1.46-1,19.08,19.08,0,0,0-1.81-.9c-.67-.29-1.39-.56-2.17-.83q-1.66-.51-3.15-1.08a29.62,29.62,0,0,1-2.76-1.25,21,21,0,0,1-2.36-1.39,16.73,16.73,0,0,1-2-1.58,10,10,0,0,1-1.56-1.77,11.88,11.88,0,0,1-1.11-2,11.36,11.36,0,0,1-.68-2.28,14,14,0,0,1-.22-2.56,14.38,14.38,0,0,1,.24-2.66,11.07,11.07,0,0,1,.74-2.39,11.78,11.78,0,0,1,1.24-2.14A12.35,12.35,0,0,1,761.4,259a13,13,0,0,1,4.54-2.67,14.42,14.42,0,0,1,2.7-.68,18.91,18.91,0,0,1,3-.22,18,18,0,0,1,3.1.25,15.47,15.47,0,0,1,2.79.77,12.83,12.83,0,0,1,2.46,1.3,13.27,13.27,0,0,1,2.14,1.8,13.67,13.67,0,0,1,1.71,2.15,13.14,13.14,0,0,1,1.21,2.36,12.38,12.38,0,0,1,.71,2.59,16,16,0,0,1,.19,2.8l-.06.2h-6.28a13.67,13.67,0,0,0-.13-2,10.53,10.53,0,0,0-.39-1.76,12.66,12.66,0,0,0-.66-1.55,7.77,7.77,0,0,0-2.11-2.51,6.33,6.33,0,0,0-1.38-.81,8.37,8.37,0,0,0-1.59-.48,10.41,10.41,0,0,0-1.8-.15,11.47,11.47,0,0,0-1.71.12,6.35,6.35,0,0,0-1.5.4,9.32,9.32,0,0,0-1.3.66,5.11,5.11,0,0,0-1.09.93,9.06,9.06,0,0,0-.87,1.14,5.93,5.93,0,0,0-.63,1.29,9.32,9.32,0,0,0-.37,1.45,9,9,0,0,0-.13,1.59,7.56,7.56,0,0,0,.13,1.44,6,6,0,0,0,.41,1.32,5.77,5.77,0,0,0,.67,1.18A9.24,9.24,0,0,0,766,273a10.8,10.8,0,0,0,1.24,1,15.5,15.5,0,0,0,1.57.94,20.47,20.47,0,0,0,1.93.92c.69.3,1.45.6,2.26.87a30.56,30.56,0,0,1,3,1.07,27.79,27.79,0,0,1,2.62,1.28,19.4,19.4,0,0,1,2.23,1.43,13.44,13.44,0,0,1,1.87,1.62,11.71,11.71,0,0,1,1.46,1.86,10.41,10.41,0,0,1,1,2.08,12.68,12.68,0,0,1,.63,2.35,15.52,15.52,0,0,1,.21,2.59,14.76,14.76,0,0,1-.24,2.73,11.84,11.84,0,0,1-.74,2.43,10.66,10.66,0,0,1-3,4,13.15,13.15,0,0,1-2.14,1.48,12.41,12.41,0,0,1-2.44,1.06,16,16,0,0,1-2.75.63,21.26,21.26,0,0,1-3.06.2,17.74,17.74,0,0,1-3-.24,17.08,17.08,0,0,1-2.84-.7,16.55,16.55,0,0,1-2.66-1.15,16.12,16.12,0,0,1-2.43-1.63,11.71,11.71,0,0,1-4.3-7.29,16.35,16.35,0,0,1-.23-3.19l.06-.2h6.27a14.58,14.58,0,0,0,.17,2.25,11.28,11.28,0,0,0,.46,1.94A7.69,7.69,0,0,0,764,295a7.42,7.42,0,0,0,1.1,1.32,7.71,7.71,0,0,0,1.35,1,8.51,8.51,0,0,0,1.56.72,10.41,10.41,0,0,0,1.75.43A12.37,12.37,0,0,0,771.76,298.6Zm-25.5,4.24L742.85,291H727.92l-3.4,11.83h-6.63L732.3,256h6.3l14.29,46.83Zm-10.94-37.47-5.88,20.46h11.93l-5.85-20.46Zm-22.6,10.74v5H695.35v16.78h20.14v4.95H688.82V256h26.47v5H695.35v15.08Zm-47.08,0v5H648.27v16.78H668.4v4.95H641.74V256h26.47v5H648.27v15.08ZM617.27,261h-6.11v36.86h6.11a10.46,10.46,0,0,0,2.33-.26,8.19,8.19,0,0,0,2.07-.78,9.15,9.15,0,0,0,1.81-1.33,9.72,9.72,0,0,0,1.56-1.84,14.24,14.24,0,0,0,1.24-2.28,17.68,17.68,0,0,0,.9-2.54,19.23,19.23,0,0,0,.55-2.89,27.31,27.31,0,0,0,.18-3.2v-6.71a26.92,26.92,0,0,0-.18-3.17,19.43,19.43,0,0,0-.55-2.85,17.39,17.39,0,0,0-.9-2.55,15.87,15.87,0,0,0-1.24-2.25,10,10,0,0,0-1.56-1.84,8.72,8.72,0,0,0-1.81-1.32,7.51,7.51,0,0,0-2.07-.79A10.46,10.46,0,0,0,617.27,261Zm.22,41.81H604.62V256h12.87a17.05,17.05,0,0,1,3.56.36,14.64,14.64,0,0,1,3.22,1.05,14.37,14.37,0,0,1,2.87,1.74,17.91,17.91,0,0,1,2.53,2.48,18.45,18.45,0,0,1,2.08,3,20.06,20.06,0,0,1,1.48,3.42,22.44,22.44,0,0,1,.89,3.8,30.36,30.36,0,0,1,.28,4.23v6.66a30,30,0,0,1-.28,4.23,23.26,23.26,0,0,1-.89,3.83,19,19,0,0,1-1.48,3.41,17.87,17.87,0,0,1-2.08,3,15.82,15.82,0,0,1-2.53,2.46,14,14,0,0,1-2.87,1.75,15.17,15.17,0,0,1-3.22,1A17.76,17.76,0,0,1,617.49,302.84Zm-24.73,0L589.35,291H574.42L571,302.84h-6.63L578.8,256h6.31l14.28,46.83Zm-10.94-37.47-5.88,20.46h11.93L582,265.37ZM520.2,256h8.39l10.94,38.21h.19l11-38.21h8.42v46.83h-6.47v-18l.59-18-.19,0-11.26,36h-4.3l-11.24-36-.18,0,.6,18v18H520.2Zm-23,20.1v5H479.81v16.78h20.13v4.95H473.28V256h26.46v5H479.81v15.08ZM459.9,288.62h6.21l.09.2a21.8,21.8,0,0,1-.24,3.3,15.51,15.51,0,0,1-.73,2.93,14.16,14.16,0,0,1-1.16,2.52,12,12,0,0,1-1.63,2.12,11.75,11.75,0,0,1-2,1.69,12.64,12.64,0,0,1-2.41,1.21,14.37,14.37,0,0,1-2.82.71,19.13,19.13,0,0,1-3.19.24,17.94,17.94,0,0,1-3.27-.28,15,15,0,0,1-2.92-.87,12.29,12.29,0,0,1-2.57-1.45,14.16,14.16,0,0,1-2.24-2,15.31,15.31,0,0,1-1.8-2.54,17.35,17.35,0,0,1-1.28-3,21.25,21.25,0,0,1-.77-3.47,27.18,27.18,0,0,1-.27-3.91V273a26.94,26.94,0,0,1,.27-3.9,20.8,20.8,0,0,1,.76-3.47,15.17,15.17,0,0,1,1.25-3,13.43,13.43,0,0,1,1.79-2.55,12.69,12.69,0,0,1,2.18-2,12.06,12.06,0,0,1,2.56-1.47,14.35,14.35,0,0,1,2.88-.87,17.75,17.75,0,0,1,3.24-.29,19.79,19.79,0,0,1,3.26.25,15.34,15.34,0,0,1,2.86.7,12.78,12.78,0,0,1,2.44,1.17,12.63,12.63,0,0,1,2.06,1.65,10.8,10.8,0,0,1,1.62,2.09,13.68,13.68,0,0,1,1.18,2.53,15.84,15.84,0,0,1,.71,3,24,24,0,0,1,.28,3.4l-.09.18h-6.18c0-.85-.08-1.65-.17-2.39a11,11,0,0,0-.38-2,9,9,0,0,0-.62-1.71,7.39,7.39,0,0,0-.85-1.37,5.4,5.4,0,0,0-1.12-1.07,7,7,0,0,0-1.38-.75,7.54,7.54,0,0,0-1.65-.46,13.17,13.17,0,0,0-1.93-.14,8.32,8.32,0,0,0-1.9.21,7.35,7.35,0,0,0-1.67.6,7.22,7.22,0,0,0-1.45,1,8.08,8.08,0,0,0-1.23,1.41,10.72,10.72,0,0,0-1,1.78,12.18,12.18,0,0,0-.68,2.14,19.51,19.51,0,0,0-.43,2.49,28.33,28.33,0,0,0-.15,2.84V286c0,1,.06,2,.15,2.9a17.75,17.75,0,0,0,.44,2.5,14.26,14.26,0,0,0,.7,2.15,8.84,8.84,0,0,0,1,1.8,8.69,8.69,0,0,0,1.26,1.42,6.67,6.67,0,0,0,1.47,1,7.73,7.73,0,0,0,1.71.61,8.43,8.43,0,0,0,1.92.21,11.31,11.31,0,0,0,1.89-.15,7.76,7.76,0,0,0,1.64-.45,5.55,5.55,0,0,0,1.35-.76,5.78,5.78,0,0,0,1.07-1,5.65,5.65,0,0,0,.85-1.35,10.36,10.36,0,0,0,.59-1.71,13.83,13.83,0,0,0,.36-2.08A20.63,20.63,0,0,0,459.9,288.62ZM429.28,256v46.83h-6.49L405,268l-.19.07v34.76h-6.53V256h6.53l17.75,34.73.2-.05V256Zm-42.83,46.83L383,291H368.11l-3.4,11.83h-6.63L372.49,256h6.3l14.29,46.83Zm-10.94-37.47-5.88,20.46h11.93l-5.85-20.46ZM352.2,256v46.83h-6.5V256Zm-31,0v41.88h18.27v4.95h-24.8V256Zm-27.55,28.37-8.85-.07v18.46h-6.53V256h15.38a19.2,19.2,0,0,1,3.1.24,13.87,13.87,0,0,1,2.75.74,12.37,12.37,0,0,1,2.4,1.24,13.21,13.21,0,0,1,2,1.71,10.85,10.85,0,0,1,1.62,2.11,12.52,12.52,0,0,1,1.15,2.42,15.61,15.61,0,0,1,.72,2.73,18.56,18.56,0,0,1,.24,3,18.83,18.83,0,0,1-.24,3.07,15.61,15.61,0,0,1-.72,2.73,12.8,12.8,0,0,1-1.15,2.42,12.2,12.2,0,0,1-1.62,2.11,13.15,13.15,0,0,1-2,1.7,11.29,11.29,0,0,1-2.4,1.22,13.86,13.86,0,0,1-2.75.73A19.2,19.2,0,0,1,293.64,284.38ZM284.79,261v18.37h8.85a9.73,9.73,0,0,0,1.75-.16,6.85,6.85,0,0,0,1.51-.48,5.87,5.87,0,0,0,1.27-.82,7.55,7.55,0,0,0,1.89-2.53,9.37,9.37,0,0,0,.61-1.56,12.45,12.45,0,0,0,.35-1.72,15.9,15.9,0,0,0,.11-1.86,17,17,0,0,0-.11-1.92,13.55,13.55,0,0,0-.35-1.75,9.84,9.84,0,0,0-.61-1.57,7.51,7.51,0,0,0-.83-1.39,7.2,7.2,0,0,0-1.06-1.14,6.27,6.27,0,0,0-1.27-.82,6.85,6.85,0,0,0-1.51-.48,8.88,8.88,0,0,0-1.75-.17ZM230.4,256h8.4l10.93,38.21h.2l11-38.21h8.42v46.83h-6.47v-18l.58-18-.18,0-11.27,36h-4.3l-11.23-36-.19,0,.6,18v18H230.4Zm-13.89,29.88,0-12.93a26.09,26.09,0,0,0-.14-2.88,15.52,15.52,0,0,0-.45-2.49,13.49,13.49,0,0,0-.77-2.14,10.37,10.37,0,0,0-1.07-1.78,8.58,8.58,0,0,0-1.35-1.4,7.68,7.68,0,0,0-1.62-1,8.42,8.42,0,0,0-1.86-.59,11,11,0,0,0-2.12-.19,10.31,10.31,0,0,0-2.06.19,8.43,8.43,0,0,0-1.82.59,7.66,7.66,0,0,0-1.58,1,6.93,6.93,0,0,0-1.29,1.4,9.1,9.1,0,0,0-1,1.78,12.54,12.54,0,0,0-.75,2.14,19.82,19.82,0,0,0-.43,2.49,26.09,26.09,0,0,0-.14,2.88v13a26.28,26.28,0,0,0,.14,2.89,17.27,17.27,0,0,0,.45,2.53,12.08,12.08,0,0,0,.76,2.15,10.89,10.89,0,0,0,1,1.78,7.62,7.62,0,0,0,1.31,1.4,7.41,7.41,0,0,0,1.58,1,8.18,8.18,0,0,0,1.81.6,10.45,10.45,0,0,0,2.06.19,11.07,11.07,0,0,0,2.12-.19,8.7,8.7,0,0,0,1.87-.6,7.23,7.23,0,0,0,1.59-1,9,9,0,0,0,1.34-1.4,9.17,9.17,0,0,0,1-1.78,12.08,12.08,0,0,0,.76-2.15,17.31,17.31,0,0,0,.45-2.55A26.65,26.65,0,0,0,216.51,285.89ZM223.08,273,223,285.89a27.2,27.2,0,0,1-.27,3.94,20.24,20.24,0,0,1-.81,3.47,14.82,14.82,0,0,1-1.34,3,15.54,15.54,0,0,1-1.89,2.56,13.52,13.52,0,0,1-2.33,2,14.71,14.71,0,0,1-2.71,1.45,16.09,16.09,0,0,1-3.08.87,19.71,19.71,0,0,1-3.42.29,19,19,0,0,1-3.39-.29,15.39,15.39,0,0,1-3-.87,12.79,12.79,0,0,1-2.65-1.45,14,14,0,0,1-2.28-2,13.84,13.84,0,0,1-1.86-2.56,16.58,16.58,0,0,1-1.31-3,20.25,20.25,0,0,1-.79-3.47,28.75,28.75,0,0,1-.26-3.94V273a25.82,25.82,0,0,1,.28-3.94,19.82,19.82,0,0,1,.8-3.47,15.94,15.94,0,0,1,1.32-3,14.14,14.14,0,0,1,1.84-2.55,13.85,13.85,0,0,1,2.31-2,12.84,12.84,0,0,1,2.67-1.48,14.25,14.25,0,0,1,3-.89,19,19,0,0,1,3.36-.29,19.92,19.92,0,0,1,3.43.29,14.44,14.44,0,0,1,3.06.89,13.41,13.41,0,0,1,2.71,1.48,14.44,14.44,0,0,1,2.34,2,14,14,0,0,1,1.9,2.55,16,16,0,0,1,1.35,3,19,19,0,0,1,.82,3.47A25.82,25.82,0,0,1,223.08,273Zm-43.2,15.59h6.21l.09.2a21.8,21.8,0,0,1-.24,3.3,14.78,14.78,0,0,1-.72,2.93,14.19,14.19,0,0,1-1.17,2.52,12.39,12.39,0,0,1-1.62,2.12,11.76,11.76,0,0,1-4.46,2.9,14.19,14.19,0,0,1-2.82.71,19,19,0,0,1-3.18.24,17.86,17.86,0,0,1-3.27-.28,14.8,14.8,0,0,1-2.92-.87,12,12,0,0,1-2.57-1.45,14.16,14.16,0,0,1-2.24-2,14.75,14.75,0,0,1-1.8-2.54,16.64,16.64,0,0,1-1.29-3,22.34,22.34,0,0,1-.77-3.47,28.73,28.73,0,0,1-.26-3.91V273a28.48,28.48,0,0,1,.26-3.9,21.85,21.85,0,0,1,.76-3.47,16.45,16.45,0,0,1,1.25-3,13.9,13.9,0,0,1,1.79-2.55,12.75,12.75,0,0,1,2.19-2,12,12,0,0,1,2.55-1.47,14.44,14.44,0,0,1,2.89-.87,17.67,17.67,0,0,1,3.24-.29,19.88,19.88,0,0,1,3.26.25,15.23,15.23,0,0,1,2.85.7,12.78,12.78,0,0,1,2.44,1.17,12.3,12.3,0,0,1,2.07,1.65,10.8,10.8,0,0,1,1.62,2.09,13.66,13.66,0,0,1,1.17,2.53,16.65,16.65,0,0,1,.72,3,25.61,25.61,0,0,1,.27,3.4l-.09.18h-6.18c0-.85-.07-1.65-.16-2.39a11.92,11.92,0,0,0-.39-2,9,9,0,0,0-.62-1.71,6.9,6.9,0,0,0-.85-1.37,5.16,5.16,0,0,0-1.12-1.07,6.5,6.5,0,0,0-1.38-.75,7.29,7.29,0,0,0-1.64-.46,13.31,13.31,0,0,0-1.94-.14,8.38,8.38,0,0,0-1.9.21,7.1,7.1,0,0,0-1.66.6,7.22,7.22,0,0,0-1.45,1,7.69,7.69,0,0,0-1.23,1.41,10,10,0,0,0-1,1.78,12.19,12.19,0,0,0-.69,2.14,19.51,19.51,0,0,0-.43,2.49,28.42,28.42,0,0,0-.14,2.84V286c0,1,.05,2,.14,2.9a17.75,17.75,0,0,0,.44,2.5,16.94,16.94,0,0,0,.7,2.15,9.35,9.35,0,0,0,1,1.8,9.73,9.73,0,0,0,1.26,1.42,6.73,6.73,0,0,0,1.48,1,7.38,7.38,0,0,0,1.71.61,8.37,8.37,0,0,0,1.92.21,11.31,11.31,0,0,0,1.89-.15,7.51,7.51,0,0,0,1.63-.45,5.2,5.2,0,0,0,1.35-.76,5.53,5.53,0,0,0,1.08-1,5.63,5.63,0,0,0,.84-1.35,11.36,11.36,0,0,0,.6-1.71,16.93,16.93,0,0,0,.36-2.08A20.72,20.72,0,0,0,179.88,288.62Z"></path></g></g></svg>