<?xml version="1.0" encoding="utf-8"?>
<!-- Generator: Adobe Illustrator 24.0.1, SVG Export Plug-In . SVG Version: 6.00 Build 0)  -->
<svg version="1.1" id="Layer_1" xmlns="http://www.w3.org/2000/svg" xmlns:xlink="http://www.w3.org/1999/xlink" x="0px" y="0px"
	 viewBox="0 0 148 149" style="enable-background:new 0 0 148 149;" xml:space="preserve">
<style type="text/css">
	.st0{fill:#FBAE17;}
	.st1{fill:#FFFFFF;}
	.st2{fill:none;stroke:#FFFFFF;stroke-width:0.25;stroke-miterlimit:10;}
</style>
<g>
	<circle class="st1" cx="73" cy="75" r="69"/>
	<path class="st0" d="M84.56,106.53c-2.65-1.04-3.85-3.05-3.74-6.31c0.11-3.09,0.08-6.22,0.06-9.25c-0.01-1.59-0.02-3.16-0.02-4.73
		c0.01-3.59,1.92-5.5,5.5-5.51c2.41-0.01,4.83-0.01,7.24-0.01c2.5,0,5.01,0,7.51,0.01c3.68,0.01,5.55,1.91,5.55,5.65
		c0.01,3.46,0.01,6.92,0,10.38l0,3.59c0,3.57-0.82,4.84-4,6.19H84.56z M93.75,82.44c-2.54,0-5.08,0.01-7.62,0.03
		c-2.31,0.02-3.49,1.2-3.51,3.51c-0.04,5.15-0.04,10.28,0,15.24c0.02,2.3,1.2,3.47,3.51,3.48c2.54,0.01,5.08,0.01,7.62,0.01
		s5.08,0,7.62-0.01c2.29-0.01,3.46-1.18,3.48-3.48c0.01-1.7,0.01-3.4,0.01-5.11v-4.77c0-1.79,0.01-3.57-0.01-5.36
		c-0.02-2.31-1.19-3.49-3.48-3.51C98.83,82.45,96.29,82.44,93.75,82.44z"/>
	<path class="st0" d="M70.3,100.91c-14.1,0-26.69-10.78-28.65-24.54c-2.34-16.42,7.8-30.49,24.11-33.47
		c1.58-0.29,3.21-0.43,4.82-0.43c11.74,0,22.86,7.71,27.04,18.74l1.21,3.19l1.37-3.31c0.54-1.31,1.06-2.56,1.56-3.81
		c0.36-0.89,0.61-1.31,1.05-1.31c0.12,0,0.27,0.03,0.43,0.09c0.29,0.11,0.46,0.24,0.53,0.41c0.14,0.33-0.06,0.87-0.29,1.44
		l-0.77,1.85c-1.03,2.45-2.09,4.99-3.12,7.56c-0.34,0.86-0.74,0.97-1.04,0.97c-0.21,0-0.47-0.06-0.77-0.18
		c-3.48-1.43-6.96-2.86-10.43-4.29c-0.41-0.17-0.68-0.38-0.78-0.63c-0.08-0.19-0.06-0.42,0.06-0.68c0.16-0.37,0.36-0.52,0.69-0.52
		c0.21,0,0.47,0.06,0.77,0.19c1.84,0.77,3.69,1.53,5.61,2.31l3.28,1.33l-0.2-0.92c-2.13-9.97-11.96-20.58-25.96-20.58
		c-1.05,0-2.12,0.06-3.18,0.18c-7.67,0.88-14.41,4.6-18.96,10.45c-4.48,5.77-6.4,13.04-5.39,20.47
		c1.83,13.52,13.52,23.71,27.18,23.71c2.11,0,4.26-0.24,6.39-0.71c0.28,1.69,0.24,1.7-1.79,2.07
		C73.51,100.77,71.91,100.91,70.3,100.91L70.3,100.91z"/>
	<polygon class="st0" points="87.15,94.79 88.22,93.36 92.83,96.84 100.46,87.98 101.77,89.14 92.97,99.25 	"/>
</g>
</svg>
