<?xml version="1.0" encoding="utf-8"?>
<!-- Generator: Adobe Illustrator 24.0.1, SVG Export Plug-In . SVG Version: 6.00 Build 0)  -->
<svg version="1.1" id="Layer_1" xmlns="http://www.w3.org/2000/svg" xmlns:xlink="http://www.w3.org/1999/xlink" x="0px" y="0px"
	 viewBox="0 0 148 149" style="enable-background:new 0 0 148 149;" xml:space="preserve">
<style type="text/css">
	.st0{fill:#FBAE17;}
	.st1{fill:#FFFFFF;}
	.st2{fill:none;stroke:#FFFFFF;stroke-width:0.25;stroke-miterlimit:10;}
</style>
<g>
	<circle class="st1" cx="74" cy="74.5" r="69"/>
	<g>
		<g>
			<path class="st0" d="M43.85,101.76c0-2.89,0-5.59,0-8.29c0-8.43,0-16.87,0-25.3c0-4.15,1.68-5.82,5.84-5.83c0.87,0,1.73,0,2.81,0
				c0-1.12,0-2.04,0-2.96c0-4.41-0.04-8.81,0.02-13.22c0.04-3.12,2.14-5.23,5.24-5.24c11.9-0.03,23.79-0.04,35.69,0
				c3.48,0.01,5.49,2.1,5.53,5.55c0.03,2.57,0.01,5.15,0.01,8.02c2.46,0,4.82,0.07,7.18-0.03c1.42-0.06,1.85,0.43,1.83,1.83
				c-0.08,4.28-0.02,8.56-0.03,12.84c-0.01,4.49-2.48,6.59-7.02,5.84c0,8.91,0,17.79,0,26.68c3.16,0.64,3.75,1.24,3.64,3.68
				c-0.09,1.85-0.96,2.75-2.84,2.78c-2.52,0.04-5.04,0.01-7.55,0.01c-16.87,0-33.74,0-50.61,0c-2.82,0-3.94-1.29-3.5-3.99
				C40.42,102.09,41.97,101.83,43.85,101.76z M53.72,91.35c-0.28,0.05-0.56,0.1-0.85,0.15c-0.12-0.63-0.35-1.26-0.35-1.89
				C52.5,83,52.51,76.39,52.51,69.78c0-0.67,0-1.34,0-1.98c-1.17,0-2.08,0-3.02,0c0,10,0,19.86,0,29.79c15.27,0,30.45,0,45.67,0
				c0-10.01,0-19.87,0-29.81c-1.7,0-3.3,0-5.07,0c0,0.86,0,1.6,0,2.34c0,6.48,0.01,12.97-0.02,19.45c0,0.64-0.23,1.28-0.36,1.93
				c-0.22-0.02-0.44-0.03-0.66-0.05c-0.08-0.76-0.23-1.51-0.23-2.27c-0.01-13.41-0.05-26.82,0.02-40.22
				c0.01-2.24,0.49-4.47,0.76-6.88c-0.14,0-0.74,0-1.34,0c-9.76,0-19.51,0-29.27,0c-4,0-5.28,1.29-5.28,5.32c0,13.85,0,27.7,0,41.54
				C53.72,89.76,53.72,90.55,53.72,91.35z M90.19,66.44c1.63,0,3.01,0.09,4.38-0.02c1.61-0.14,2.02,0.52,2.01,2.05
				c-0.06,9.5-0.06,19.01,0,28.51c0.01,1.53-0.41,2.07-2.02,2.06c-14.79-0.06-29.58-0.06-44.37,0c-1.69,0.01-2.13-0.52-2.12-2.15
				c0.07-9.44,0.07-18.88,0-28.32c-0.01-1.6,0.36-2.39,2.09-2.15c0.72,0.1,1.47,0.02,2.21,0.02c0-1.09,0-1.94,0-2.9
				c-0.74,0-1.36,0-1.99,0c-4.42-0.01-5.3,0.87-5.3,5.29c0,10.2,0,20.39,0,30.59c0,0.74,0,1.48,0,2.43c0.91,0,1.59,0,2.27,0
				c5.29,0,10.57-0.02,15.86,0.03c0.7,0.01,1.7,0.14,2.04,0.6c1.4,1.9,3.28,2.02,5.35,1.91c1.69-0.09,3.41,0.13,5.09-0.07
				c1.01-0.12,1.96-0.78,2.94-1.19c1.04-0.43,2.08-1.19,3.14-1.21c5.22-0.13,10.45-0.05,15.67-0.06c0.66,0,1.32-0.08,2.12-0.13
				c0-0.89,0-1.57,0-2.26c0-8.24,0-16.49,0-24.73c0-2.45,0.04-4.91-0.02-7.36c-0.05-2.04-1.1-3.57-2.81-3.71
				c-2.17-0.18-4.36-0.04-6.56-0.04C90.19,64.58,90.19,65.38,90.19,66.44z M72.33,106.9c9.63,0,19.26-0.01,28.89,0.01
				c1.36,0,2.15-0.37,2.16-1.9c0.01-1.52-0.72-1.92-2.11-1.91c-6.55,0.04-13.09,0-19.64,0.05c-0.63,0-1.52,0.19-1.83,0.62
				c-1.25,1.71-2.91,1.92-4.82,1.82c-1.95-0.11-3.91-0.11-5.85,0c-1.61,0.09-2.93-0.2-3.98-1.56c-0.34-0.44-1.02-0.86-1.54-0.86
				c-6.92-0.06-13.85-0.07-20.77,0.03c-0.51,0.01-1.34,0.87-1.46,1.45c-0.35,1.69,0.28,2.25,2.26,2.25
				C53.19,106.91,62.76,106.9,72.33,106.9z M97.8,62.28c0-5.22,0.01-10.37,0-15.51c-0.01-2.81-1.53-4.6-3.87-4.6
				c-2.34,0-3.81,1.75-3.83,4.62c-0.02,4.59-0.01,9.18,0,13.77c0,0.54,0.1,1.07,0.16,1.72C92.79,62.28,95.16,62.28,97.8,62.28z
				 M106.59,55.82c-2.65,0-5.06,0-7.64,0c0.4,3.28-0.95,6.61,1.44,9.5c0.41,0.5,0.37,1.44,0.4,2.17c0.06,1.38,0.01,2.76,0.02,4.14
				c0.01,2.05,0.73,2.64,2.77,2.22c1.64-0.33,2.91-1.33,2.96-2.98C106.68,65.88,106.59,60.88,106.59,55.82z"/>
			<path class="st0" d="M77.8,91.5c-2.39,0-4.78-0.04-7.16,0.02c-1.06,0.02-1.46-0.37-1.46-1.42c0.03-4.09,0.04-8.17,0-12.26
				c-0.01-1.19,0.51-1.48,1.6-1.47c4.65,0.04,9.3,0.05,13.95,0c1.15-0.01,1.55,0.39,1.54,1.52c-0.04,4.02-0.05,8.05,0.01,12.07
				c0.02,1.28-0.51,1.6-1.69,1.57C82.33,91.45,80.06,91.5,77.8,91.5z M84.94,77.7c-4.89,0-9.57,0-14.32,0c0,1.3,0,2.49,0,4
				c0.73-0.98,1.25-1.68,1.94-2.6c1.17,1.92,2.15,3.54,3.2,5.27c0.69-0.99,1.27-1.83,2.07-3c1.6,2.74,3.06,5.13,4.4,7.59
				c0.63,1.16,1.35,1.71,2.71,1.13C84.94,85.99,84.94,81.93,84.94,77.7z M77.63,90.2c-1.77-3.06-3.39-5.87-5.02-8.7
				c-2.63,2.63-2.28,5.61-1.99,8.7C72.88,90.2,75.05,90.2,77.63,90.2z M81.47,90.07c-1.23-2.12-2.41-4.17-3.56-6.15
				c-2.17,1.6-0.76,2.88-0.06,4.2C78.56,89.44,79.16,90.94,81.47,90.07z"/>
			<path class="st0" d="M64.6,59.06c-1.95,0-3.9-0.04-5.85,0.02c-1.07,0.03-1.42-0.38-1.41-1.43c0.05-3.4,0.04-6.79,0-10.19
				c-0.01-0.98,0.36-1.32,1.33-1.31c3.96,0.04,7.93,0.04,11.89,0c0.99-0.01,1.33,0.38,1.32,1.33c-0.03,3.4-0.04,6.79,0.01,10.19
				c0.01,1.07-0.39,1.44-1.44,1.41C68.5,59.01,66.55,59.06,64.6,59.06z M70.59,47.5c-4.12,0-8.03,0-11.92,0c0,3.51,0,6.88,0,10.23
				c4.05,0,7.97,0,11.92,0C70.59,54.26,70.59,50.94,70.59,47.5z"/>
			<path class="st0" d="M86.14,63.09c-9.86,0-19.28,0-29.01,0C58.55,61.8,84.49,61.75,86.14,63.09z"/>
			<path class="st0" d="M57.44,72.24c9.43,0,18.86,0,28.29,0c0.03,0.19,0.07,0.38,0.1,0.57c-0.5,0.15-1.01,0.44-1.51,0.44
				c-8.49,0.03-16.98,0.02-25.47,0.01c-0.49,0-0.98-0.2-1.47-0.31C57.4,72.71,57.42,72.47,57.44,72.24z"/>
			<path class="st0" d="M85.7,66.43c-9.4,0-18.81,0-28.21,0c-0.05-0.15-0.1-0.31-0.15-0.46c0.4-0.18,0.81-0.51,1.21-0.52
				c8.68-0.03,17.35-0.03,26.03-0.01c0.41,0,0.83,0.21,1.24,0.33C85.78,65.99,85.74,66.21,85.7,66.43z"/>
			<path class="st0" d="M57.49,68.94c9.4,0,18.81,0,28.21,0c0.05,0.16,0.1,0.32,0.14,0.48c-0.36,0.18-0.72,0.5-1.08,0.5
				c-8.74,0.03-17.47,0.03-26.21,0.01c-0.4,0-0.8-0.26-1.2-0.39C57.39,69.34,57.44,69.14,57.49,68.94z"/>
			<path class="st0" d="M67.21,83.87c-1.32,0.93-9.21,1.03-10.8,0.24C57.27,83.12,65.19,82.89,67.21,83.87z"/>
			<path class="st0" d="M75.17,52.25c3.51,0,7.02,0,10.66,0C84.95,53.47,76.88,53.7,75.17,52.25z"/>
			<path class="st0" d="M56.13,87.98c1.41-1.32,9.84-1.3,11.14,0C63.51,87.98,60,87.98,56.13,87.98z"/>
			<path class="st0" d="M74.74,56.63c1.72-1.32,9.94-1.26,11.24,0C82.22,56.63,78.72,56.63,74.74,56.63z"/>
			<path class="st0" d="M56.03,79.85c2.81,0,5.19,0,7.65,0C62.96,81.19,57.68,81.35,56.03,79.85z"/>
			<path class="st0" d="M74.73,48.53c2.85,0,5.21,0,7.67,0C81.59,49.83,76.49,49.98,74.73,48.53z"/>
			<path class="st0" d="M81.33,82.93c-0.42-0.56-1.37-1.3-1.52-2.17c-0.2-1.23,0.7-2.11,2.06-2.12c1.26-0.01,2.01,0.72,2.08,1.96
				C84.03,81.94,83.3,82.69,81.33,82.93z"/>
			<path class="st0" d="M61.75,48.91c2.25,1.31,4.11,2.39,6.48,3.77c-2.35,1.36-4.23,2.45-6.48,3.76
				C61.75,53.77,61.75,51.6,61.75,48.91z M62.93,51.02c0,1.21,0,2.13,0,3.31c1.02-0.59,1.81-1.05,2.85-1.65
				C64.78,52.1,63.96,51.62,62.93,51.02z"/>
		</g>
		<g>
			<path class="st0" d="M43.85,101.76c0-2.89,0-5.59,0-8.29c0-8.43,0-16.87,0-25.3c0-4.15,1.68-5.82,5.84-5.83c0.87,0,1.73,0,2.81,0
				c0-1.12,0-2.04,0-2.96c0-4.41-0.04-8.81,0.02-13.22c0.04-3.12,2.14-5.23,5.24-5.24c11.9-0.03,23.79-0.04,35.69,0
				c3.48,0.01,5.49,2.1,5.53,5.55c0.03,2.57,0.01,5.15,0.01,8.02c2.46,0,4.82,0.07,7.18-0.03c1.42-0.06,1.85,0.43,1.83,1.83
				c-0.08,4.28-0.02,8.56-0.03,12.84c-0.01,4.49-2.48,6.59-7.02,5.84c0,8.91,0,17.79,0,26.68c3.16,0.64,3.75,1.24,3.64,3.68
				c-0.09,1.85-0.96,2.75-2.84,2.78c-2.52,0.04-5.04,0.01-7.55,0.01c-16.87,0-33.74,0-50.61,0c-2.82,0-3.94-1.29-3.5-3.99
				C40.42,102.09,41.97,101.83,43.85,101.76z M53.72,91.35c-0.28,0.05-0.56,0.1-0.85,0.15c-0.12-0.63-0.35-1.26-0.35-1.89
				C52.5,83,52.51,76.39,52.51,69.78c0-0.67,0-1.34,0-1.98c-1.17,0-2.08,0-3.02,0c0,10,0,19.86,0,29.79c15.27,0,30.45,0,45.67,0
				c0-10.01,0-19.87,0-29.81c-1.7,0-3.3,0-5.07,0c0,0.86,0,1.6,0,2.34c0,6.48,0.01,12.97-0.02,19.45c0,0.64-0.23,1.28-0.36,1.93
				c-0.22-0.02-0.44-0.03-0.66-0.05c-0.08-0.76-0.23-1.51-0.23-2.27c-0.01-13.41-0.05-26.82,0.02-40.22
				c0.01-2.24,0.49-4.47,0.76-6.88c-0.14,0-0.74,0-1.34,0c-9.76,0-19.51,0-29.27,0c-4,0-5.28,1.29-5.28,5.32c0,13.85,0,27.7,0,41.54
				C53.72,89.76,53.72,90.55,53.72,91.35z M90.19,66.44c1.63,0,3.01,0.09,4.38-0.02c1.61-0.14,2.02,0.52,2.01,2.05
				c-0.06,9.5-0.06,19.01,0,28.51c0.01,1.53-0.41,2.07-2.02,2.06c-14.79-0.06-29.58-0.06-44.37,0c-1.69,0.01-2.13-0.52-2.12-2.15
				c0.07-9.44,0.07-18.88,0-28.32c-0.01-1.6,0.36-2.39,2.09-2.15c0.72,0.1,1.47,0.02,2.21,0.02c0-1.09,0-1.94,0-2.9
				c-0.74,0-1.36,0-1.99,0c-4.42-0.01-5.3,0.87-5.3,5.29c0,10.2,0,20.39,0,30.59c0,0.74,0,1.48,0,2.43c0.91,0,1.59,0,2.27,0
				c5.29,0,10.57-0.02,15.86,0.03c0.7,0.01,1.7,0.14,2.04,0.6c1.4,1.9,3.28,2.02,5.35,1.91c1.69-0.09,3.41,0.13,5.09-0.07
				c1.01-0.12,1.96-0.78,2.94-1.19c1.04-0.43,2.08-1.19,3.14-1.21c5.22-0.13,10.45-0.05,15.67-0.06c0.66,0,1.32-0.08,2.12-0.13
				c0-0.89,0-1.57,0-2.26c0-8.24,0-16.49,0-24.73c0-2.45,0.04-4.91-0.02-7.36c-0.05-2.04-1.1-3.57-2.81-3.71
				c-2.17-0.18-4.36-0.04-6.56-0.04C90.19,64.58,90.19,65.38,90.19,66.44z M72.33,106.9c9.63,0,19.26-0.01,28.89,0.01
				c1.36,0,2.15-0.37,2.16-1.9c0.01-1.52-0.72-1.92-2.11-1.91c-6.55,0.04-13.09,0-19.64,0.05c-0.63,0-1.52,0.19-1.83,0.62
				c-1.25,1.71-2.91,1.92-4.82,1.82c-1.95-0.11-3.91-0.11-5.85,0c-1.61,0.09-2.93-0.2-3.98-1.56c-0.34-0.44-1.02-0.86-1.54-0.86
				c-6.92-0.06-13.85-0.07-20.77,0.03c-0.51,0.01-1.34,0.87-1.46,1.45c-0.35,1.69,0.28,2.25,2.26,2.25
				C53.19,106.91,62.76,106.9,72.33,106.9z M97.8,62.28c0-5.22,0.01-10.37,0-15.51c-0.01-2.81-1.53-4.6-3.87-4.6
				c-2.34,0-3.81,1.75-3.83,4.62c-0.02,4.59-0.01,9.18,0,13.77c0,0.54,0.1,1.07,0.16,1.72C92.79,62.28,95.16,62.28,97.8,62.28z
				 M106.59,55.82c-2.65,0-5.06,0-7.64,0c0.4,3.28-0.95,6.61,1.44,9.5c0.41,0.5,0.37,1.44,0.4,2.17c0.06,1.38,0.01,2.76,0.02,4.14
				c0.01,2.05,0.73,2.64,2.77,2.22c1.64-0.33,2.91-1.33,2.96-2.98C106.68,65.88,106.59,60.88,106.59,55.82z"/>
			<path class="st0" d="M77.8,91.5c-2.39,0-4.78-0.04-7.16,0.02c-1.06,0.02-1.46-0.37-1.46-1.42c0.03-4.09,0.04-8.17,0-12.26
				c-0.01-1.19,0.51-1.48,1.6-1.47c4.65,0.04,9.3,0.05,13.95,0c1.15-0.01,1.55,0.39,1.54,1.52c-0.04,4.02-0.05,8.05,0.01,12.07
				c0.02,1.28-0.51,1.6-1.69,1.57C82.33,91.45,80.06,91.5,77.8,91.5z M84.94,77.7c-4.89,0-9.57,0-14.32,0c0,1.3,0,2.49,0,4
				c0.73-0.98,1.25-1.68,1.94-2.6c1.17,1.92,2.15,3.54,3.2,5.27c0.69-0.99,1.27-1.83,2.07-3c1.6,2.74,3.06,5.13,4.4,7.59
				c0.63,1.16,1.35,1.71,2.71,1.13C84.94,85.99,84.94,81.93,84.94,77.7z M77.63,90.2c-1.77-3.06-3.39-5.87-5.02-8.7
				c-2.63,2.63-2.28,5.61-1.99,8.7C72.88,90.2,75.05,90.2,77.63,90.2z M81.47,90.07c-1.23-2.12-2.41-4.17-3.56-6.15
				c-2.17,1.6-0.76,2.88-0.06,4.2C78.56,89.44,79.16,90.94,81.47,90.07z"/>
			<path class="st0" d="M64.6,59.06c-1.95,0-3.9-0.04-5.85,0.02c-1.07,0.03-1.42-0.38-1.41-1.43c0.05-3.4,0.04-6.79,0-10.19
				c-0.01-0.98,0.36-1.32,1.33-1.31c3.96,0.04,7.93,0.04,11.89,0c0.99-0.01,1.33,0.38,1.32,1.33c-0.03,3.4-0.04,6.79,0.01,10.19
				c0.01,1.07-0.39,1.44-1.44,1.41C68.5,59.01,66.55,59.06,64.6,59.06z M70.59,47.5c-4.12,0-8.03,0-11.92,0c0,3.51,0,6.88,0,10.23
				c4.05,0,7.97,0,11.92,0C70.59,54.26,70.59,50.94,70.59,47.5z"/>
			<path class="st0" d="M86.14,63.09c-9.86,0-19.28,0-29.01,0C58.55,61.8,84.49,61.75,86.14,63.09z"/>
			<path class="st0" d="M57.44,72.24c9.43,0,18.86,0,28.29,0c0.03,0.19,0.07,0.38,0.1,0.57c-0.5,0.15-1.01,0.44-1.51,0.44
				c-8.49,0.03-16.98,0.02-25.47,0.01c-0.49,0-0.98-0.2-1.47-0.31C57.4,72.71,57.42,72.47,57.44,72.24z"/>
			<path class="st0" d="M85.7,66.43c-9.4,0-18.81,0-28.21,0c-0.05-0.15-0.1-0.31-0.15-0.46c0.4-0.18,0.81-0.51,1.21-0.52
				c8.68-0.03,17.35-0.03,26.03-0.01c0.41,0,0.83,0.21,1.24,0.33C85.78,65.99,85.74,66.21,85.7,66.43z"/>
			<path class="st0" d="M57.49,68.94c9.4,0,18.81,0,28.21,0c0.05,0.16,0.1,0.32,0.14,0.48c-0.36,0.18-0.72,0.5-1.08,0.5
				c-8.74,0.03-17.47,0.03-26.21,0.01c-0.4,0-0.8-0.26-1.2-0.39C57.39,69.34,57.44,69.14,57.49,68.94z"/>
			<path class="st0" d="M67.21,83.87c-1.32,0.93-9.21,1.03-10.8,0.24C57.27,83.12,65.19,82.89,67.21,83.87z"/>
			<path class="st0" d="M75.17,52.25c3.51,0,7.02,0,10.66,0C84.95,53.47,76.88,53.7,75.17,52.25z"/>
			<path class="st0" d="M56.13,87.98c1.41-1.32,9.84-1.3,11.14,0C63.51,87.98,60,87.98,56.13,87.98z"/>
			<path class="st0" d="M74.74,56.63c1.72-1.32,9.94-1.26,11.24,0C82.22,56.63,78.72,56.63,74.74,56.63z"/>
			<path class="st0" d="M56.03,79.85c2.81,0,5.19,0,7.65,0C62.96,81.19,57.68,81.35,56.03,79.85z"/>
			<path class="st0" d="M74.73,48.53c2.85,0,5.21,0,7.67,0C81.59,49.83,76.49,49.98,74.73,48.53z"/>
			<path class="st0" d="M81.33,82.93c-0.42-0.56-1.37-1.3-1.52-2.17c-0.2-1.23,0.7-2.11,2.06-2.12c1.26-0.01,2.01,0.72,2.08,1.96
				C84.03,81.94,83.3,82.69,81.33,82.93z"/>
			<path class="st0" d="M61.75,48.91c2.25,1.31,4.11,2.39,6.48,3.77c-2.35,1.36-4.23,2.45-6.48,3.76
				C61.75,53.77,61.75,51.6,61.75,48.91z M62.93,51.02c0,1.21,0,2.13,0,3.31c1.02-0.59,1.81-1.05,2.85-1.65
				C64.78,52.1,63.96,51.62,62.93,51.02z"/>
		</g>
	</g>
</g>
</svg>
