<?xml version="1.0" encoding="utf-8"?>
<!-- Generator: Adobe Illustrator 24.0.1, SVG Export Plug-In . SVG Version: 6.00 Build 0)  -->
<svg version="1.1" id="Layer_1" xmlns="http://www.w3.org/2000/svg" xmlns:xlink="http://www.w3.org/1999/xlink" x="0px" y="0px"
	 viewBox="0 0 111 105" style="enable-background:new 0 0 111 105;" xml:space="preserve">
<style type="text/css">
	.st0{clip-path:url(#SVGID_2_);}
	.st1{fill:#F2F2F2;}
	.st2{fill:#FFFFFF;}
	.st3{opacity:0.39;clip-path:url(#SVGID_6_);}
	.st4{opacity:0.77;fill:url(#SVGID_7_);}
	.st5{opacity:0.77;fill:#FFFFFF;}
	.st6{opacity:0.57;fill:#FFFFFF;}
	.st7{fill:#644B9E;}
	.st8{fill:url(#SVGID_8_);}
	.st9{fill:url(#SVGID_9_);}
	.st10{fill:url(#SVGID_10_);}
	.st11{fill:#4D4D4D;}
	.st12{opacity:0.2;}
	.st13{fill:#F15A30;}
	.st14{fill:url(#SVGID_17_);}
	.st15{fill:url(#SVGID_18_);}
	.st16{fill:url(#SVGID_19_);}
	.st17{opacity:0.21;clip-path:url(#SVGID_21_);fill:url(#SVGID_22_);}
	.st18{clip-path:url(#SVGID_21_);}
	.st19{opacity:0.77;clip-path:url(#SVGID_21_);fill:url(#SVGID_25_);}
	.st20{opacity:0.77;clip-path:url(#SVGID_21_);fill:url(#SVGID_26_);}
	.st21{fill:#333333;}
	.st22{opacity:0.77;fill:url(#SVGID_29_);}
	.st23{fill:none;stroke:#F15A30;stroke-width:2;stroke-linecap:round;stroke-miterlimit:10;}
	.st24{fill:none;stroke:#4D4D4D;stroke-miterlimit:10;}
	.st25{fill:none;stroke:#4D4D4D;stroke-miterlimit:10;stroke-dasharray:3.0093,3.0093;}
	.st26{fill:none;stroke:#4D4D4D;stroke-miterlimit:10;stroke-dasharray:2.9739,2.9739;}
	.st27{opacity:0.77;fill:url(#SVGID_32_);}
	.st28{fill:#FF5E14;}
	.st29{opacity:0.27;clip-path:url(#SVGID_36_);fill:#1F2023;}
	.st30{opacity:0.77;fill:url(#SVGID_37_);}
	.st31{fill:#FBAE17;}
</style>
<g>
	<circle class="st31" cx="55.5" cy="52.5" r="51"/>
	<g>
		<path class="st2" d="M31.84,53.84c0.05-0.08,0.06-0.17,0.05-0.26c0.37-0.18,0.35-0.53,0.34-0.85c-0.02-3.5-0.05-7.01-0.07-10.51
			c-0.11-0.22-0.22-0.44-0.33-0.66c-0.92,0.02-1.02,0.63-1.01,1.36c0.01,3.19,0.01,6.38,0,9.57C30.82,53.21,30.91,53.83,31.84,53.84
			z"/>
		<path class="st2" d="M37.56,69.09c3.98,0.01,7.95,0.02,11.93,0.02c0.56-0.06,0.76-0.42,0.66-0.92c-0.09-0.46-0.49-0.58-0.89-0.59
			c-1.22-0.02-2.43-0.02-3.65-0.02c-2.43,0-4.87,0-7.3,0c-0.51,0-1.04,0-1.29,0.54C36.76,68.66,37.08,68.94,37.56,69.09z"/>
		<path class="st2" d="M56.81,75.66c3.32,0.06,6.64,0.05,9.95,0.01c0.69-0.01,1.39-0.22,0.91-1.21c-0.24-0.11-0.48-0.31-0.72-0.31
			c-3.58,0.01-7.16,0.05-10.74,0.08C55.33,75.17,55.83,75.65,56.81,75.66z"/>
		<path class="st2" d="M64.18,72.38c0.89,0,1.77,0.03,2.66-0.01c0.51-0.02,1.04-0.16,0.99-0.85c-0.04-0.55-0.44-0.71-0.94-0.71
			c-1.83,0-3.65,0-5.48,0c-0.57,0-1,0.19-0.98,0.84c0.02,0.58,0.46,0.72,0.93,0.73C62.3,72.4,63.24,72.38,64.18,72.38z"/>
		<path class="st2" d="M62.2,44.23c1.23,1.69,3.14,1.92,4.98,2.3C67,44.67,63.89,43.23,62.2,44.23z"/>
		<path class="st2" d="M79.29,68.48c-1-0.88-1.89-1.87-2.93-2.7c-1.29-1.03-1.89-2.18-1.88-3.94c0.09-11.2,0.05-22.4,0.04-33.6
			c0-3.02-1.34-4.34-4.36-4.35c-5.88-0.01-11.75,0-17.63,0c-5.77,0-11.53,0-17.3,0c-3,0-4.41,1.38-4.41,4.31
			c-0.01,2.61,0,5.21,0,7.82c0,0.74-0.05,1.51,1.03,1.52c0.05-0.07,0.07-0.15,0.05-0.24c0.46-0.3,0.34-0.78,0.34-1.19
			c0-2.96-0.02-5.92-0.03-8.89c0.61-1.28,1.58-1.79,3.05-1.79c11.62,0.04,23.24,0.04,34.86,0c1.45,0,2.46,0.46,3.04,1.79
			c-0.01,1.55-0.03,3.1-0.03,4.66c-0.02,10.2-0.04,20.4-0.06,30.61c-0.61-0.55-1.19-1.14-1.84-1.65c-0.9-0.7-1.03-1.32-0.48-2.45
			c1.51-3.12,1.33-6.29-0.31-9.36c-0.28-0.52-0.51-1.14-1.27-1.15c-1.18,0.32-1.06,1.05-0.59,1.88c2.85,5.04,0.21,10.45-4.52,12.43
			c-3.09,1.15-5.86,0.53-8.37-1.47c0.36,0.34,0.84,0.22,1.28,0.25c0.77,0,1.54,0.06,2.31,0.05c1.16-0.02,2.32,0.09,3.46-0.1
			c0.7-0.12,1.31-0.44,1.3-1.25c-0.01-0.8-0.62-1.1-1.31-1.25c-0.49-0.1-0.99-0.1-1.48-0.1c-2.04,0-4.08-0.02-6.12,0.03
			c-0.54-0.01-1.13,0.16-1.56-0.31c-0.37-0.41-0.75-0.88-0.63-1.45c0.08-0.41,0.54-0.23,0.84-0.25c3.04,0.06,6.08,0.02,9.12,0.02
			c1.44,0,2.88,0.08,4.31-0.07c0.57-0.06,1.09-0.27,1.28-0.89c0.21-0.66-0.17-1.04-0.68-1.34c-1-0.22-2.04,0.1-3.02-0.24
			c-3.2-0.18-6.4,0.01-9.6-0.11c-0.83-0.03-2.17,0.58-2.36-0.76c-0.22-1.54,1.21-1.19,2.12-1.34c0.63-0.1,1.25-0.27,1.32-1.01
			c0.06-0.68-0.47-0.98-1.04-1.08c-1.31-0.22-0.88-0.8-0.31-1.39c1.06-1.09,2.34-1.81,3.74-2.37c0.79-0.32,1.79-0.63,1.13-1.87
			c-0.51-0.44-1.05-0.18-1.56-0.04c-2.66,0.77-4.77,2.31-6.16,4.71c-0.55,0.95-1.2,1.24-2.26,1.22c-3.04-0.07-6.08-0.02-9.12-0.02
			c-0.94,0-1.88,0-2.82,0.01c-0.41,0-0.8,0.11-0.9,0.56c-0.1,0.44,0.09,0.74,0.56,0.82c0,0,0,0,0,0c4.32,0,8.63,0.01,12.95,0.01
			c0,0,0,0,0,0c0.43,2.88,0.23,3.14-2.44,3.14c-0.77,0-1.54,0-2.31,0c-2.53,0-5.06,0-7.59,0.01c-0.45,0-0.92,0.03-1.13,0.51
			c-0.22,0.5,0,0.83,0.52,0.97c0,0,0,0,0,0c0,0,0,0,0,0c4.32,0.02,8.64,0.04,12.96,0.07c0,0,0,0,0,0c0.31,0.98,0.62,1.95,0.98,3.06
			c-4.25,0-8.35,0-12.45,0c-0.5,0-1,0.01-1.48,0.09c-0.35,0.06-0.6,0.36-0.6,0.71c-0.01,0.35,0.26,0.64,0.6,0.71
			c0.43,0.09,0.88,0.08,1.32,0.08c4.16,0.01,8.32-0.01,12.48,0.01c0.52,0,1.08-0.17,1.56,0.3c0.94,0.92,1.95,1.78,2.93,2.66
			c-6.09,0.02-12.19,0.05-18.28,0.07h0h0c-0.55,0.13-0.76,0.49-0.5,0.97c0.32,0.62,0.97,0.43,1.5,0.43
			c6.93,0.01,13.86-0.02,20.8,0.02c1.63,0.01,3.43,0.04,4.68-0.78c2.86-1.88,4.55-0.49,6.3,1.52c0.61,0.7,1.36,1.31,2.1,1.89
			c0.83,0.64,1.08,1.41,1.04,2.45c-0.08,1.88-0.02,3.77-0.02,5.66c-0.01,2.44-0.7,3.14-3.17,3.14c-11.59,0-23.18-0.02-34.77,0.03
			c-1.5,0.01-2.59-0.37-3.27-1.72c-0.02-6.32-0.04-12.64-0.05-18.96c-0.12-0.21-0.24-0.42-0.35-0.63c-1.18,0.09-0.98,0.98-0.98,1.73
			c-0.02,5.96-0.04,11.91-0.05,17.87c0.66,2.32,1.91,3.29,4.29,3.3c3.26,0.02,6.52,0.03,9.79,0.05c6.44,0.79,12.88,0.77,19.32,0.02
			c2.1-0.02,4.2-0.05,6.3-0.06c2.42-0.02,3.49-0.74,4.4-2.99c0.2-2.06,0.42-4.11,0.48-6.41c1.12,0.73,1.86,1.83,3.14,1.17
			c0.97-0.18,1.53-0.76,1.73-1.72C80.21,69.71,79.93,69.04,79.29,68.48z M78.49,70.51c-0.34,0.35-0.61-0.03-0.83-0.23
			c-1.39-1.25-2.76-2.52-4.14-3.79c-1.48-1.32-2.96-2.64-4.42-3.98c-0.28-0.26-0.86-0.47-0.39-1.04c0.53-0.65,0.85-0.1,1.18,0.23
			c1.31,1.26,2.6,2.54,3.9,3.8c1.48,1.4,2.97,2.79,4.44,4.19C78.46,69.92,78.84,70.16,78.49,70.51z"/>
		<path class="st2" d="M42.73,43.8c1.75-1.95,3.32-4.01,4-6.6c0.9-3.41-1.45-6.44-4.92-6.43c-3.29,0.01-5.69,2.97-4.88,6.2
			c0.66,2.62,2.13,4.83,3.97,6.8C41.51,44.41,42.1,44.5,42.73,43.8z M38.56,35.3c0.21-2.46,2.23-3.65,4.64-2.76
			c2.03,1.2,2.6,2.52,1.93,4.7c-0.41,1.33-1.11,2.53-2.02,3.59h0c-0.52,0.42-0.44,1.7-1.64,1.13c0,0,0,0,0,0
			c-0.61-0.45-0.98-1.08-1.27-1.76C39.1,38.75,38.41,37.15,38.56,35.3z"/>
		<path class="st2" d="M44.3,35.28c-0.3-1.47-1.28-2.12-2.75-2.11c-3.08,0.92-3.04,3.61-0.69,5.04c0.56,0.02,1.13,0.04,1.69,0.06
			C43.86,37.7,44.61,36.78,44.3,35.28z M41.87,36.76c-0.63-0.02-1.01-0.46-0.96-1.1c0.04-0.6,0.48-0.84,1.04-0.81
			c0.59,0.03,0.86,0.4,0.91,0.9C42.74,36.36,42.42,36.78,41.87,36.76z"/>
	</g>
</g>
</svg>
