<svg xmlns="http://www.w3.org/2000/svg" viewBox="0 0 94.99 94.99"><defs><style>.cls-1{fill:#fbae17;}.cls-2{fill:#fff;stroke:#fbae17;stroke-miterlimit:10;}</style></defs><g id="Layer_2" data-name="Layer 2"><g id="Layer_1-2" data-name="Layer 1"><circle class="cls-1" cx="47.5" cy="47.5" r="47.5"/><path class="cls-2" d="M39.62,78.44V62.91h2.17V80.79a36.3,36.3,0,0,1-4.68-.28,5.34,5.34,0,0,1-4.17-5.13q-.06-5.92,0-11.85a21.28,21.28,0,0,1,.44-2.9H24.3a7.81,7.81,0,0,0-8.1,8.15,40.4,40.4,0,0,0,.16,5.28,5.13,5.13,0,0,0,4.29,4.24v-12h2.21V78.46h10v2.26H22a7.78,7.78,0,0,1-8-8.06,47,47,0,0,1,.14-5.57,9.81,9.81,0,0,1,9.44-8.64c3.53-.1,7.06.05,10.59.06a1,1,0,0,0,.67-.33,10,10,0,0,1,8.44-4.23H51.6a10.08,10.08,0,0,1,8.46,4.21,1.1,1.1,0,0,0,.79.33c3.74,0,7.49-.19,11.21.07a9.74,9.74,0,0,1,8.8,9.28,39.05,39.05,0,0,1-.13,6.4,7.57,7.57,0,0,1-7.37,6.47c-3.67,0-7.34,0-11,0l-.38,0V78.51H72V66.25h2.21v12a5.22,5.22,0,0,0,4.33-4.23,24.32,24.32,0,0,0,.14-3.82,18,18,0,0,0-.21-3.53,7.59,7.59,0,0,0-7.18-6c-3.16-.11-6.32,0-9.48,0a1.55,1.55,0,0,0-.28,0c.83,4.92.35,9.85.39,14.75a5.41,5.41,0,0,1-5.3,5.26c-1.16,0-2.32,0-3.53,0V62.91h2.15V78.38c2.65.51,4.49-1,4.49-3.58V64.27a7.83,7.83,0,0,0-8.09-8.1c-2.79,0-5.58,0-8.37,0a7.82,7.82,0,0,0-8.08,8.1c0,3.39.09,6.79,0,10.17C35,76.81,36.46,78.85,39.62,78.44Z"/><path class="cls-2" d="M74.23,50.56V48.44c.94-.38,1.09-.6,1.09-1.61v-6c0-1-.4-1.39-1.4-1.39-1.7,0-3.4,0-5.09,0-.47,0-.69-.09-.81-.6a20.51,20.51,0,0,0-2.52-6c-.08-.14-.15-.28-.25-.47,1.33-1.32,2.65-2.62,4-3.94.84-.84.84-1.33,0-2.16L65,22.07c-.76-.76-1.3-.76-2.08,0L59.09,26,54,23.74a4.68,4.68,0,0,0-.53-.17c-1.53-.46-1.53-.46-1.53-2.09,0-1.37,0-2.74,0-4.11,0-.95-.41-1.36-1.37-1.36q-3.1,0-6.21,0c-.94,0-1.34.42-1.34,1.38,0,1.72,0,3.44,0,5.16,0,.43-.08.65-.55.76a21.16,21.16,0,0,0-6.54,2.82c-.66-.69-1.31-1.38-2-2.05s-1.43-1.46-2.17-2.17a1.14,1.14,0,0,0-1.73,0q-2.31,2.28-4.58,4.59a1.1,1.1,0,0,0,0,1.76c1.21,1.23,2.43,2.44,3.65,3.66l.49.52a22.57,22.57,0,0,0-2.85,6.64c0,.16-.4.35-.61.35-1.69,0-3.39,0-5.09,0-1.17,0-1.52.36-1.52,1.55v5.79c0,1.07.13,1.27,1.08,1.67v2.07a3.17,3.17,0,0,1-3.3-3.07q-.08-3.56,0-7.11a3.3,3.3,0,0,1,3.38-3.13c1.25,0,2.51,0,3.76,0a.78.78,0,0,0,.59-.3c.3-.68.5-1.4.78-2.08s.63-1.34,1-2.06c-.94-.93-1.88-1.86-2.81-2.8a3.37,3.37,0,0,1,0-5.21c1.41-1.41,2.82-2.83,4.24-4.24a3.44,3.44,0,0,1,5.28,0c.81.81,1.62,1.6,2.41,2.43a.62.62,0,0,0,.84.14c1.16-.53,2.33-1,3.52-1.48a.57.57,0,0,0,.46-.64c0-1.26,0-2.51,0-3.77a3.34,3.34,0,0,1,3.38-3.42c2.21,0,4.42,0,6.63,0a3.34,3.34,0,0,1,3.37,3.44c0,1.23,0,2.46,0,3.69a.63.63,0,0,0,.48.71c1.21.45,2.39,1,3.6,1.47a.8.8,0,0,0,.69-.12c.88-.83,1.72-1.7,2.58-2.55a3.41,3.41,0,0,1,5.08,0q2.23,2.2,4.43,4.44a3.33,3.33,0,0,1,0,5c-1,1-1.95,1.93-2.88,2.85.58,1.48,1.13,2.9,1.72,4.31.06.13.37.22.57.22,1.18,0,2.37,0,3.55,0a3.36,3.36,0,0,1,3.6,3.56c0,2.16,0,4.33,0,6.49A3.26,3.26,0,0,1,74.23,50.56Z"/><path class="cls-2" d="M63.08,43.87H60.85a13.39,13.39,0,0,0-5.2-10.51A12.89,12.89,0,0,0,47,30.53,13.47,13.47,0,0,0,34,43.85h-2.2c.2-5.48,2.4-9.9,7-12.89a14.88,14.88,0,0,1,16.42-.57C60.31,33.29,62.8,37.92,63.08,43.87Z"/><path class="cls-2" d="M47.4,52.82a6.69,6.69,0,1,1,6.72-6.66A6.67,6.67,0,0,1,47.4,52.82Zm0-2.23A4.46,4.46,0,1,0,43,46.09,4.45,4.45,0,0,0,47.4,50.59Z"/><path class="cls-2" d="M28.42,57.28a6.69,6.69,0,1,1,6.73-6.64A6.68,6.68,0,0,1,28.42,57.28Zm0-2.23a4.44,4.44,0,0,0,4.47-4.45,4.46,4.46,0,0,0-8.92,0A4.44,4.44,0,0,0,28.45,55.05Z"/><path class="cls-2" d="M66.36,57.28a6.69,6.69,0,1,1,6.73-6.65A6.69,6.69,0,0,1,66.36,57.28Zm0-2.23a4.44,4.44,0,0,0,4.46-4.47,4.46,4.46,0,1,0-4.46,4.47Z"/><path class="cls-2" d="M51.85,78.53v2.15H43V78.53Z"/></g></g></svg>