<svg xmlns="http://www.w3.org/2000/svg" viewBox="0 0 94.99 94.99"><defs><style>.cls-1{fill:#fff;}.cls-2{fill:#fbae17;stroke:#fff;stroke-miterlimit:10;stroke-width:2px;}</style></defs><g id="Layer_2" data-name="Layer 2"><g id="Layer_1-2" data-name="Layer 1"><circle class="cls-1" cx="47.5" cy="47.5" r="47.5"/><path class="cls-2" d="M80.1,52.82a13.85,13.85,0,0,1-.62,2A6.87,6.87,0,0,1,72.87,59c-6.14,0-12.29,0-18.43,0a1.92,1.92,0,0,0-1.06.35c-2,1.5-4.06,3-6.08,4.55a1.76,1.76,0,0,1-1.82.33,1.56,1.56,0,0,1-1-1.34,3.39,3.39,0,0,1,0-.45q0-16,0-31.95a7,7,0,0,1,4.82-6.8c.44-.15.89-.24,1.33-.36H74a2.44,2.44,0,0,0,.24.1,6.74,6.74,0,0,1,5,3.5,18.09,18.09,0,0,1,.94,2.65ZM47.79,59.34c1.43-1.08,2.77-2.05,4.08-3.07a3,3,0,0,1,2-.65q9.49,0,19,0a3.69,3.69,0,0,0,3.92-3.87q0-10.6,0-21.22a3.69,3.69,0,0,0-3.83-3.86q-10.64,0-21.28,0a4.13,4.13,0,0,0-1.77.4,3.63,3.63,0,0,0-2.08,3.59q0,14,0,28Z"/><path class="cls-2" d="M39,66.09c.45.34.91.65,1.33,1a10.64,10.64,0,0,1,3.85,8.39c0,1,0,2.08,0,3.13a1.71,1.71,0,0,1-1.94,1.91q-8.72,0-17.43,0a1.71,1.71,0,0,1-1.94-1.91c0-1.47,0-3,.1-4.41a10.19,10.19,0,0,1,4.45-7.65c.17-.13.34-.24.51-.35l.1-.14a8.81,8.81,0,0,1-3.31-7.86,8.52,8.52,0,0,1,3.2-5.94A8.86,8.86,0,1,1,39,66.09Zm1.77,11.07c0-.92.06-1.79,0-2.65a7.28,7.28,0,0,0-8.42-6.44c-3.79.67-6.75,4-6.05,9.09ZM33.61,64.61A5.5,5.5,0,1,0,28,59.23,5.56,5.56,0,0,0,33.61,64.61Z"/><path class="cls-2" d="M60.58,42.93c0-.26,0-.52,0-.78a1.68,1.68,0,0,1,1.65-1.76c1.92-.24,3-1.46,2.8-3.18A2.79,2.79,0,0,0,59.52,37c0,.22-.06.45-.09.67a1.63,1.63,0,0,1-1.75,1.56,1.66,1.66,0,0,1-1.59-1.75,6.16,6.16,0,0,1,12.31-.24,6.12,6.12,0,0,1-3.89,6.05.77.77,0,0,0-.62.76,1.61,1.61,0,0,1-1.6,1.49,1.65,1.65,0,0,1-1.66-1.38c-.06-.4-.05-.81-.07-1.22Z"/><path class="cls-2" d="M63.92,49.21a1.67,1.67,0,1,1-1.68-1.64A1.64,1.64,0,0,1,63.92,49.21Z"/></g></g></svg>