<svg xmlns="http://www.w3.org/2000/svg" viewBox="0 0 145.94 145.94"><defs><style>.cls-1{fill:#f8ad1c;}.cls-2{fill:#fff;}</style></defs><g id="Layer_2" data-name="Layer 2"><g id="Layer_1-2" data-name="Layer 1"><circle class="cls-1" cx="72.97" cy="72.97" r="72.97"/><path class="cls-2" d="M93.61,118.12l-1.2-4.87L88,115.81l-1.18-1.18c-2.15-2.15-4.28-4.29-6.39-6.45a1.24,1.24,0,0,1,0-.3c.48-.87,1-1.72,1.53-2.63l.87-1.46-4.81-1.28V91.63l4.8-1.29L80.32,86l.1-.08c.29-.25.58-.5.86-.77,2.18-2.17,4.35-4.33,6.51-6.52.09-.1.22-.22.3-.22a.66.66,0,0,1,.29.13c.77.5,1.56,1,2.39,1.44l1.6.93,1.27-4.8h10.9l1.26,4.81,1.56-.92c.81-.46,1.56-.9,2.31-1.38a1,1,0,0,1,.42-.18s.15,0,.4.26c1.87,1.92,3.77,3.81,5.68,5.71L117.82,86l-2.56,4.36,4.88,1.2v11l-4.88,1.14,2.43,4.17-7.77,7.78-4.15-2.43-.17.59-1,4.29Zm5.53-2.18c.78,0,1.55,0,2.32,0h.15a1.42,1.42,0,0,0,1.61-1.43c.18-1.94,1-2.92,2.6-3.19l.1,0,.1-.06h.45a.66.66,0,0,1,.23,0c.41.21.8.45,1.2.68s.75.45,1.13.65a1.33,1.33,0,0,0,.58.13,1.08,1.08,0,0,0,.73-.24c1.18-1.14,2.34-2.31,3.53-3.49l1.25-1.25-.64-1.06c-.4-.67-.79-1.32-1.14-2a.86.86,0,0,1-.11-.53c.88-2.37.88-2.37,3.32-3l.35-.07a1.2,1.2,0,0,0,1.1-1.34c0-1.71,0-3.5,0-5.47A1.18,1.18,0,0,0,116.9,93a22.49,22.49,0,0,1-2.29-.58.9.9,0,0,1-.48-.31c-1.1-2.22-1.1-2.22.17-4.36l.1-.18a.63.63,0,0,1,.1-.17,1.23,1.23,0,0,0-.2-1.87c-1.2-1.15-2.36-2.27-3.46-3.47a1.8,1.8,0,0,0-1.28-.73,1.64,1.64,0,0,0-1,.46,3.47,3.47,0,0,1-2.29,1,3.25,3.25,0,0,1-1.86-.66,1.67,1.67,0,0,1-.62-.66,12.71,12.71,0,0,1-.37-1.32c-.1-.39-.19-.78-.32-1.16a1.27,1.27,0,0,0-1-.85c-1.18,0-2.35,0-3.54,0H95.36l-.09.33-.12.37a3.83,3.83,0,0,0-.21.84c-.15,1.79-1,2.76-2.51,3.06l-.08,0-.09,0-.55,0a.88.88,0,0,1-.33,0c-.64-.32-1.26-.7-1.85-1.06l-1-.61-5.37,5.36.17.3a1.74,1.74,0,0,1,.1.19,2.85,2.85,0,0,0,.38.63c1.25,1.47,1.37,2.82.36,4.26-.29.43-.48.54-.57.56-.7.23-1.41.4-2.16.59l-1.22.3v7.53l1.24.32c.76.19,1.49.37,2.21.59a.71.71,0,0,1,.4.28c1.09,2.21,1.09,2.21-.19,4.38l-.1.18a2.26,2.26,0,0,1-.16.26,1.1,1.1,0,0,0,.16,1.64c1.42,1.38,2.68,2.65,3.86,3.87a1.32,1.32,0,0,0,.94.49h0a1.35,1.35,0,0,0,.75-.27,23,23,0,0,1,2.19-1.3.77.77,0,0,1,.34-.08H92c2.33.86,2.33.86,3,3.26l0,.17a1.89,1.89,0,0,1,0,.23,1.17,1.17,0,0,0,1.3,1.11Z"/><path class="cls-2" d="M25.8,118.12v-39H55.59v39ZM28,115.91H53.4V81.33H28Z"/><path class="cls-2" d="M55,71.93c0-.76,0-1.52,0-2.27a60,60,0,0,1,.08-6,6.82,6.82,0,0,1,4.78-6c1.36-.53,2.74-1,4.11-1.55l2.31-.87a1.53,1.53,0,0,0,1-1A1.73,1.73,0,0,0,67,52.68c-.39-.54-.76-1.09-1.13-1.64s-.69-1-1.06-1.55a2.05,2.05,0,0,0-1-.74,5.54,5.54,0,0,1-4.15-5.49c0-.64,0-1.29,0-1.93a44.42,44.42,0,0,1,.28-6.73c.89-6.08,6.64-10.84,13.08-10.84s12.2,4.77,13,10.83a47.4,47.4,0,0,1,.17,9.64c-.17,2.65-2.24,3.91-4,4.51a2.69,2.69,0,0,0-1.18,1c-.3.41-.58.84-.86,1.27s-.69,1-1.07,1.53a1.81,1.81,0,0,0-.46,1.64,1.58,1.58,0,0,0,1.07,1l2.33.88L86,57.58a7.25,7.25,0,0,1,5,7.22c0,1.87,0,3.74,0,5.6v1.53Zm7.63-13.09-.94.37a21.11,21.11,0,0,0-2,.89,4,4,0,0,0-2.31,3.09c-.12,1.45-.09,2.92-.07,4.34,0,.6,0,1.21,0,1.82v.46H88.8V68c0-1,0-2,0-2.93.06-3.32-1.8-5.3-5.68-6l-.4-.07-3,8.93-1.3-.65c-1.56-.77-3.07-1.52-4.57-2.29a1.88,1.88,0,0,0-.89-.25,1.85,1.85,0,0,0-.89.25c-1.51.78-3,1.53-4.6,2.3l-1.29.65-3.08-9.2Zm2.5-.89,2.3,6.86,4-2L67.89,56.9Zm9.33,4.87,4,2,2.28-6.85-2.72-1ZM73,61.16l3.75-6.27H69.21Zm-.08-23.78a.86.86,0,0,0-.49.14,12.47,12.47,0,0,1-5.64,2.16l-.39.06v2.37c0,1.45,0,2.88,0,4.31A6.62,6.62,0,0,0,72.64,53H73a6.49,6.49,0,0,0,6.51-5.81,43.82,43.82,0,0,0,.07-4.86c0-.72,0-1.45,0-2.19v-.4l-.4-.05a12.12,12.12,0,0,1-5.48-2A1.38,1.38,0,0,0,72.89,37.38Zm8.94,9.32.73-.53A3.7,3.7,0,0,0,84.17,43a3.12,3.12,0,0,0-1.66-2.56l-.68-.38ZM63.4,40.4a3.45,3.45,0,0,0-1.63,2.93,3.34,3.34,0,0,0,1.64,2.81l.71.44V39.93Zm9.53-14.54a11.21,11.21,0,0,0-6.29,2.06,10.85,10.85,0,0,0-4.89,9.8v.53l.52-.09c.4-.06.79-.14,1.18-.22a17.1,17.1,0,0,1,2.38-.35,9.45,9.45,0,0,0,6.29-2.7A8.48,8.48,0,0,0,72.9,34l.09-.11A.43.43,0,0,1,73,34a9.6,9.6,0,0,0,.66.81A9.29,9.29,0,0,0,79,37.48c1.07.16,2.14.29,3.23.42l2,.25v-.52c0-4.53-1.84-7.93-5.52-10.09A11.24,11.24,0,0,0,72.93,25.86Z"/><path class="cls-2" d="M39.61,75V48.46c0-3.05,1.68-4.73,4.73-4.74l6,0a.69.69,0,0,0,.36-.12l.48-.32-.35-.44-3-2.87,1.63-1.48,6.29,6.38L49.36,51.2,48,49.79l3.24-3-.3-.84H44.14c-1.64,0-2.34.72-2.34,2.38V75Z"/><path class="cls-2" d="M94.23,65.78l1.45-1.42,3.71,3.88.11-1.49c0-.26,0-.46,0-.66q0-8.78,0-17.57c0-2-.62-2.61-2.58-2.62H90.39V43.72h5.7c.46,0,.92,0,1.37,0a4.16,4.16,0,0,1,4.25,4.38c0,4.3,0,8.59,0,12.89v7.36l3.69-4.06,1.47,1.62-6.27,6.24Z"/><polygon class="cls-2" points="57.85 97.06 64.23 90.68 65.61 92.04 62.35 95.14 62.84 95.95 73.96 95.95 73.96 98.16 61.75 98.16 65.77 101.96 64.27 103.48 57.85 97.06"/><path class="cls-2" d="M99.08,108.89A11.84,11.84,0,0,1,99,85.22h.1a11.84,11.84,0,0,1,0,23.67Zm0-21.49a9.67,9.67,0,0,0-6.86,16.49,9.57,9.57,0,0,0,6.81,2.86,9.68,9.68,0,0,0,.11-19.35Z"/><rect class="cls-2" x="32.01" y="85.28" width="17.39" height="2.07"/><rect class="cls-2" x="31.99" y="97.59" width="17.42" height="2.05"/><rect class="cls-2" x="31.99" y="103.74" width="17.42" height="2.04"/><rect class="cls-2" x="38.15" y="91.42" width="11.26" height="2.05"/><rect class="cls-2" x="31.99" y="109.89" width="11.26" height="2.04"/><rect class="cls-2" x="31.97" y="91.43" width="2.07" height="2.07"/><rect class="cls-2" x="47.4" y="109.87" width="2.02" height="2.05"/><path class="cls-2" d="M99,102.73a5.69,5.69,0,0,1-5.63-5.66,5.68,5.68,0,1,1,5.69,5.66Zm.06-9.18A3.48,3.48,0,0,0,95.57,97a3.54,3.54,0,0,0,3.49,3.56h0a3.59,3.59,0,0,0,3.56-3.51,3.52,3.52,0,0,0-3.5-3.54Z"/></g></g></svg>