<svg xmlns="http://www.w3.org/2000/svg" viewBox="0 0 145.94 145.94"><defs><style>.cls-1{fill:#f8ad1c;}.cls-2{fill:#fff;}</style></defs><g id="Layer_2" data-name="Layer 2"><g id="Layer_1-2" data-name="Layer 1"><circle class="cls-1" cx="72.97" cy="72.97" r="72.97"/><path class="cls-2" d="M37.41,109.61a2,2,0,0,1-1.09-.56l-1.17-.92c-1.79-1.43-3.58-2.85-5.35-4.3a4.39,4.39,0,0,1-.67-.78l-.19-.24.24-.43a8.76,8.76,0,0,1,.75-1.2q5.94-7.34,11.89-14.65l3.58-4.4.42-.53.55-.71L45,79.9l-1.88-1.37c-.49-.36-.75-.67-.79-.94a1.75,1.75,0,0,1,.5-1.11l2.64-3.31,1.24-1.56-.18-.3A27.77,27.77,0,0,1,69.77,28.89,28.78,28.78,0,0,1,77.46,30,27.57,27.57,0,0,1,94.83,44.29l.33.63,2-2.16a1.08,1.08,0,0,1,.83-.43,1.12,1.12,0,0,1,.43.08c.78.26,1.55.52,2.33.76a1.34,1.34,0,0,1,1.07,1.38c0,.18,0,.37,0,.55s0,.33,0,.49c0,.82.48,1.3,1.19,1.3a2,2,0,0,0,.47-.06.59.59,0,0,0,.26-.06,2.61,2.61,0,0,1,1-.26c.72,0,1.33.45,1.92,1.43.23.38.47.76.74,1.13a1.35,1.35,0,0,1,0,1.69c-.65,1.06-1,1.56-.77,2.11s.82.82,1.87,1.24a1.25,1.25,0,0,1,.91,1.39,22.24,22.24,0,0,0,0,2.31,1.25,1.25,0,0,1-.88,1.39c-1.06.42-1.71.7-1.9,1.26s.12,1,.62,1.86l.18.3a1.26,1.26,0,0,1,0,1.55c-.49.68-1,1.36-1.46,2a1.18,1.18,0,0,1-1,.59,1.65,1.65,0,0,1-.43-.06l-.44-.11a6.94,6.94,0,0,0-1.26-.22c-1,0-1.06.87-1.11,2s-.42,1.63-1.3,1.84a1,1,0,0,0-.25.09A9.12,9.12,0,0,1,98,71c-.43,0-.63-.22-1.29-1-.15-.18-.33-.37-.53-.59l-.23-.29-.62-.8s-.77,1.29-1,1.61c-.37.65-.73,1.27-1.12,1.86a27.19,27.19,0,0,1-19,12.26,24.14,24.14,0,0,1-3.9.31,25.7,25.7,0,0,1-4.08-.33l-.37,0a1.46,1.46,0,0,0-1.22.64c-1.11,1.43-2.24,2.83-3.38,4.24l-.57.71c-.49.61-.79.69-1,.69a1.85,1.85,0,0,1-.94-.41l-1.84-1.33-1.22-.89-2,2.46-15.2,18.71C37.91,109.53,37.61,109.61,37.41,109.61Zm-6.09-7,5.9,4.71L54.09,86.51,48,82.06Zm13.39-25.3L59.47,88l3.61-4.52-.71-.21A28,28,0,0,1,48.3,73.78l-.4-.49ZM70,30.92a25.74,25.74,0,1,0,25.8,25.71A25.84,25.84,0,0,0,70,30.92ZM98.78,44.6a1.63,1.63,0,0,0-1,.38,4.82,4.82,0,0,0-.59.61,3.84,3.84,0,0,1-.44.46,1.68,1.68,0,0,0-.45,2,25.61,25.61,0,0,1,1.38,7.17,27.75,27.75,0,0,1-1.37,10.1,1.65,1.65,0,0,0,.06,1.43,11.18,11.18,0,0,0,1.92,1.91.92.92,0,0,0,.5.15,1.14,1.14,0,0,0,.82-.37,1.18,1.18,0,0,0,.32-.91,1.63,1.63,0,0,1,0-.31v-.12a2.86,2.86,0,0,1,2.87-2.69,3.79,3.79,0,0,1,.81.09l.13,0a2.79,2.79,0,0,0,.6.09,1,1,0,0,0,1-.74,2,2,0,0,0-.17-1.45,3.31,3.31,0,0,1-.37-2.66A3.15,3.15,0,0,1,106.65,58a1.34,1.34,0,0,0,1-1.3,1.25,1.25,0,0,0-.77-1.19l-.16-.09-.42-.25a2.79,2.79,0,0,1-1-.78c-.84-1.52-.83-2.64,0-3.63a2,2,0,0,0,.25-.43l.09-.18,0-.27c-.28-1-.88-1.16-1.33-1.16a2,2,0,0,0-.75.16,1.9,1.9,0,0,1-.68.13,2.77,2.77,0,0,1-1.53-.58,2.86,2.86,0,0,1-1.39-2.56,1.48,1.48,0,0,0-.83-1.16A.72.72,0,0,0,98.78,44.6Z"/><path class="cls-2" d="M104,117.05l-.4-.4c-.42-.41-.84-.83-1.24-1.27a1.65,1.65,0,0,0-1.13-.62,1.58,1.58,0,0,0-1.09.59c-.4.43-.8.84-1.2,1.26l-.42.44h-.74l-.71-.26c-.6-.23-1.2-.45-1.82-.64a1.47,1.47,0,0,1-1.18-1.56c0-1.12-.07-1.85-.5-2.28a1.28,1.28,0,0,0-1-.35,6.93,6.93,0,0,0-1.72.34,2.28,2.28,0,0,1-.54.08,1.26,1.26,0,0,1-1.09-.65c-.34-.49-.68-1-1-1.46l-.63-.89a1.11,1.11,0,0,1,0-1.33l.22-.38.53-.91a1.71,1.71,0,0,0,.23-1.36,1.64,1.64,0,0,0-1-.94l-.66-.29-.77-.34a1.06,1.06,0,0,1-.68-1.06v-.9c0-.72,0-1.43,0-2.15a1.14,1.14,0,0,1,.77-1.16l.5-.22,1-.46a1.39,1.39,0,0,0,.66-2,15.38,15.38,0,0,0-.78-1.38l-.06-.1a1.14,1.14,0,0,1,0-1.39l.52-.73,1.24-1.74a1.07,1.07,0,0,1,.92-.53,1.38,1.38,0,0,1,.43.07c.31.09.63.15.94.22l.53.11a1.86,1.86,0,0,0,.45.06A1.31,1.31,0,0,0,94,89.21c0-.25,0-.49,0-.74a3.5,3.5,0,0,1,.13-1,1.85,1.85,0,0,1,.73-1,12.52,12.52,0,0,1,3-1H98a2.5,2.5,0,0,1,1.15.43,2.52,2.52,0,0,1,.59.62,5,5,0,0,0,.34.43,1.63,1.63,0,0,0,1.17.7,1.68,1.68,0,0,0,1.2-.72.92.92,0,0,0,.17-.21,2.14,2.14,0,0,1,1.9-1.29,3.66,3.66,0,0,1,1.45.36,2,2,0,0,0,.43.15,2.36,2.36,0,0,1,2.12,2.75,2,2,0,0,0,.38,1.43,1.16,1.16,0,0,0,.89.33,4.06,4.06,0,0,0,.85-.12l.29-.06c.29-.06.57-.12.85-.2a1.64,1.64,0,0,1,.42-.06,1,1,0,0,1,.87.49c.62.84,1.22,1.68,1.82,2.53a1.05,1.05,0,0,1,0,1.31c-.18.3-.36.62-.54.93l-.16.29a1.8,1.8,0,0,0-.31,1.44A1.94,1.94,0,0,0,115,98l.32.14c.27.12.54.25.82.36a1.2,1.2,0,0,1,.82,1.28v2.79a1.21,1.21,0,0,1-.83,1.29c-.29.11-.58.24-.86.37l-.5.23a1.55,1.55,0,0,0-.88.84,1.61,1.61,0,0,0,.13,1.25,1.55,1.55,0,0,0,.25.41c1,1.17,1,2.28-.18,3.58a2.94,2.94,0,0,0-.38.51,2,2,0,0,1-1.84,1.25,3.75,3.75,0,0,1-1.15-.21,3,3,0,0,0-1-.2c-1.13,0-1.24,1.14-1.29,1.75,0,.13,0,.27,0,.41a6.36,6.36,0,0,0-.08.75,1.17,1.17,0,0,1-.92,1.2l-2.86,1Zm-2.53-4.28A2.41,2.41,0,0,1,103.8,114a1.4,1.4,0,0,0,1.18.79,1.47,1.47,0,0,0,.56-.11,1.51,1.51,0,0,0,1-1.4s.06-.41.08-.56a2.9,2.9,0,0,1,.41-1.39,3.6,3.6,0,0,1,2.61-1.53,2.79,2.79,0,0,1,1.09.24,1.54,1.54,0,0,0,.63.14,1.21,1.21,0,0,0,1-.6,1.46,1.46,0,0,0,.12-1.79l-.18-.29a2.81,2.81,0,0,1-.59-1.33c.2-1.75.47-3,2.08-3.44a1.59,1.59,0,0,0,.28-3l-.49-.27a3.14,3.14,0,0,1-1.19-.89c-.92-1.69-.92-2.87,0-3.94a1.39,1.39,0,0,0,0-1.84,1.17,1.17,0,0,0-1-.59,3.2,3.2,0,0,0-.51.06l-.51.11a4.66,4.66,0,0,1-1,.16.67.67,0,0,1-.32-.06c-1.73-.81-2.65-1.55-2.52-3.13a1.44,1.44,0,0,0-1-1.65,1.5,1.5,0,0,0-.53-.1,1.44,1.44,0,0,0-1.07.57l-.14.14a5.33,5.33,0,0,0-.4.42c-.3.32-.64.68-.9.73a8.32,8.32,0,0,1-1.53.18,2.43,2.43,0,0,1-2.32-1.29,1.35,1.35,0,0,0-1.16-.76,1.61,1.61,0,0,0-.51.09,1.4,1.4,0,0,0-1.06,1.46,2.86,2.86,0,0,1-1.12,2.54,3.57,3.57,0,0,1-2.07.84,2.7,2.7,0,0,1-1-.19,2,2,0,0,0-.39-.1l-.57-.12-.2.19-.1.1a1.69,1.69,0,0,0-.55.64,1.82,1.82,0,0,0-.1,1.27,7,7,0,0,0,.42.92,2.53,2.53,0,0,1,.42,1.16c-.17,1.7-.59,2.91-2.14,3.28a1.37,1.37,0,0,0-1.13,1.48,1.53,1.53,0,0,0,1,1.55l.2.08a3.09,3.09,0,0,1,1.32.86c.83,1.52,1.16,2.78.1,4a1.42,1.42,0,0,0,0,1.93,1.23,1.23,0,0,0,1,.56,2.49,2.49,0,0,0,.46-.05l.13,0,.47-.08a4.9,4.9,0,0,1,1-.13,1,1,0,0,1,.39.06c1.59.75,2.55,1.53,2.45,3.1A1.44,1.44,0,0,0,97,114.75a1.39,1.39,0,0,0,.44.07,1.31,1.31,0,0,0,1-.58,1.53,1.53,0,0,1,.18-.18c.16-.14.32-.31.48-.47s.6-.63.85-.67A9.75,9.75,0,0,1,101.48,112.77Z"/><path class="cls-2" d="M70,78.41a21.71,21.71,0,0,1-15.45-6.49,21.41,21.41,0,0,1-6.29-15.29A21.75,21.75,0,0,1,85.48,41.34a21.57,21.57,0,0,1,6.33,15.39A21.8,21.8,0,0,1,70.08,78.41Zm0-41.55a19.8,19.8,0,0,0-15.33,7.23,20,20,0,0,0-1.07,23.7,20.24,20.24,0,0,0,16.4,8.72,17,17,0,0,0,5.49-.89l.86-.29-.69-.58c-1.46-1.23-1.46-1.23-.88-3a.8.8,0,0,0,.1-.48,1.9,1.9,0,0,1,0-.25,1.43,1.43,0,0,0-.36-1,1.85,1.85,0,0,0-1.17-.36h-.25a3.53,3.53,0,0,0-.94.27L71.8,70a2.05,2.05,0,0,1-.51.08,1,1,0,0,1-.94-.59l-.57-.89a21,21,0,0,1-1.14-1.88c-.15-.31-.3-.57-.43-.81-.7-1.26-.79-1.42,1-2.93a1.62,1.62,0,0,0,.47-1.46,1.75,1.75,0,0,0-1-1,4.31,4.31,0,0,0-1-.25c-.16,0-.32-.05-.47-.09-.8-.21-1-.43-1-1.24,0-1,0-2.07,0-3.11V55c0-1.66,0-1.8,2.31-2.21a1.57,1.57,0,0,0,1.11-1,1.74,1.74,0,0,0-.39-1.38,6.2,6.2,0,0,0-.78-.76c-.13-.12-.27-.23-.4-.36a.91.91,0,0,1-.25-1.21c.93-1.65,1.77-3.09,2.58-4.4a.89.89,0,0,1,.78-.47,1.53,1.53,0,0,1,.45.08l.34.12c.42.14.84.28,1.26.4a1.27,1.27,0,0,0,.34,0,1.48,1.48,0,0,0,1.11-.55A1.36,1.36,0,0,0,75,42.16c-.07-.3-.17-.58-.26-.87L74.64,41c-.38-1.18-.34-1.31.64-2,.09-.07.19-.14.29-.23l.84-.69-.86-.3A16.89,16.89,0,0,0,70.06,36.86Zm3.83,30.51A3.09,3.09,0,0,1,76,68.47a2.82,2.82,0,0,1,.59,3.93l-.23.43.9.53c.38.22.72.42,1.08.6a1.62,1.62,0,0,0,.69.16,1,1,0,0,0,.47-.11,18,18,0,0,0,5.16-4.1l.5-.57-.71-.24c-5.92-2.07-9.08-6-9.37-11.66-.34-6.37,2.87-10.85,9.52-13.31l.84-.31-.69-.56-1.2-1c-.87-.72-1.68-1.4-2.55-2s-1.36-1-2-1a3.85,3.85,0,0,0-1.93.86,1,1,0,0,0-.22.17l-.34.3.26.8c.11.36.22.71.36,1a1.33,1.33,0,0,1-.46,1.68c-.47.41-.91.87-1.33,1.31l-.3.32a1.11,1.11,0,0,1-.83.38,1.64,1.64,0,0,1-.42-.06l-.49-.15a4.13,4.13,0,0,0-1.21-.27,1.29,1.29,0,0,0-.57.12,2.55,2.55,0,0,0-1,1.37c-.09.19-.17.38-.27.55a.9.9,0,0,0-.11.28l-.11.31.22.32.41.38.93.84A1.11,1.11,0,0,1,72,51.11c-.26.8-.45,1.61-.64,2.39a1.2,1.2,0,0,1-.95,1c-2,.55-2.19.77-2.16,2.88a4.81,4.81,0,0,0,0,.49l.06.77.66,0c1.46,0,2.18.65,2.75,2.48s-.08,2.65-1.52,3.67l-.38.27,1.87,3.15.43-.24A3.69,3.69,0,0,1,73.89,67.37ZM86,46a2.12,2.12,0,0,0-.42,0,10.88,10.88,0,0,0,0,21.27,2.48,2.48,0,0,0,.45,0,1.34,1.34,0,0,0,1.19-.8,19.6,19.6,0,0,0,0-19.75A1.35,1.35,0,0,0,86,46Z"/><path class="cls-2" d="M101.24,108.14a6.91,6.91,0,0,1,0-13.81,7,7,0,0,1,7,6.88,7,7,0,0,1-6.9,6.93Zm0-11.86a4.9,4.9,0,0,0-4.91,4.94,5,5,0,0,0,4.92,5h0a5,5,0,1,0,0-9.9h0Z"/></g></g></svg>