<svg xmlns="http://www.w3.org/2000/svg" viewBox="0 0 145.94 145.94"><defs><style>.cls-1{fill:#f8ad1c;}.cls-2{fill:#fff;}</style></defs><g id="Layer_2" data-name="Layer 2"><g id="Layer_1-2" data-name="Layer 1"><circle class="cls-1" cx="72.97" cy="72.97" r="72.97"/><path class="cls-2" d="M38.55,120.74l-.71-.24a8.18,8.18,0,0,1-1.56-.61,5.67,5.67,0,0,1-2.79-3.51,6.05,6.05,0,0,1,.71-4.7l9.15-15.25,8.53-14.22L51.79,82a1.5,1.5,0,0,0-1.46-1.14,2.49,2.49,0,0,0-.79.14c-1.46.46-2.93.87-4.69,1.35a3.12,3.12,0,0,1-.78.11,2.12,2.12,0,0,1-1.86-1.13c-.56-.86-1.07-1.75-1.54-2.64a2.09,2.09,0,0,1,.42-2.72c1.07-1.08,2.27-2.23,3.66-3.52a1.51,1.51,0,0,0,.47-1.81,17.26,17.26,0,0,1-.69-2.55,1.46,1.46,0,0,0-1.24-1.28c-1.42-.32-2.83-.67-4.24-1l-.42-.11A2.35,2.35,0,0,1,36.54,63q0-1.45,0-2.91a2.2,2.2,0,0,1,1.77-2.31c1.67-.45,3.32-.86,4.91-1.22a1.52,1.52,0,0,0,1.32-1.32c.09-.47.22-.93.35-1.38s.26-.89.35-1.35a1.77,1.77,0,0,0-.4-1.44c-.74-.75-1.51-1.49-2.27-2.22l-1.32-1.27a2.22,2.22,0,0,1-.44-3.16c.42-.77.86-1.52,1.32-2.26a2.2,2.2,0,0,1,1.94-1.26,3.47,3.47,0,0,1,.9.14c.64.17,1.27.36,1.91.54,1,.29,1.93.57,2.91.81a1,1,0,0,0,.31,0A2.4,2.4,0,0,0,51.35,42a4.07,4.07,0,0,0,.63-.61A1.91,1.91,0,0,1,52.4,41c1.94-1.25,1.54-2.89,1.08-4a19.52,19.52,0,0,1-.78-2.53c-.07-.28-.14-.56-.22-.84a2.26,2.26,0,0,1,1.13-2.84c.71-.43,1.55-.93,2.42-1.4A2.7,2.7,0,0,1,57.29,29a2.32,2.32,0,0,1,1.63.78c1.2,1.2,2.39,2.43,3.52,3.64a1.55,1.55,0,0,0,1.12.56,1.79,1.79,0,0,0,.62-.12,8.64,8.64,0,0,1,1.95-.54,2.23,2.23,0,0,0,2.13-2.09c.18-1,.45-2.06.72-3.06l.24-.94a2.39,2.39,0,0,1,2.58-2h2.45a2.35,2.35,0,0,1,2.57,2l0,.16c.38,1.47.75,2.93,1.1,4.41a1.56,1.56,0,0,0,1.39,1.37,15.39,15.39,0,0,1,2.54.69,1.91,1.91,0,0,0,.6.11,1.51,1.51,0,0,0,1.12-.56c1.12-1.19,2.25-2.35,3.4-3.51a2.45,2.45,0,0,1,1.73-.9,3,3,0,0,1,1.45.45c.76.41,1.52.84,2.26,1.3a2.28,2.28,0,0,1,1.13,2.85c-.51,1.87-.92,3.29-1.34,4.59a1.67,1.67,0,0,0,.54,2,16.79,16.79,0,0,1,1.74,1.74,1.55,1.55,0,0,0,1.23.62,2.15,2.15,0,0,0,.66-.12c1.22-.38,2.45-.73,3.68-1.07l.83-.23A4.14,4.14,0,0,1,102,41c.85,0,1.44.41,2,1.41.44.72.87,1.44,1.27,2.18a2.24,2.24,0,0,1-.45,3c-1.33,1.31-2.51,2.43-3.61,3.44a1.48,1.48,0,0,0-.43,1.72c.13.41.24.83.35,1.25s.25,1,.42,1.48a1.79,1.79,0,0,0,1.06,1.06c1.07.29,2.15.56,3.23.82l1.44.35a2.41,2.41,0,0,1,2.18,2.75c0,.94,0,1.87,0,2.81a2.24,2.24,0,0,1-1.92,2.37c-1.58.41-3.16.79-4.75,1.16a1.55,1.55,0,0,0-1.32,1.34,14.94,14.94,0,0,1-.66,2.45,1.6,1.6,0,0,0,.51,1.89c1,.93,2,1.92,3,2.88l.37.36a2.31,2.31,0,0,1,.46,3.32c-.48.85-.88,1.55-1.32,2.25A2.14,2.14,0,0,1,102,82.42a3.41,3.41,0,0,1-.85-.12l-.48-.13c-1.38-.38-2.82-.77-4.19-1.22a2.34,2.34,0,0,0-.74-.14,1.69,1.69,0,0,0-1.49,1.06l-.13.27,5.15,8.63q1.83,3.08,3.65,6.15c2.78,4.71,5.66,9.59,8.63,14.31a6.44,6.44,0,0,1,.59,6.07,5.69,5.69,0,0,1-4.17,3.33.62.62,0,0,0-.26.11ZM104,118.63h2.75a3.81,3.81,0,0,0,3.76-2.81,4.25,4.25,0,0,0-.7-3.36q-6-10-12-20L90.53,80.28Q83.59,68.66,76.6,57.05A5.5,5.5,0,0,0,74.35,55a3.25,3.25,0,0,0-1.41-.32A4.14,4.14,0,0,0,69.49,57L41.37,103.86q-2.65,4.4-5.28,8.81a3.9,3.9,0,0,0-.26,3.89,4,4,0,0,0,3.37,2l.66,0h32.6l.56,0H104ZM43.08,45.87c.35.39.71.79,1.06,1.2.8.91,1.63,1.86,2.5,2.74a2.68,2.68,0,0,1,.77,3,28.1,28.1,0,0,0-.91,3.43,2.57,2.57,0,0,1-2.16,2.22c-1.23.28-2.45.59-3.69.91l-2,.51V61c0,.45,0,.89,0,1.34a1.25,1.25,0,0,0,1.14,1.44c1.13.25,2.26.54,3.38.82l1.36.35a2.39,2.39,0,0,1,1.93,2,31.14,31.14,0,0,0,.93,3.42,2.79,2.79,0,0,1-.79,3.26c-.89.87-1.71,1.81-2.51,2.72-.35.4-.71.8-1.07,1.19l-.15.17v.23a2,2,0,0,0,.29.78,3.13,3.13,0,0,1,.22.45,1.35,1.35,0,0,0,1.29,1h0A2.45,2.45,0,0,0,45.4,80c.66-.22,1.33-.41,2-.6s1.26-.35,1.88-.55a4.57,4.57,0,0,1,1.42-.26,2.46,2.46,0,0,1,1.95.94l.5.57,1.18-2c.6-1,1.16-2,1.77-2.9A1.81,1.81,0,0,0,56,72.94a19.64,19.64,0,0,1-3.2-14.26A20.14,20.14,0,0,1,73.06,41.32c.65,0,1.3,0,2,.08A20.37,20.37,0,0,1,93.38,61,20.69,20.69,0,0,1,89.89,73.1c-.1.15-.58.92-.27,1.47C90.31,75.8,91,77,91.79,78.26l1.09,1.83.5-.57a2.51,2.51,0,0,1,2-.94,4.7,4.7,0,0,1,1.57.32c.63.22,1.27.4,1.9.56l.76.21a6.8,6.8,0,0,0,1.7.36c1,0,1.31-.65,2-2a.8.8,0,0,0,.09-.37l0-1.38-.8.75-.7-.79c-.84-1-1.71-1.92-2.61-2.85a2.61,2.61,0,0,1-.69-2.82c.35-1.15.67-2.35,1-3.68a2.41,2.41,0,0,1,1.93-2l3.3-.81.27-.07c2.17-.54,2.34-.76,2.32-3a1.33,1.33,0,0,0-1.13-1.5c-1.37-.3-2.73-.64-4.1-1l-.65-.16a2.45,2.45,0,0,1-1.94-2c-.26-1.11-.57-2.31-1-3.76A2.4,2.4,0,0,1,99.22,50l2.93-2.82c1.3-1.25,1.34-1.53.5-3.06l-.06-.1a1.37,1.37,0,0,0-1.19-.81,2.15,2.15,0,0,0-.65.11c-.94.3-1.89.57-2.85.84l-1.76.5a3,3,0,0,1-.81.13,2.51,2.51,0,0,1-1.87-.92l-.21-.22A27.62,27.62,0,0,0,91,41.39,2.7,2.7,0,0,1,90,38.2c.37-1.16.7-2.34,1-3.52l.56-2-2.53-1.47L87.51,32.7c-1,.9-1.92,1.75-2.82,2.65a2.63,2.63,0,0,1-1.9.88,3.32,3.32,0,0,1-1-.17,24.74,24.74,0,0,0-3.35-.9A2.75,2.75,0,0,1,76,32.7c-.25-1.16-.56-2.32-.85-3.45-.13-.5-.49-1.94-.49-1.94H72.79a1.49,1.49,0,0,0-1.73,1.3c-.19.92-.43,1.86-.66,2.77-.14.53-.28,1.06-.41,1.6a2.53,2.53,0,0,1-2.15,2.12A25.54,25.54,0,0,0,64.5,36a3.53,3.53,0,0,1-1.18.22,3,3,0,0,1-2.17-1.06c-.84-.88-1.73-1.66-2.67-2.5l-1.25-1.11-.29-.27-2.5,1.44L55,34.79c.36,1.25.7,2.47,1.06,3.69a2.46,2.46,0,0,1-.81,2.75,32.8,32.8,0,0,0-2.52,2.49,2.73,2.73,0,0,1-2.09,1.08,3.46,3.46,0,0,1-1.05-.18c-1.16-.37-2.34-.7-3.54-1l-2-.57-1.37,2.37.46.49ZM73,43.42A18.16,18.16,0,0,0,57.55,71.24L58,72l9.61-16a6,6,0,0,1,10.8,0L87,70.26c.11.2.23.39.36.59l.64,1,.47-.69c4.1-6,4.05-16.25-3.13-22.94A18,18,0,0,0,73,43.42Z"/><path class="cls-2" d="M73,98.16a4.13,4.13,0,0,1-4.06-3,6.53,6.53,0,0,1-.23-1.89c0-2.22,0-4.44,0-6.67V81.26c0-2.16,0-4.33,0-6.5a4.31,4.31,0,0,1,2.86-4.22A4.38,4.38,0,0,1,73,70.3a4.3,4.3,0,0,1,4.29,4.48v3.44c0,5.17,0,10.33,0,15.5a4.26,4.26,0,0,1-3.57,4.39A4.2,4.2,0,0,1,73,98.16ZM73,72.42a2.18,2.18,0,0,0-2.11,2.3c0,.15,0,.3,0,.45v3.71q0,7.13,0,14.27A5.33,5.33,0,0,0,71,94.51a2,2,0,0,0,2,1.53h0A2,2,0,0,0,75,94.53a4.73,4.73,0,0,0,.13-1.33c0-2.33,0-4.63,0-6.93V81.53c0-2.26,0-4.51,0-6.77A2.17,2.17,0,0,0,73,72.42H73Z"/><path class="cls-2" d="M73,111.08a4.32,4.32,0,0,1-4.24-4.22A4.25,4.25,0,0,1,73,102.54a4.31,4.31,0,0,1,3.07,1.26,4.2,4.2,0,0,1,1.22,3A4.33,4.33,0,0,1,73,111.08Zm-.08-6.42a2.14,2.14,0,0,0-2,2.17A2.19,2.19,0,0,0,73,109a2.17,2.17,0,0,0,2.15-2.25,2.11,2.11,0,0,0-2.14-2h-.12Z"/></g></g></svg>