<svg xmlns="http://www.w3.org/2000/svg" viewBox="0 0 94.99 94.99"><defs><style>.cls-1{fill:#fff;}.cls-2{fill:#fbae17;stroke:#fff;stroke-miterlimit:10;}</style></defs><g id="Layer_2" data-name="Layer 2"><g id="Layer_1-2" data-name="Layer 1"><circle class="cls-1" cx="47.5" cy="47.5" r="47.5"/><path class="cls-2" d="M39.62,80.19V64.65h2.17V82.53a34.6,34.6,0,0,1-4.68-.28,5.34,5.34,0,0,1-4.17-5.13q-.06-5.93,0-11.85a21.38,21.38,0,0,1,.44-2.89h-.87c-2.75,0-5.49,0-8.23,0a7.8,7.8,0,0,0-8.1,8.14,40.5,40.5,0,0,0,.16,5.29A5.12,5.12,0,0,0,20.65,80V68h2.21V80.2h10v2.26h-.71c-3.4,0-6.79,0-10.18,0a7.8,7.8,0,0,1-8-8.07,46.82,46.82,0,0,1,.14-5.56,9.79,9.79,0,0,1,9.44-8.64c3.53-.11,7.06,0,10.59.05a1,1,0,0,0,.67-.33,9.94,9.94,0,0,1,8.44-4.22H51.6a10.06,10.06,0,0,1,8.46,4.21,1.1,1.1,0,0,0,.79.33c3.74,0,7.49-.19,11.21.07a9.72,9.72,0,0,1,8.8,9.28,39.05,39.05,0,0,1-.13,6.4,7.58,7.58,0,0,1-7.37,6.47c-3.67,0-7.34,0-11,0l-.38,0V80.26H72V68h2.21V80a5.22,5.22,0,0,0,4.33-4.23A24.19,24.19,0,0,0,78.65,72a18.07,18.07,0,0,0-.21-3.54,7.61,7.61,0,0,0-7.18-6c-3.16-.1-6.32,0-9.48,0a1.43,1.43,0,0,0-.28,0c.83,4.92.35,9.84.39,14.75a5.42,5.42,0,0,1-5.3,5.26c-1.16,0-2.32,0-3.53,0V64.65h2.15V80.13c2.65.5,4.49-1,4.49-3.59V66a7.83,7.83,0,0,0-8.09-8.09q-4.19,0-8.37,0A7.82,7.82,0,0,0,35.16,66c0,3.39.09,6.79,0,10.18C35,78.55,36.46,80.6,39.62,80.19Z"/><path class="cls-2" d="M74.23,52.3V50.19c.94-.38,1.09-.6,1.09-1.62v-6c0-1-.4-1.39-1.4-1.4-1.7,0-3.4,0-5.09,0-.47,0-.69-.09-.81-.59a20.68,20.68,0,0,0-2.52-6c-.08-.13-.15-.28-.25-.46l4-3.94c.84-.84.84-1.33,0-2.17-1.4-1.4-2.79-2.8-4.19-4.19-.76-.76-1.3-.76-2.08,0l-3.86,3.9L54,25.49c-.17-.07-.35-.12-.53-.18-1.53-.45-1.53-.45-1.53-2.08,0-1.38,0-2.75,0-4.12,0-.95-.41-1.35-1.37-1.35q-3.1,0-6.21,0c-.94,0-1.34.42-1.34,1.38,0,1.72,0,3.44,0,5.15,0,.44-.08.65-.55.77a21.16,21.16,0,0,0-6.54,2.82c-.66-.69-1.31-1.38-2-2.06s-1.43-1.46-2.17-2.16a1.13,1.13,0,0,0-1.73,0q-2.31,2.28-4.58,4.58a1.11,1.11,0,0,0,0,1.77l3.65,3.65c.16.16.31.33.49.53a22.52,22.52,0,0,0-2.85,6.63c0,.17-.4.35-.61.36-1.69,0-3.39,0-5.09,0-1.17,0-1.52.36-1.52,1.55v5.79c0,1.07.13,1.27,1.08,1.68v2.07a3.18,3.18,0,0,1-3.3-3.07q-.08-3.56,0-7.11A3.3,3.3,0,0,1,20.71,39c1.25,0,2.51,0,3.76,0a.82.82,0,0,0,.59-.31c.3-.67.5-1.39.78-2.08s.63-1.34,1-2.06c-.94-.93-1.88-1.86-2.81-2.8a3.36,3.36,0,0,1,0-5.2q2.11-2.13,4.24-4.24a3.43,3.43,0,0,1,5.28,0c.81.8,1.62,1.6,2.41,2.42a.61.61,0,0,0,.84.14c1.16-.52,2.33-1,3.52-1.48.35-.13.47-.28.46-.64,0-1.25,0-2.51,0-3.76a3.32,3.32,0,0,1,3.38-3.42q3.32,0,6.63,0A3.34,3.34,0,0,1,54.12,19c0,1.23,0,2.47,0,3.7a.62.62,0,0,0,.48.7c1.21.46,2.39,1,3.6,1.48a.81.81,0,0,0,.69-.13c.88-.82,1.72-1.7,2.58-2.54a3.4,3.4,0,0,1,5.08,0q2.23,2.2,4.43,4.44a3.31,3.31,0,0,1,0,4.95c-1,1-1.95,1.93-2.88,2.85.58,1.49,1.13,2.91,1.72,4.31.06.14.37.23.57.23,1.18,0,2.37,0,3.55,0a3.37,3.37,0,0,1,3.6,3.57c0,2.16,0,4.32,0,6.48A3.26,3.26,0,0,1,74.23,52.3Z"/><path class="cls-2" d="M63.08,45.62H60.85a13.36,13.36,0,0,0-5.2-10.51A12.9,12.9,0,0,0,47,32.27,13.47,13.47,0,0,0,34,45.6h-2.2c.2-5.48,2.4-9.9,7-12.9a14.88,14.88,0,0,1,16.42-.57C60.31,35,62.8,39.67,63.08,45.62Z"/><path class="cls-2" d="M47.4,54.57a6.69,6.69,0,1,1,6.72-6.66A6.68,6.68,0,0,1,47.4,54.57Zm0-2.24a4.44,4.44,0,0,0,4.49-4.43A4.46,4.46,0,0,0,43,47.84,4.45,4.45,0,0,0,47.4,52.33Z"/><path class="cls-2" d="M28.42,59a6.69,6.69,0,1,1,6.73-6.64A6.69,6.69,0,0,1,28.42,59Zm0-2.23A4.46,4.46,0,1,0,24,52.32,4.45,4.45,0,0,0,28.45,56.8Z"/><path class="cls-2" d="M66.36,59a6.69,6.69,0,1,1,6.73-6.65A6.7,6.7,0,0,1,66.36,59Zm0-2.23a4.46,4.46,0,0,0,0-8.92,4.46,4.46,0,1,0,0,8.92Z"/><path class="cls-2" d="M51.85,80.28v2.15H43V80.28Z"/></g></g></svg>