<?xml version="1.0" encoding="utf-8"?>
<!-- Generator: Adobe Illustrator 24.0.1, SVG Export Plug-In . SVG Version: 6.00 Build 0)  -->
<svg version="1.1" id="Layer_1" xmlns="http://www.w3.org/2000/svg" xmlns:xlink="http://www.w3.org/1999/xlink" x="0px" y="0px"
	 viewBox="0 0 111 105" style="enable-background:new 0 0 111 105;" xml:space="preserve">
<style type="text/css">
	.st0{clip-path:url(#SVGID_2_);}
	.st1{fill:#F2F2F2;}
	.st2{fill:#FFFFFF;}
	.st3{opacity:0.39;clip-path:url(#SVGID_6_);}
	.st4{opacity:0.77;fill:url(#SVGID_7_);}
	.st5{opacity:0.77;fill:#FFFFFF;}
	.st6{opacity:0.57;fill:#FFFFFF;}
	.st7{fill:#644B9E;}
	.st8{fill:url(#SVGID_8_);}
	.st9{fill:url(#SVGID_9_);}
	.st10{fill:url(#SVGID_10_);}
	.st11{fill:#4D4D4D;}
	.st12{opacity:0.2;}
	.st13{fill:#F15A30;}
	.st14{fill:url(#SVGID_17_);}
	.st15{fill:url(#SVGID_18_);}
	.st16{fill:url(#SVGID_19_);}
	.st17{opacity:0.21;clip-path:url(#SVGID_21_);fill:url(#SVGID_22_);}
	.st18{clip-path:url(#SVGID_21_);}
	.st19{opacity:0.77;clip-path:url(#SVGID_21_);fill:url(#SVGID_25_);}
	.st20{opacity:0.77;clip-path:url(#SVGID_21_);fill:url(#SVGID_26_);}
	.st21{fill:#333333;}
	.st22{opacity:0.77;fill:url(#SVGID_29_);}
	.st23{fill:none;stroke:#F15A30;stroke-width:2;stroke-linecap:round;stroke-miterlimit:10;}
	.st24{fill:none;stroke:#4D4D4D;stroke-miterlimit:10;}
	.st25{fill:none;stroke:#4D4D4D;stroke-miterlimit:10;stroke-dasharray:3.0093,3.0093;}
	.st26{fill:none;stroke:#4D4D4D;stroke-miterlimit:10;stroke-dasharray:2.9739,2.9739;}
	.st27{opacity:0.77;fill:url(#SVGID_32_);}
	.st28{fill:#FF5E14;}
	.st29{opacity:0.27;clip-path:url(#SVGID_36_);fill:#1F2023;}
	.st30{opacity:0.77;fill:url(#SVGID_37_);}
	.st31{fill:#FBAE17;}
</style>
<g>
	<g>
		<circle class="st31" cx="55.5" cy="52.5" r="51"/>
	</g>
	<g>
		<path class="st2" d="M71.27,37.48c-6.19-0.02-12.38-0.02-18.57-0.01c-0.56,0-1.14-0.12-1.65,0.25l0,0c0,0,0,0,0,0
			c-1.87,0.39-2.98,1.75-3.02,3.81c-0.04,2.35,0,4.71-0.03,7.06c-0.01,0.48,0.23,1.04-0.29,1.42c0,0,0,0,0,0
			c-0.48-1.13-0.93-2.27-1.44-3.38c-0.5-1.09-1.57-1.32-2.58-1.37c-0.89-0.05-0.73,0.96-1.09,1.47c-0.29,0.4-0.28,0.98-0.83,1.34
			c0-0.62-0.08-1.2,0.02-1.73c0.11-0.54-0.1-0.63-0.53-0.63c-0.43,0-0.6,0.1-0.5,0.63c0.12,0.67,0.03,1.38,0.03,2.5
			c-0.53-0.97-0.94-1.55-1.18-2.19c-0.51-1.32-1.26-1.76-2.52-0.91c-1.32,0.21-1.98,1.09-2.43,2.26c-1.75,4.57-1.11,8.63,2.5,12.08
			c0,0,0,0,0,0c0,0,0,0,0,0c1.43,0.56,2.93,0.21,4.39,0.23c1.37,0.02,3.18,0.62,4.01-0.27c0.81-0.88,0.16-2.66,0.2-4.04
			c0.05-1.33-0.18-2.68,0.11-4.24c1.06,1.6,2.09,2.84,2.4,4.56c0.25,1.4,1.26,2.32,2.76,2.56c0.29,0.27,0.67,0.26,1.02,0.26
			c6.7,0,13.41-0.02,20.11-0.01c0.88,0,1.59-0.33,2.18-0.95l0,0c1.33-0.68,1.59-1.9,1.59-3.23c0-4.28,0.01-8.56,0-12.84
			C75.92,38.95,74.45,37.49,71.27,37.48z M47.89,50.13c-0.05-0.02-0.1-0.05-0.18-0.11C47.78,50.07,47.84,50.1,47.89,50.13z
			 M53.3,57.27c-0.33,0-0.65,0.02-0.94,0.13c-0.34-0.09-0.72-0.06-1.03-0.23c-0.44-0.24-1.01-0.51-0.93-1.08
			c0.07-0.5,0.67-0.32,1.04-0.4c1.83-0.43,3.14-1.55,4.12-3.1c0-0.02-0.02-0.03-0.02-0.05c2.28-0.97,4.33-2.33,6.5-3.48
			c-0.1-0.19-0.21-0.38-0.31-0.57c-2.14,1.23-4.27,2.45-6.41,3.68c-0.04-0.04-0.07-0.08-0.12-0.11c-1.01-0.29-2.03-0.22-3.06-0.19
			c-1.06,0.03-1.93-0.29-2.31-1.39c-0.01-0.04-0.03-0.08-0.04-0.12c0.09-0.32,0.08-0.67,0.09-1.01c0.04-1.44,0.06-2.89,0.01-4.33
			c-0.09-2.34-0.14-4.64,1.83-6.38c0.01,0.06,0.01,0.12,0.03,0.19c0.66,0.7,1.53,0.53,2.33,0.53c5.67,0.03,11.35-0.01,17.02,0.03
			c2.26,0.02,2.85,0.61,2.88,2.85c0.04,3.66-0.01,7.32,0.02,10.98c0.01,1.35-0.06,2.67-0.5,3.96c0,0.12,0.02,0.22,0.05,0.31
			c-0.26-0.21-0.58-0.26-0.91-0.26C66.19,57.27,59.74,57.19,53.3,57.27z"/>
		<path class="st2" d="M41.05,44.5c1.99,0.03,3.63-1.52,3.63-3.41c0-1.92-1.57-3.37-3.64-3.36c-2.03,0.01-3.63,1.56-3.58,3.45
			C37.51,42.97,39.13,44.47,41.05,44.5z"/>
		<path class="st2" d="M59.57,62.88c-0.53-0.01-0.74,0.17-0.72,0.71c0.03,0.77,0.01,1.54,0.01,2.31c-0.09,0.02-0.18,0.04-0.27,0.05
			c-0.48-0.84-1.01-1.65-1.44-2.52c-0.3-0.61-0.78-0.58-1.29-0.54c-0.67,0.06-0.42,0.61-0.43,0.96c-0.03,1.39-0.01,2.78-0.01,4.18
			c0,0.48,0.11,0.77,0.69,0.76c0.56-0.01,0.71-0.26,0.7-0.75c-0.01-0.76,0-1.52,0-2.29c0.82,0.82,1.32,1.66,1.77,2.51
			c0.27,0.51,0.68,0.53,1.17,0.52c0.5-0.01,0.59-0.31,0.59-0.71c0-1.5-0.01-2.99,0-4.48C60.33,63.04,60.07,62.89,59.57,62.88z"/>
		<path class="st2" d="M68.53,63.65c0-0.47-0.11-0.77-0.69-0.77c-0.57,0-0.7,0.27-0.69,0.76c0.02,0.75,0,1.5,0,2.25
			c-0.8-0.78-1.32-1.63-1.79-2.51c-0.28-0.53-0.72-0.49-1.19-0.48c-0.41,0.01-0.51,0.26-0.51,0.61c0,1.55-0.01,3.1,0,4.65
			c0,0.56,0.36,0.64,0.83,0.65c0.52,0.01,0.58-0.29,0.58-0.69c-0.01-0.77,0-1.55,0-2.32c0.09-0.04,0.18-0.08,0.27-0.11
			c0.51,0.87,1.05,1.73,1.52,2.62c0.28,0.53,0.72,0.51,1.19,0.48c0.66-0.04,0.48-0.57,0.49-0.93
			C68.55,66.44,68.53,65.04,68.53,63.65z"/>
		<path class="st2" d="M72.14,65.71c-0.44,0.05-0.42,0.68-0.09,0.81c0.45,0.19,0.96,0.18,0.68,0.85c-0.13,0.31-0.48,0.37-0.79,0.33
			c-0.49-0.06-0.87-0.28-1.02-0.8c-0.19-0.66-0.25-1.33-0.04-1.98c0.32-1.02,0.96-1.43,1.78-0.55c0.46,0.49,1.02,0.62,1.3,0.27
			c0.42-0.53-0.1-1.06-0.56-1.38c-0.83-0.58-1.78-0.59-2.66-0.2c-1.13,0.51-1.44,1.54-1.39,2.6c-0.02,2.66,1.94,3.96,4.13,2.87
			c0.65-0.32,1.16-1.99,0.69-2.56C73.63,65.3,72.81,65.63,72.14,65.71z"/>
		<path class="st2" d="M40.62,62.89c-0.51-0.02-1.03,0-1.54,0c-0.67,0-1.34,0-2,0c-0.33,0-0.61,0.05-0.6,0.48
			c0.01,0.34,0.1,0.67,0.49,0.62c1.31-0.16,1.21,0.7,1.18,1.55c-0.02,0.82,0.02,1.64-0.01,2.46c-0.02,0.61,0.25,0.78,0.83,0.79
			c0.6,0.01,0.67-0.29,0.66-0.76c-0.02-0.87,0.01-1.75-0.01-2.62c-0.02-0.79-0.14-1.61,1.11-1.41c0.41,0.06,0.68-0.15,0.67-0.63
			C41.38,62.81,40.96,62.9,40.62,62.89z"/>
		<path class="st2" d="M53.65,62.87c-0.57,0.01-0.69,0.28-0.68,0.77c0.02,0.72,0,1.45,0,2.17c0,0.72,0.02,1.45-0.01,2.17
			c-0.02,0.59,0.19,0.84,0.81,0.82c0.56-0.02,0.69-0.29,0.69-0.78c-0.01-1.45-0.02-2.89,0-4.34C54.48,63.08,54.26,62.85,53.65,62.87
			z"/>
		<path class="st2" d="M61.9,62.88c-0.62,0.02-0.61,0.4-0.61,0.82c0,0.67,0,1.33,0,2c0,0.77,0,1.54,0,2.3
			c0,0.45,0.07,0.78,0.66,0.78c0.56,0,0.71-0.26,0.71-0.75c-0.01-1.43-0.01-2.87,0-4.3C62.66,63.21,62.57,62.86,61.9,62.88z"/>
		<path class="st2" d="M46.35,65.08c0.57-0.91-0.23-1.88-1.36-2.11c-0.64-0.13-1.33-0.03-2-0.1c-0.79-0.08-1.11,0.18-1.08,1.01
			c0.06,1.28,0.01,2.57,0.01,3.85c0,0.51-0.08,1.03,0.74,1.05c0.87,0.02,0.64-0.57,0.7-1.04c0.05-0.36-0.25-0.91,0.32-1.04
			c0.53-0.12,0.67,0.43,0.81,0.78c0.38,0.94,0.83,1.66,2.2,1.06C45.81,67.48,45.48,66.46,46.35,65.08z M44.04,65.61
			c-0.71,0.04-0.68-0.43-0.7-0.91c-0.02-0.56,0.26-0.71,0.76-0.69c0.53,0.03,0.9,0.21,0.89,0.81
			C44.93,65.39,44.58,65.58,44.04,65.61z"/>
		<path class="st2" d="M50.63,63.64c-0.17-0.47-0.36-0.77-0.96-0.78c-0.6-0.01-0.8,0.3-0.96,0.77c-0.48,1.35-0.99,2.7-1.46,4.06
			c-0.12,0.34-0.56,0.81,0,1.03c0.42,0.17,1.1,0.25,1.28-0.44c0.16-0.63,0.6-0.61,1.25-0.61c0.44-0.08,0.88,0.04,1.1,0.76
			c0.18,0.57,0.82,0.42,1.21,0.3c0.52-0.16,0.16-0.6,0.06-0.89C51.66,66.43,51.13,65.04,50.63,63.64z M49.95,66.53
			c-0.09,0.1-0.49,0.08-0.56-0.01c-0.46-0.62,0.04-1.09,0.35-1.79C49.81,65.46,50.49,65.92,49.95,66.53z"/>
		<path class="st2" d="M70.01,41.37c-2.79-0.01-5.57-0.01-8.36-0.01c0-0.01,0-0.01,0-0.02c-2.89,0-5.78-0.01-8.67,0.01
			c-0.53,0-1.24-0.17-1.19,0.76c0.05,0.83,0.7,0.6,1.16,0.6c5.68,0.01,11.36,0,17.03-0.01c0.48,0,1.11,0.19,1.12-0.65
			C71.12,41.24,70.49,41.37,70.01,41.37z"/>
		<path class="st2" d="M65,43.76c-4.08-0.01-8.17-0.01-12.25-0.01c-0.49,0-0.95,0.02-0.98,0.69c-0.04,0.8,0.5,0.76,1.03,0.76
			c2.07,0,4.14,0,6.2,0c0,0,0-0.01,0-0.01c1.96,0,3.93,0,5.89,0c0.5,0,1.08,0.12,1.06-0.71C65.94,43.79,65.49,43.76,65,43.76z"/>
		<path class="st2" d="M58.84,46.36c-2.06,0-4.11-0.01-6.17-0.01c-0.5,0-0.92,0.05-0.89,0.74c0.03,0.73,0.55,0.61,0.99,0.62
			c0.98,0.01,1.95,0,2.93,0c0,0,0,0,0-0.01c1.03,0,2.06,0.01,3.09,0c0.44-0.01,0.95,0.11,0.97-0.63
			C59.77,46.36,59.33,46.36,58.84,46.36z"/>
		<path class="st2" d="M60.96,84.45c-0.74,0-1.38-0.39-1.84-1.14c-0.2-0.32-0.38-0.65-0.55-0.98l-0.1-0.19
			c-0.93-1.73-2.13-2.61-3.57-2.61c-0.87,0-1.81,0.33-2.81,0.98L52,80.56l-0.07,0.09l-0.07,0.15c-0.03,0.06-0.04,0.09-0.06,0.12
			c-1.66,2.45-2.23,3.22-3.28,3.22c-0.76,0-1.85-0.37-3.5-0.93c-1.22-0.41-1.76-1.16-1.78-2.41l-0.01-0.26
			c-0.01-0.22-0.01-0.41,0.01-0.61c0.39-3.84-0.84-4.32-4.45-5.14l-0.09-0.02l-0.18,0.03c-0.02,0.01-0.3,0.16-0.36,0.19
			c-1.86,1.13-2.82,1.63-3.61,1.63c-0.95,0-1.77-0.83-3.41-2.73c-0.87-1-0.97-1.97-0.33-3.13c0.14-0.26,0.3-0.52,0.45-0.77
			c0,0,0.23-0.39,0.33-0.54c0.82-1.4,0.92-2.88,0.29-4.06c-0.64-1.19-1.95-1.93-3.59-2.01c-1.61-0.08-2.89-0.65-3.7-1.63
			c-0.84-1.01-1.16-2.45-0.93-4.16c0.08-0.59,0.41-1.03,1.09-1.45c0.7-0.43,1.41-0.86,2.12-1.28l1.03-0.62l0.07-0.12
			c1.24-3.24,0.75-4.59-2.24-6.28c-1.32-0.74-1.86-1.98-1.53-3.49c0.23-1.08,0.51-2.21,1.07-3.21c0.3-0.53,0.66-0.78,1.12-0.78
			l0.15-0.01c0.44-0.16,0.83-0.22,1.36-0.22c0.25,0,0.5,0.01,0.75,0.03c0.29,0.02,0.57,0.03,0.84,0.03c0.11,0,0.23,0,0.34-0.01
			c1-0.05,2.03-0.75,2.69-1.81c0.65-1.05,0.81-2.22,0.42-3.13c-0.16-0.38-0.36-0.74-0.55-1.11c-0.1-0.19-0.2-0.38-0.3-0.57
			c-1.07-2.13-0.98-2.57,0.83-4.24c0.37-0.34,0.75-0.67,1.14-1l0.59-0.51c0.37-0.36,0.73-0.51,1.17-0.51c0.33,0,0.72,0.09,1.17,0.29
			c0.39,0.17,0.79,0.35,1.08,0.6c0.89,0.76,1.81,1.15,2.73,1.15c0.95,0,1.91-0.41,2.84-1.22c1.05-0.93,1.07-2.14,1.1-3.2l0.01-0.42
			c0.1-2.64,0.38-2.95,3.01-3.37c1.17-0.4,1.89-0.57,2.42-0.57c0.98,0,1.54,0.57,2.49,2.52c0.75,1.56,2.12,2.49,3.66,2.49
			c0.99,0,1.96-0.39,2.8-1.11l0.16-0.27c0.03-0.09,0.04-0.12,0.05-0.13c1.58-2.59,2.16-3.19,3.1-3.19c0.67,0,1.59,0.31,2.98,0.78
			c0.4,0.13,0.83,0.28,1.3,0.43c0.82,0.27,1.02,1.02,1.05,1.61c0.03,0.66,0.02,1.17-0.03,1.63c-0.18,1.9,0.45,3.26,1.94,4.16
			c0.66,0.4,1.31,0.59,2,0.59c0.8,0,1.62-0.26,2.56-0.82c1.15-0.68,1.78-1,2.27-1c0.58,0,1.14,0.5,2.27,1.65l0.32,0.33
			c2.11,2.19,2.14,2.47,0.54,5.01c-0.68,1.08-1.27,2.42-0.47,4.09c0.77,1.6,1.89,2.35,3.53,2.35l0.19,0
			c0.16-0.01,0.31-0.01,0.46-0.01c2.3,0,3.05,0.66,3.65,3.22c0.76,3.26,0.76,3.26-2.12,4.83c-2.26,1.24-2.91,2.71-2.24,5.1
			c0.09,0.32,0.3,0.64,0.63,0.96c0.19,0.19,0.42,0.32,0.61,0.44c0.09,0.05,0.16,0.09,0.23,0.14c3.59,2.36,3.68,2.67,1.98,6.68
			c-0.32,1.23-1.05,1.75-2.46,1.75c-0.71,0-1.41,0.03-2.12,0.07l-0.99,0.04c-1.31,0.55-2.24,1.6-2.55,2.83
			c-0.26,1.04-0.05,2.05,0.58,2.85c0.07,0.08,0.12,0.22,0.18,0.34c0.04,0.09,0.08,0.17,0.12,0.26c1.31,2.58,1.15,3.18-1.34,4.93
			l-0.08,0.08c-0.72,1.03-1.34,1.47-2.1,1.47c-0.48,0-1.06-0.17-1.77-0.53c-0.29-0.14-0.57-0.34-0.86-0.55
			C72,76.1,71.3,75.6,70.39,75.6c-0.39,0-0.77,0.09-1.17,0.28c-2.16,0.79-3.1,2.47-2.86,5.13c0.11,1.18-0.27,1.95-1.15,2.35
			c-0.93,0.46-1.95,0.67-2.95,0.87c-0.26,0.05-0.52,0.11-0.78,0.16C61.3,84.43,61.13,84.45,60.96,84.45z M54.86,77.89
			c1.81,0,3.42,0.88,4.31,2.36c0.85,1.41,1.69,2.35,3.08,2.35c0.43,0,0.89-0.1,1.4-0.29c0.02-0.01,0.05-0.01,0.09-0.01
			c0.07,0,0.15,0.01,0.24,0.04l0.57,0.16l0.13-1.42c0.1-1.04,0.2-2.12,0.37-3.16c0.27-1.56,1.2-2.49,2.49-2.49
			c0.14,0,0.28,0.01,0.42,0.03l0.76,0.11l-0.2-0.66c0.28-0.73,0.9-0.89,1.75-0.89c0.16,0,0.32,0.01,0.48,0.01
			c0.47,0.02,0.98,0.2,1.51,0.53c0.89,0.56,1.82,1.13,2.84,1.13c0.65,0,1.25-0.22,1.84-0.67l0.1,0.05l0.05,0.01l0.19-0.27
			c0.78-1.61,0.13-2.98-0.45-4.2c-1.06-2.23-0.55-4.42,1.38-6.02c0.41-0.34,0.85-0.65,1.32-0.65c0.11,0,0.23,0.02,0.35,0.05
			l0.43,0.12l0.16-0.41c0.18-0.46,0.59-0.52,1.29-0.58c0.13-0.01,0.26-0.02,0.38-0.04c0.37-0.05,0.74-0.09,1.12-0.13l0.09-0.01
			c0.51-0.06,1.02-0.12,1.53-0.18l0.91-0.12c0,0-0.64-0.73-0.66-0.75c0.53-2.43-1.08-3.73-2.62-4.75c-0.86-0.57-1.45-1.68-1.6-3.03
			c-0.19-1.68,0.3-3.36,1.28-4.38c0.54-0.56,1.16-1.02,1.85-1.38c1.78-0.91,1.63-2.39,1.3-3.57c-0.42-1.52-1.62-1.57-2.58-1.61
			c-2.19-0.09-3.98-1.11-4.92-2.8c-0.93-1.66-0.87-3.67,0.17-5.51c0.78-1.39,0.99-2.49-0.37-3.71c-0.6-0.53-1.12-0.77-1.68-0.77
			c-0.38,0-0.77,0.11-1.2,0.35c-1.18,0.64-2.13,0.92-3.06,0.92c-0.35,0-0.7-0.04-1.05-0.13c-2.8-0.69-4.45-2.75-4.51-5.66
			c-0.05-2.21-0.29-2.41-2.16-2.96c-0.3-0.09-0.57-0.13-0.83-0.13c-0.73,0-1.31,0.35-1.8,1.1l-0.18,0.28
			c-0.37,0.59-0.67,1.07-1.29,1.13l-0.69-0.31l0.13,0.84c0.02,0.58-0.29,0.78-1.19,1.05c-0.56,0.17-1.14,0.25-1.72,0.25
			c-1.98,0-3.74-0.97-4.71-2.59c-0.67-1.13-1.46-2.23-2.96-2.23c-0.21,0-0.43,0.02-0.66,0.06l-0.05-0.04l-0.29-0.4l-0.05-0.08
			l-0.43,0.39c-0.8,1.2-0.98,2.44-1.02,3.94c-0.02,1.02-0.35,2.27-1.78,2.43l-0.48,0.05l0.04,0.42c-0.53,1.12-1.87,1.96-3.19,1.96
			c-0.39,0-0.76-0.07-1.11-0.2c-1.56-0.61-2.85-1.3-3.93-2.11l-0.66-0.5l-0.12,0.88c-2.19,1.87-1.56,3.92-0.56,5.85
			c0.87,1.67-0.37,4.75-1.93,5.83l-0.08,0.06c-0.15,0.11-0.33,0.23-0.44,0.23l-0.46-0.19l-0.23,0.36c-0.43,0.68-1.16,0.68-2.01,0.68
			c-0.21,0-0.41,0-0.61,0.01c-1.96,0.1-2.8,0.95-2.79,2.86c0.01,1.16,0.78,1.63,1.4,2.02c0.16,0.1,0.29,0.18,0.42,0.27
			c2.29,1.69,3.1,4.35,2.05,6.8c-0.33,0.76-0.53,1.08-0.98,1.11l-0.35,0.02l-0.09,0.34c-0.17,0.65-0.75,0.98-1.32,1.27
			c-1.33,0.66-1.76,1.65-1.37,3.22c0.34,1.37,1.1,1.98,2.47,1.98l0.49-0.01c1.74,0,3.17,0.83,4.37,2.53
			c1.35,1.92,1.32,3.85-0.08,6.08c-1.1,1.75-0.85,2.28,0.57,3.63c0.48,0.45,0.94,0.66,1.47,0.66c0.32,0,0.66-0.09,1.03-0.26
			l0.23-0.11c0.45-0.22,0.91-0.45,1.35-0.45c0.14,0,0.28,0.02,0.43,0.07l0.46,0.15l0.16-0.46c0.08-0.22,0.18-0.33,0.57-0.33
			c0.16,0,0.32,0.02,0.48,0.04l0.16,0.02c3.06,0.31,4.9,2.35,4.93,5.44c0.03,2.32,0.25,2.65,2.21,3.25c0.34,0.1,0.63,0.15,0.91,0.15
			c0.75,0,1.34-0.36,1.85-1.14l0.13-0.21c0.43-0.67,0.81-1.25,1.55-1.31l0.44-0.04l0.01-0.44c0.01-0.32,0.19-0.48,0.85-0.76
			C53.38,78.04,54.11,77.89,54.86,77.89z"/>
	</g>
</g>
</svg>
