<svg id="Layer_1" data-name="Layer 1" xmlns="http://www.w3.org/2000/svg" viewBox="0 0 148 148.51"><defs><style>.cls-1{fill:#fff;}.cls-2{fill:#fbae17;}</style></defs><circle class="cls-1" cx="74" cy="74" r="74"/><path class="cls-2" d="M80.58,115.41c-7.76,0-15.44,0-22.83,0-4.43,0-7.44-3-7.49-7.54,0-.55,0-1.1,0-1.67v-1.46H41.14c-3.2,0-4.64-1.42-4.64-4.61V75.22c0-3.1,1.46-4.54,4.58-4.55h8.18a.94.94,0,0,0,.34-.07l.21,0,.45-.12v-10c0-6.63,0-13.48,0-20.21,0-3.65,1.93-6.37,5.15-7.29a9.37,9.37,0,0,1,2.49-.33H73.25l14.81,0a2.39,2.39,0,0,1,1.85.78c6.68,6.71,13.67,13.7,20.77,20.77a2.54,2.54,0,0,1,.82,2q0,16.17,0,32.34v19.34c0,4.55-3,7.61-7.55,7.62ZM52.2,105.89v1.41c0,3.91,2.08,6,6,6H103.6c3.78,0,6-2.16,6-5.93V56.53l-.44-.12-.17-.06a1.16,1.16,0,0,0-.35-.06H95.43a10.08,10.08,0,0,1-1.53-.09A7.08,7.08,0,0,1,87.77,49c0-3.16,0-6.27,0-9.55V34.49H58.12c-3.87,0-5.92,2-5.92,5.9V70.55H85c3.17,0,4.59,1.4,4.59,4.54q0,12.43,0,24.89c0,3.13-1.41,4.53-4.56,4.53H52.2Zm32.74-3.2c2.19,0,2.82-.63,2.82-2.83V75.32c0-2.19-.63-2.83-2.83-2.83H41.32c-2.29,0-2.88.59-2.88,2.88V99.81c0,2.29.6,2.88,2.88,2.88H84.94Zm4.69-64.84c0,1.09,0,2.21,0,3.33,0,2.72,0,5.53,0,8.33a4.89,4.89,0,0,0,4.67,4.76c1.45,0,3,.06,4.91.06h3.5l3.33,0h1.44L89.63,36.4Z"/><path class="cls-2" d="M60,93.43H57.82V81.56c.56,0,1.12.06,1.67.08a29.11,29.11,0,0,1,4.85.47A5.33,5.33,0,0,1,68.66,88a5.68,5.68,0,0,1-4.87,5.22,10.58,10.58,0,0,1-1.9.18ZM62,83a11.22,11.22,0,0,0-2.06.22l-.48.1V92h.6l1,0H62c.44,0,.81,0,1.15,0A4.4,4.4,0,0,0,67,86.62C66.39,84.22,64.68,83,62,83Z"/><path class="cls-2" d="M44.49,93.35V81.59l1.69.06a37.74,37.74,0,0,1,5.22.4c1.85.31,2.57,2.14,2.46,3.8A3.39,3.39,0,0,1,50.92,89a22.79,22.79,0,0,1-2.92.21l-1.45.06-.56,0v4ZM46,87.78h.6l1,0h1A13.46,13.46,0,0,0,50,87.75a2.26,2.26,0,0,0,2.16-2.41A2.23,2.23,0,0,0,50,83.1c-.41,0-.84-.06-1.37-.06h-1l-1,0H46Z"/><polygon class="cls-2" points="73.1 93.43 73.1 81.75 81.72 81.75 81.72 82.94 74.73 82.94 74.73 87.02 81.01 87.02 81.01 88.36 74.64 88.36 74.64 93.43 73.1 93.43"/></svg>