<svg xmlns="http://www.w3.org/2000/svg" viewBox="0 0 102 102"><defs><style>.cls-1{fill:#fbae17;}.cls-2{fill:#fff;}</style></defs><g id="Layer_2" data-name="Layer 2"><g id="Layer_1-2" data-name="Layer 1"><circle class="cls-1" cx="51" cy="51" r="51"/><path class="cls-2" d="M63.9,31c1.3-1,2.8-2.1,4.3-3.3.8-.6,1.4-.7,2.1.1,1.2,1.3,2.5,2.6,3.8,3.8a1.36,1.36,0,0,1,.1,2.2c-1,1.3-2,2.5-2.9,3.9a2.2,2.2,0,0,0-.1,1.4c.8,2,1.6,4.1,2.5,6.1a1.76,1.76,0,0,0,1,.9c1.6.3,3.3.5,5,.7,1,.1,1.3.6,1.3,1.5v5.5c0,.9-.3,1.4-1.3,1.5-1.7.2-3.4.4-5.1.7a1.45,1.45,0,0,0-.9.8c-.9,2-1.8,4.1-2.6,6.2a1.48,1.48,0,0,0,.2,1.3c.9,1.3,1.9,2.6,2.9,3.9a1.22,1.22,0,0,1-.1,2l-3.9,3.9a1.37,1.37,0,0,1-2.1.1c-1.5-1.2-3.1-2.3-4.3-3.3-2.5,1-4.8,1.8-7.1,2.8a1.86,1.86,0,0,0-.9,1.2,37.76,37.76,0,0,0-.6,4.7c-.1,1-.6,1.5-1.6,1.4a46.85,46.85,0,0,0-5.3,0c-1.2.1-1.6-.5-1.7-1.6a36.21,36.21,0,0,0-.6-4.6c-.1-.4-.4-1-.8-1.1-2.3-1-4.6-1.8-7.2-2.8-1.3,1-2.8,2.1-4.3,3.3-.8.6-1.4.6-2-.1-1.2-1.3-2.5-2.6-3.8-3.8a1.36,1.36,0,0,1-.1-2.2c1-1.2,2-2.5,2.9-3.8a1.93,1.93,0,0,0,.1-1.5l-2.4-6c-.2-.6-.4-.9-1.1-1-1.7-.2-3.3-.5-5-.7-.9-.1-1.3-.5-1.3-1.5V48.1c0-1,.3-1.4,1.3-1.5,1.7-.2,3.3-.4,5-.7a1.76,1.76,0,0,0,1-.9c.9-2,1.7-4,2.5-6.1a1.72,1.72,0,0,0-.1-1.4c-.9-1.4-2-2.7-3-4a1.27,1.27,0,0,1,.2-2l3.9-3.9a1.17,1.17,0,0,1,1.9-.1c1.3,1,2.7,2,4,3.1a1.2,1.2,0,0,0,1.5.1A58.93,58.93,0,0,1,45,28.3c.8-.3,1.1-.6,1.2-1.4.1-1.5.4-3,.6-4.6a1.37,1.37,0,0,1,1.6-1.4,48.64,48.64,0,0,0,5.4,0c1,0,1.4.4,1.5,1.4.2,1.6.4,3.2.7,4.8a1.57,1.57,0,0,0,1,1.1C59.1,29.2,61.4,30,63.9,31Zm5.2-1.6c-1.4,1.1-2.9,2.2-4.3,3.3a1.66,1.66,0,0,1-2.1.1c-2.3-1.1-4.7-2-7.1-2.9-.8-.3-1.2-.6-1.3-1.4-.2-1.9-.5-3.7-.8-5.6H48.6c-.3,1.9-.6,3.7-.8,5.6-.1.9-.5,1.2-1.3,1.5-2.4.9-4.7,1.8-7,2.9-.9.4-1.5.5-2.2-.2-1.4-1.1-2.9-2.2-4.2-3.2-1.2,1.2-2.3,2.3-3.6,3.5,1.1,1.5,2.2,2.9,3.4,4.4.6.7.5,1.2.1,2-.9,1.8-2.1,3.6-2.5,5.5-.5,2.3-1.5,3.2-3.8,3.3-1.2,0-3,0-3.5.8s-.2,2.4-.2,3.7c0,.7.3,1,1,1.1,1.4.1,2.9.4,4.3.5,1.1.1,1.5.5,1.9,1.6A57.2,57.2,0,0,0,33,62.7a1.83,1.83,0,0,1-.2,2.4c-1.1,1.4-2.2,2.8-3.2,4.2l3.5,3.5c1.5-1.1,3-2.3,4.5-3.4a1.49,1.49,0,0,1,1.9-.1c2.4,1.1,4.8,2.1,7.3,3,.8.3,1.2.6,1.3,1.4.2,1.9.5,3.7.8,5.6h5c.3-2,.5-3.8.8-5.7a2.19,2.19,0,0,1,1.2-1.3c2.4-1,4.8-1.9,7.1-3,.9-.4,1.5-.5,2.2.2,1.4,1.2,2.9,2.2,4.2,3.2,1.3-1.2,2.4-2.3,3.6-3.4-1.1-1.5-2.2-2.9-3.3-4.3a1.68,1.68,0,0,1-.1-2.2A21.73,21.73,0,0,0,72,57.4c.5-2.3,1.5-3.3,3.8-3.3,1.2,0,3,0,3.5-.8s.2-2.4.2-3.7c0-.7-.2-1-1-1.1-1.5-.1-3-.4-4.4-.6a1.81,1.81,0,0,1-1.7-1.4,60.73,60.73,0,0,0-2.9-7,1.8,1.8,0,0,1,.1-2.1c1.2-1.4,2.2-2.9,3.3-4.4C71.4,31.7,70.3,30.6,69.1,29.4Z"/><path class="cls-2" d="M67.8,51.1A16.85,16.85,0,1,1,51,34.2,16.86,16.86,0,0,1,67.8,51.1Zm-1.8,0A15,15,0,1,0,51,66,15,15,0,0,0,66,51.1Z"/><path class="cls-2" d="M51.1,59.2H42.3c-2.4,0-3.2-1.4-2.1-3.4C43.1,50.2,46.1,44.6,49,39c.5-.9,1-1.6,2-1.6s1.6.7,2,1.6c2.9,5.6,5.9,11.1,8.8,16.6,1.2,2.2.3,3.5-2.2,3.5C56.8,59.2,53.9,59.2,51.1,59.2Zm-9.7-2H60.6c-3.2-6.1-6.3-12-9.6-18.2C47.7,45.3,44.6,51.2,41.4,57.2Z"/><path class="cls-2" d="M52.1,52.3H50c-.2-2.7-.4-5.5-.6-8.3h3.2C52.4,46.7,52.3,49.5,52.1,52.3Z"/><path class="cls-2" d="M52.5,55.2c-.4.3-.9.9-1.5,1-.9.2-1.5-.5-1.6-1.5a1.34,1.34,0,0,1,1.4-1.5C51.9,53.2,52.4,53.7,52.5,55.2Z"/></g></g></svg>