<?xml version="1.0" encoding="utf-8"?>
<!-- Generator: Adobe Illustrator 24.0.1, SVG Export Plug-In . SVG Version: 6.00 Build 0)  -->
<svg version="1.1" id="Layer_1" xmlns="http://www.w3.org/2000/svg" xmlns:xlink="http://www.w3.org/1999/xlink" x="0px" y="0px"
	 viewBox="0 0 111 105" style="enable-background:new 0 0 111 105;" xml:space="preserve">
<style type="text/css">
	.st0{fill:#FBAE17;}
	.st1{fill:#FFFFFF;}
</style>
<g>
	<g>
		<circle class="st1" cx="55.5" cy="52.5" r="51"/>
	</g>
	<g>
		<path class="st0" d="M45.5,85c-4.5,0-9,0-13.6,0c-3.4,0-5.3-1.8-5.3-5.1c-0.1-15-0.1-30.1,0-44.8c0-3.3,1.8-5.1,5.3-5.2
			c0.6,0,1.1,0,1.7,0l3.3,0l0.1-0.3c0.4-2.5,1.6-3.7,3.8-3.8c0.7,0,1.4-0.8,1.7-1.4c1.3-2.9,3.3-4.3,6.2-4.3c2.9,0,5,1.4,6.3,4.2
			c0.3,0.7,1.2,1.4,2,1.5c1.8,0.3,2.8,1,3.3,2.6c0.2,0.7,1.1,1.1,1.9,1.4c0.2,0.1,0.4,0.1,0.7,0.1c0.2,0,0.3,0,0.5,0
			c0.2,0,0.3,0,0.5,0c5.6,0,7,1.4,7,7.1c0,0.8,0,1.5,0,2.3c0,1.8,0,3.7,0.1,5.6c0,0.9,0.5,2.1,1.3,2.7c3,2.5,6.6,5.2,11.1,6.4
			c0.5,0.1,1.2,1,1.2,1.4c0,0.9-0.1,1.7-0.1,2.6l0,0.2c-0.2,3.5-0.3,7.2-1,10.6c-1,4.8-4.1,8.8-9,11.9l-0.9,0.5c-1.6,1-3.3,2.1-5,3
			c-0.8,0.4-1.8,0.7-2.8,0.7C58.8,85,52.2,85,45.5,85z M32.6,31.9c-3.1,0-4,0.9-4,4c0,14.3,0,28.7,0,43c0,3.2,0.9,4,4.1,4l14.1,0
			c5.9,0,11.8,0,17.7,0c0.4,0,0.9,0,1.3-0.1l0.7-0.1l0.9-0.1l-0.7-0.6c-0.6-0.5-1.1-0.9-1.7-1.4l-0.2-0.2c-1.5-1.2-2.9-2.3-4.1-3.5
			c-1.1-1.1-2.2-1.6-3.7-1.6c-3.5,0-7,0-10.5,0l-11.5,0c-0.7,0-1.5,0-1.8-0.4c-0.1-0.2-0.2-0.5,0-1c0.1-0.2,1.1-0.7,1.8-0.7
			c4.1,0,8.3-0.1,11.9-0.1l7.8,0c0.5,0,1,0,1.6-0.1l1.4-0.1l-0.2-0.5c-0.1-0.3-0.3-0.6-0.4-0.9c-0.2-0.5-0.4-0.9-0.5-1.2
			c-0.4-2.6-2.2-3-3.9-3l-0.4,0c-2.4,0.1-4.9,0.1-7.6,0.1c-2.8,0-5.9,0-9.8-0.1c-0.4,0-0.9-0.4-1.3-0.7l-0.3-0.2l0.2-0.2
			c0.5-0.5,1-0.8,1.4-0.9c1.9-0.1,3.8-0.1,6.3-0.1l6.5,0h7.4l-0.3-5.7l-19.1,0c-0.2,0-0.3,0-0.5,0c-0.2,0-0.3,0-0.5,0
			c-0.2,0-0.3,0-0.4-0.1c-0.3-0.2-0.6-0.5-0.9-0.8l-0.2-0.2l0.1-0.1c0.4-0.5,0.7-0.8,1-0.9c0.2-0.1,0.4-0.1,0.6-0.1
			c0.2,0,0.4,0,0.5,0c0.3,0,0.5,0,0.7,0h19l-0.1-0.5c-0.6-2.5,0.5-3,2.4-3.9l0.1-0.1c2.8-1.3,5.3-3,7.8-4.7c0.8-0.5,1.5-1,2.3-1.5
			c0.5-0.3,0.9-1.2,0.9-1.8c0.1-3.3,0.1-6.9,0-10.5c0-1.7-1-2.8-2.7-2.9c-0.7,0-1.3,0-2,0c-0.5,0-1,0-1.5,0c-0.5,0-1,0-1.5,0h-0.3
			l-0.1,0.3c-0.7,4.3-1.4,4.9-3.5,5c-2.7,0-5.3,0.1-8,0.1c-2.9,0-5.7,0-8.6-0.1c-1.9,0-3.1-1.1-3.3-3.1c0-0.4-0.1-0.7-0.1-1.1
			l-0.1-1.1l-2.8,0L32.6,31.9z M57,56.6l0,0.2c0,0.5,0,1,0,1.6c0,1.4-0.1,2.9,0.1,4.4c0.7,8,4.3,13.6,10.7,16.9
			c0.5,0.3,1.2,0.4,1.9,0.4c0.7,0,1.4-0.1,1.9-0.4c3.3-1.5,6-4,8.1-7.5c2.9-5,2.9-10.4,2.7-15.2c0-0.6-0.6-1.2-1-1.4
			c-3-1.7-5.9-3.3-8.9-5L69.6,49L57,56.6z M41.4,27.8c-0.8,0-1.4,0.2-1.8,0.7c-0.5,0.6-0.6,1.4-0.5,2.6c0,0.4,0,0.7,0,1
			c-0.2,1.1,0,1.9,0.4,2.4c0.4,0.5,1.2,0.8,2.2,0.8c0.2,0,0.4,0,0.6,0c0.7-0.1,1.5-0.1,2.4-0.1c0.6,0,1.3,0,1.9,0c0.6,0,1.3,0,1.9,0
			l6.7,0c2.6,0,2.8-0.4,2.9-2.9c0-0.5,0-1,0-1.5c0.1-1.1-0.1-1.9-0.6-2.4c-0.4-0.4-1-0.6-1.8-0.6c-0.2,0-0.5,0-0.8,0
			c-0.2,0-0.3,0-0.4,0c-0.8,0-1.3-0.3-1.5-1.6c-0.3-2.6-2.1-4.2-4.5-4.2c-2.4,0-4.1,1.6-4.5,4.3c-0.2,1.4-0.8,1.6-1.5,1.6
			c-0.2,0-0.3,0-0.5,0C41.9,27.8,41.7,27.8,41.4,27.8z"/>
		<path class="st0" d="M45.5,84.9c-4.5,0-9,0-13.6,0c-3.3,0-5.2-1.8-5.2-5c-0.1-15.1-0.1-30.2,0-44.8c0-3.2,1.8-5,5.2-5.1
			c0.6,0,1.1,0,1.7,0l3.4,0l0.1-0.4c0.4-2.5,1.5-3.6,3.7-3.7c0.7,0,1.5-0.9,1.7-1.5c1.2-2.9,3.2-4.2,6.1-4.3c2.9,0,4.9,1.4,6.2,4.2
			c0.3,0.7,1.3,1.4,2.1,1.5c1.7,0.2,2.7,1,3.2,2.5c0.2,0.7,1.1,1.1,1.9,1.5c0.2,0.1,0.5,0.1,0.8,0.1c0.2,0,0.4,0,0.5,0
			c0.2,0,0.3,0,0.4,0c5.5,0,6.9,1.4,6.9,7c0,0.8,0,1.5,0,2.3c0,1.9,0,3.7,0.1,5.6c0,0.9,0.5,2.1,1.3,2.8c3,2.5,6.6,5.2,11.1,6.4
			c0.5,0.1,1.2,1,1.2,1.3c-0.1,0.9-0.1,1.9-0.1,2.8c-0.2,3.6-0.3,7.2-1,10.6c-1,4.8-4,8.8-9,11.9l-0.9,0.5c-1.6,1-3.3,2.1-5,3
			c-0.8,0.4-1.8,0.7-2.8,0.7C58.8,84.9,52.2,84.9,45.5,84.9z M32.6,31.8c-3.1,0-4.1,0.9-4.1,4.1c0,14.3,0,28.7,0,43
			c0,3.2,0.9,4.1,4.2,4.1l14.1,0c5.9,0,11.8,0,17.7,0c0.4,0,0.9,0,1.3-0.1l0.7-0.1l1.2-0.1L66.9,82c-0.6-0.5-1.2-1-1.8-1.5l-0.1-0.1
			c-1.5-1.2-2.8-2.3-4.1-3.5c-1.1-1.2-2.2-1.6-3.8-1.6c-3.5,0-7,0-10.5,0l-11.5,0c-0.7,0-1.5,0-1.7-0.3c-0.1-0.2-0.1-0.5,0-0.9
			c0.1-0.1,1-0.6,1.7-0.6c4,0,8-0.1,11.9-0.1l7.8,0c0.5,0,1,0,1.6-0.1l1.5-0.1l-0.3-0.6c-0.1-0.3-0.3-0.6-0.4-0.9
			c-0.2-0.5-0.4-0.9-0.4-1.2c-0.4-2.7-2.2-3.1-4-3.1l-0.4,0c-2.4,0.1-4.9,0.1-7.6,0.1c-2.8,0-5.8,0-9.8-0.1c-0.3,0-0.8-0.4-1.2-0.7
			l-0.2-0.1l0.2-0.1c0.5-0.4,0.9-0.8,1.3-0.8c1.8-0.1,3.7-0.1,6.3-0.1l6.5,0h7.5l-0.3-5.9l-19.2,0c-0.2,0-0.3,0-0.5,0
			c-0.2,0-0.3,0-0.4,0c-0.2,0-0.3,0-0.4-0.1c-0.3-0.2-0.6-0.5-0.9-0.8l-0.1-0.1l0.1-0.1c0.3-0.4,0.6-0.7,0.9-0.8
			c0.1-0.1,0.3-0.1,0.6-0.1c0.2,0,0.3,0,0.5,0c0.3,0,0.5,0,0.7,0h19.2l-0.2-0.6c-0.6-2.4,0.4-2.9,2.4-3.8l0.1-0.1
			c2.8-1.3,5.4-3,7.9-4.7c0.8-0.5,1.5-1,2.3-1.5c0.6-0.4,0.9-1.3,0.9-1.9c0.1-3.4,0.1-6.9,0-10.5c0-1.8-1.1-2.9-2.8-3
			c-0.7,0-1.4,0-2,0c-0.5,0-1,0-1.5,0c-0.5,0-1,0-1.5,0h-0.4l-0.1,0.4c-0.7,4.3-1.3,4.9-3.4,4.9c-2.7,0-5.3,0.1-8,0.1
			c-2.9,0-5.7,0-8.6-0.1c-1.8,0-3-1.1-3.2-3c0-0.4-0.1-0.7-0.1-1.1L37,31.8l-2.9,0L32.6,31.8z M57,56.5l-0.1,0.3c0,0.5,0,1,0,1.6
			c0,1.4-0.1,2.9,0.1,4.4c0.7,8,4.3,13.7,10.8,17c0.5,0.3,1.2,0.4,1.9,0.4c0.7,0,1.4-0.1,1.9-0.4c3.3-1.5,6-4,8.1-7.6
			c2.9-5,2.9-10.5,2.8-15.2c0-0.7-0.7-1.3-1.1-1.5c-3.1-1.7-6.1-3.4-9.2-5.1l-2.7-1.5L57,56.5z M41.4,27.7c-0.8,0-1.4,0.2-1.9,0.7
			c-0.5,0.6-0.7,1.5-0.5,2.7c0,0.3,0,0.7,0,1c-0.2,1.1,0,1.9,0.4,2.5c0.5,0.5,1.2,0.8,2.3,0.8c0.2,0,0.4,0,0.6,0
			c0.7-0.1,1.5-0.1,2.4-0.1c0.6,0,1.3,0,1.9,0c0.6,0,1.3,0,1.9,0l6.7,0c2.7,0,2.9-0.4,3-3c0-0.5,0-1,0-1.5c0.1-1.2-0.1-1.9-0.6-2.5
			c-0.4-0.4-1-0.6-1.8-0.6c-0.2,0-0.5,0-0.8,0c-0.2,0-0.3,0-0.4,0c-0.8,0-1.2-0.2-1.4-1.5c-0.3-2.6-2.1-4.3-4.6-4.3
			c-2.5,0-4.2,1.6-4.6,4.3c-0.2,1.4-0.8,1.5-1.4,1.5c-0.2,0-0.3,0-0.5,0C41.9,27.7,41.7,27.7,41.4,27.7z"/>
		<path class="st0" d="M47.6,52.5c-0.4,0-0.8-0.3-1.3-0.8c-0.6-0.7-1.2-1.3-1.9-1.9c-0.9-0.9-1.8-1.8-2.6-2.7
			c-0.3-0.3-0.3-0.9-0.4-1.4l0-0.3l0.4,0c0.6,0.1,1.2,0.1,1.5,0.4c1,0.8,1.8,1.7,2.8,2.8l0.2,0.2c0.3,0.4,0.7,0.7,1,1.1l0.3,0.3
			l3-3.2c1.5-1.6,2.9-3.1,4.4-4.6l0.2-0.2c0.4-0.4,0.9-0.9,1.3-0.9c0.2,0,0.4,0.1,0.7,0.4c0.2,0.2-0.1,1.5-0.6,2.1
			c-1.4,1.6-2.8,3.1-4.2,4.5c-1.1,1.1-2.1,2.2-3.1,3.3C48.5,52.2,48,52.5,47.6,52.5z"/>
		<path class="st0" d="M47.6,52.4c-0.4,0-0.8-0.3-1.3-0.8c-0.6-0.7-1.3-1.3-1.9-1.9c-0.9-0.9-1.8-1.8-2.6-2.7
			c-0.2-0.3-0.3-0.8-0.4-1.4l0-0.2l0.2,0c0.6,0.1,1.2,0.1,1.5,0.4c1,0.8,1.8,1.8,2.8,2.8l0.1,0.1c0.4,0.4,0.7,0.8,1.1,1.2l0.4,0.4
			l2.6-2.7c1.7-1.8,3.3-3.5,4.9-5.1l0.2-0.2c0.4-0.4,0.8-0.9,1.2-0.9c0.2,0,0.4,0.1,0.6,0.4c0.1,0.2-0.1,1.4-0.6,1.9
			c-1.4,1.6-2.8,3.1-4.2,4.5c-1.1,1.1-2.1,2.2-3.1,3.3C48.4,52.1,48,52.4,47.6,52.4z"/>
		<path class="st0" d="M69.5,70.7c-0.4-0.4-0.7-0.7-0.8-1.1c-0.2-0.7-0.1-1.5-0.1-2.4c0-0.4,0-0.8,0-1.3v-0.4l-1.2-0.1
			c-0.6,0-1.1,0-1.6-0.1c-0.1,0-0.3,0-0.4,0c-0.2,0-0.4,0-0.6,0c-0.2,0-0.4,0-0.6,0c-1,0-1.3-0.3-1.3-1c0-0.4,0.1-0.7,0.2-0.8
			c0.2-0.2,0.5-0.3,1-0.3c0.2,0,0.3,0,0.5,0c0.3,0,0.4,0,0.6,0c0.1,0,0.2,0,0.4,0c0.3,0,0.5,0,0.8,0l0.7,0c0.3,0,0.6,0,1,0h0.4v-0.4
			c0-0.4,0-0.8,0-1.2c0-1-0.1-1.9,0.1-2.8c0.1-0.3,0.4-0.7,0.7-1l0.2-0.2l0.2,0.2c0.4,0.4,0.7,0.7,0.8,1.1c0.2,0.7,0.1,1.6,0.1,2.4
			c0,0.5,0,0.9,0,1.4v0.4h0.4c0.5,0,0.9,0,1.3,0l0.1,0c0.4,0,0.7,0,1,0c0.6,0,1.1,0,1.5,0.1c0.3,0.1,0.7,0.4,1,0.7l0.2,0.2l-0.2,0.3
			c-0.4,0.4-0.7,0.8-1.1,0.8c-0.4,0.1-0.9,0.1-1.4,0.1c-0.4,0-0.7,0-1.1,0c-0.5,0-0.9,0-1.3,0h-0.4v0.4c0,0.5,0,0.9,0,1.3
			c0,1,0.1,1.8-0.1,2.6c-0.1,0.3-0.4,0.7-0.7,1l-0.2,0.2L69.5,70.7z"/>
		<path class="st0" d="M69.6,70.6c-0.4-0.3-0.7-0.7-0.8-1c-0.2-0.7-0.1-1.5-0.1-2.4c0-0.4,0-0.8,0-1.3v-0.5l-1.3-0.1
			c-0.6,0-1.1,0-1.6-0.1c-0.1,0-0.3,0-0.4,0c-0.2,0-0.4,0-0.6,0c-0.2,0-0.4,0-0.6,0c-0.9,0-1.2-0.2-1.2-0.9c0-0.4,0.1-0.6,0.2-0.8
			c0.2-0.2,0.5-0.2,1-0.2c0.2,0,0.4,0,0.6,0c0.2,0,0.4,0,0.6,0c0.1,0,0.2,0,0.4,0c0.3,0,0.5,0,0.8,0l0.7,0c0.3,0,0.6,0,1,0h0.5v-0.5
			c0-0.4,0-0.9,0-1.3c0-1-0.1-1.8,0.1-2.7c0-0.3,0.4-0.6,0.7-1l0.1-0.2l0.2,0.2c0.4,0.4,0.7,0.7,0.8,1c0.2,0.7,0.1,1.5,0.1,2.4
			c0,0.5,0,0.9,0,1.4v0.5h0.5c0.5,0,0.9,0,1.3,0c0.4,0,0.8,0,1.1,0c0.6,0,1,0,1.5,0.1c0.3,0.1,0.7,0.4,1,0.7l0.2,0.1L76,64.4
			c-0.3,0.4-0.7,0.7-1,0.8c-0.4,0.1-0.8,0.1-1.4,0.1c-0.4,0-0.7,0-1.1,0c-0.5,0-0.9,0-1.3,0h-0.5v0.5c0,0.5,0,0.9,0,1.3
			c0,1,0.1,1.8-0.1,2.6c-0.1,0.3-0.4,0.6-0.7,1l-0.1,0.1L69.6,70.6z"/>
		<path class="st0" d="M48.3,28.6c-0.5,0-0.9-0.2-1.2-0.5c-0.4-0.4-0.6-1-0.5-1.6c0-1.2,0.7-2,1.7-2c0.1,0,0.3,0,0.5,0.1
			c0.6,0.1,1.1,0.6,1.7,1.2c0.2,0.2,0.5,0.4,0.7,0.6l0,0.6l0,0.1L51,27c-0.2,0.1-0.4,0.3-0.6,0.5c-0.6,0.5-1.2,1-1.8,1.1
			C48.5,28.6,48.4,28.6,48.3,28.6z"/>
		<path class="st0" d="M48.3,28.5c-0.4,0-0.8-0.2-1.1-0.4c-0.4-0.4-0.5-0.9-0.5-1.6c0-1.1,0.7-1.9,1.6-1.9c0.1,0,0.3,0,0.4,0
			c0.6,0.1,1.1,0.6,1.6,1.1c0.2,0.2,0.5,0.4,0.7,0.6L51,27c-0.2,0.1-0.4,0.3-0.7,0.5c-0.6,0.5-1.2,1-1.7,1.1
			C48.5,28.5,48.4,28.5,48.3,28.5z"/>
	</g>
</g>
</svg>
