<?xml version="1.0" encoding="utf-8"?>
<!-- Generator: Adobe Illustrator 24.0.1, SVG Export Plug-In . SVG Version: 6.00 Build 0)  -->
<svg version="1.1" id="Layer_1" xmlns="http://www.w3.org/2000/svg" xmlns:xlink="http://www.w3.org/1999/xlink" x="0px" y="0px"
	 viewBox="0 0 102 102" style="enable-background:new 0 0 102 102;" xml:space="preserve">
<style type="text/css">
	.st0{clip-path:url(#SVGID_2_);}
	.st1{fill:#F2F2F2;}
	.st2{fill:#FFFFFF;}
	.st3{opacity:0.39;clip-path:url(#SVGID_6_);}
	.st4{opacity:0.77;fill:url(#SVGID_7_);}
	.st5{opacity:0.77;fill:#FFFFFF;}
	.st6{opacity:0.57;fill:#FFFFFF;}
	.st7{fill:#644B9E;}
	.st8{fill:url(#SVGID_8_);}
	.st9{fill:url(#SVGID_9_);}
	.st10{fill:url(#SVGID_10_);}
	.st11{fill:#4D4D4D;}
	.st12{opacity:0.2;}
	.st13{fill:#F15A30;}
	.st14{fill:url(#SVGID_17_);}
	.st15{fill:url(#SVGID_18_);}
	.st16{fill:url(#SVGID_19_);}
	.st17{opacity:0.21;clip-path:url(#SVGID_21_);fill:url(#SVGID_22_);}
	.st18{clip-path:url(#SVGID_21_);}
	.st19{opacity:0.77;clip-path:url(#SVGID_21_);fill:url(#SVGID_25_);}
	.st20{opacity:0.77;clip-path:url(#SVGID_21_);fill:url(#SVGID_26_);}
	.st21{fill:#333333;}
	.st22{opacity:0.77;fill:url(#SVGID_29_);}
	.st23{fill:none;stroke:#F15A30;stroke-width:2;stroke-linecap:round;stroke-miterlimit:10;}
	.st24{fill:none;stroke:#4D4D4D;stroke-miterlimit:10;}
	.st25{fill:none;stroke:#4D4D4D;stroke-miterlimit:10;stroke-dasharray:3.0093,3.0093;}
	.st26{fill:none;stroke:#4D4D4D;stroke-miterlimit:10;stroke-dasharray:2.9739,2.9739;}
	.st27{opacity:0.77;fill:url(#SVGID_32_);}
	.st28{fill:#FF5E14;}
	.st29{opacity:0.27;clip-path:url(#SVGID_36_);fill:#1F2023;}
	.st30{opacity:0.77;fill:url(#SVGID_37_);}
	.st31{fill:#FBAE17;}
</style>
<g>
	<circle class="st31" cx="51" cy="51" r="51"/>
	<g>
		<path class="st2" d="M51.52,72.6c-5.34,0-10.74-0.8-16.03-2.39C34.8,70,34.1,69.8,33.4,69.61c-0.27-0.07-0.54-0.11-0.79-0.11
			c-2.76,0-11.22-0.01-11.22-0.01c-0.76,0-1-0.24-1-0.99V53.97c0-0.62,0.25-0.89,0.84-0.89c0,0,10.42,0.37,10.43,0.37
			c0.26,0,0.47-0.03,0.67-0.09c4.38-1.3,8.75-2.6,13.12-3.92c0.35-0.11,0.72-0.16,1.09-0.16c1.71,0,3.23,1.15,3.7,2.79
			c0.29,1.01,0.15,2.08-0.37,3c-0.52,0.9-1.34,1.54-2.32,1.8c-0.36,0.09-0.72,0.17-1.08,0.24l-1.17,0.25l0.62,0.24
			c5.46,2.12,11.32,3.24,17.39,3.33l0.25,0l-0.76-4.02l-0.18,0.02c-0.21,0.02-0.42,0.05-0.62,0.08c-0.39,0.05-0.76,0.1-1.13,0.1
			l-0.12,0c-2.6-0.08-4.52-1.3-5.7-3.62c-0.15-0.29-0.19-0.54-0.11-0.74c0.08-0.2,0.28-0.36,0.6-0.48c0.83-0.31,1.65-0.46,2.43-0.46
			c1.35,0,2.65,0.46,3.87,1.37l0.45,0.34l0.09-0.33c0.02-0.52,0.03-1.03,0.04-1.55c0.03-1.15,0.05-2.33,0.16-3.48
			c0.11-1.15,0.3-2.32,0.48-3.46c0.08-0.51,0.17-1.03,0.25-1.55l0.03-0.17l-0.42-0.12c-0.2-0.06-0.43-0.12-0.65-0.19
			c-3.05-1.03-4.93-4.04-4.57-7.3c0.34-3.06,2.84-5.55,5.95-5.92c0.27-0.03,0.54-0.05,0.81-0.05c3.35,0,6.24,2.42,6.72,5.64
			c0.57,3.79-1.85,7.24-5.5,7.87c-0.56,0.1-0.82,0.34-0.91,0.86c-0.14,0.75-0.3,1.49-0.46,2.24l-0.23,1.07l0.27,0.11l0.19-0.04
			l0.17-0.15c0.11-0.09,0.21-0.19,0.33-0.28c1.23-0.99,2.58-1.49,4.03-1.49c0.52,0,1.06,0.06,1.62,0.19
			c0.15,0.04,0.27,0.07,0.36,0.12l0,0c0,0,0.29,0.23,0.34,0.65c-0.35,1.56-1.23,2.85-2.62,3.75c-1.08,0.71-2.23,1.05-3.5,1.05
			c-0.36,0-0.74-0.03-1.12-0.09l-0.22-0.03c0,0-0.03,0.55-0.03,0.64c-0.01,2.76,0.34,5.65,1.06,8.84c0.09,0.39,0.28,0.55,0.66,0.55
			c4.2-0.17,8.23-0.79,12.07-1.85c0.3-0.08,0.6-0.12,0.89-0.12c0.84,0,1.62,0.33,2.19,0.92c0.57,0.59,0.87,1.4,0.83,2.26
			c-0.04,1.08-0.52,1.91-1.38,2.4c-1.75,0.99-3.74,2.11-5.73,3.05c-4.86,2.29-10.2,3.82-15.89,4.56
			C56.25,72.44,53.87,72.6,51.52,72.6z M31.67,68.01c1.12,0,2.21,0.17,3.34,0.52c4.17,1.29,8.1,2.08,12.02,2.4
			c1.5,0.12,3.02,0.19,4.51,0.19c3.29,0,6.59-0.3,9.83-0.9c5.45-1.01,10.66-2.84,15.49-5.43c0.86-0.46,1.71-0.95,2.54-1.45
			c0.57-0.34,0.83-0.9,0.74-1.58c-0.09-0.67-0.49-1.13-1.1-1.26c-0.14-0.03-0.3-0.05-0.46-0.05c-0.24,0-0.5,0.04-0.75,0.1
			c-4.08,1.11-8.34,1.73-12.66,1.83c-0.43,0.01-0.87,0.02-1.3,0.02c-5.5,0-10.85-0.83-15.91-2.48c-1.38-0.45-2.76-0.99-4.09-1.52
			c-0.48-0.19-0.96-0.38-1.43-0.56c-0.35-0.14-0.53-0.41-0.5-0.74c0.03-0.37,0.26-0.59,0.68-0.69c0.19-0.04,0.38-0.08,0.57-0.12
			l1.3-0.26c0.83-0.16,1.67-0.33,2.5-0.5c0.67-0.14,1.24-0.53,1.59-1.1c0.35-0.55,0.45-1.21,0.28-1.86c-0.27-1.08-1.2-1.8-2.3-1.8
			c-0.25,0-0.5,0.04-0.75,0.11l-0.19,0.06c-0.27,0.08-0.53,0.16-0.79,0.24l-1.5,0.46l-0.2,0.04c-0.14,0.03-0.26,0.05-0.38,0.08
			c-0.26,0.06-0.52,0.13-0.77,0.21c-0.08,0.03-0.16,0.06-0.24,0.1c-0.06,0.03-0.13,0.06-0.19,0.08l-0.11,0.03
			c-2.87,0.86-5.74,1.72-8.62,2.57c-0.36,0.11-0.69,0.16-0.98,0.16c-0.86-0.02-1.69-0.05-2.51-0.08c-0.56-0.02-1.11-0.04-1.67-0.06
			c-0.23-0.01-0.46-0.01-0.7-0.01l-1.36,0.01v13.27l3.62,0.01c0.71,0,1.43-0.01,2.14-0.03L31.67,68.01z M21.88,68h2.2V54.63h-2.2V68
			z M57.89,53.28c-0.3,0-0.59,0.03-0.86,0.09l-0.27,0.06l0.14,0.24c0.71,1.21,2.57,2.02,3.85,2.02l0,0c0.36,0,0.67-0.06,0.93-0.17
			l0.2-0.09l-0.11-0.19C61.15,54.12,59.48,53.28,57.89,53.28z M68.95,46.72c-1.64,0-3.56,1.21-4.03,2.53l-0.08,0.24l0.25,0.03
			c0.12,0.01,0.24,0.02,0.36,0.02c1.67,0,3.5-1.13,4.08-2.51l0.1-0.24l-0.26-0.03C69.23,46.73,69.09,46.72,68.95,46.72z
			 M64.46,30.86c-2.94,0-5.34,2.39-5.35,5.33c-0.01,1.43,0.55,2.78,1.57,3.81c1.01,1.01,2.34,1.57,3.75,1.58
			c2.97,0,5.39-2.39,5.41-5.33c0.01-1.42-0.54-2.77-1.55-3.79c-1.02-1.03-2.37-1.59-3.81-1.6H64.46z"/>
		<path class="st2" d="M76.66,46.36c-1.24,0-2.42-0.5-3.33-1.42c-0.92-0.92-1.44-2.15-1.43-3.35c0.02-2.69,2.12-4.79,4.79-4.79
			c1.29,0,2.49,0.5,3.39,1.4c0.9,0.9,1.39,2.11,1.39,3.4c0,2.61-2.15,4.75-4.78,4.77L76.66,46.36z M76.7,38.26
			c-0.74,0-1.47,0.25-2.05,0.7c-0.64,0.5-1.04,1.15-1.2,1.92c-0.22,1.05,0.04,2.04,0.76,2.93l1,0.78c0.56,0.18,1.05,0.25,1.51,0.25
			h0c1.27,0,2.31-0.57,2.85-1.58c0.8-1.48,0.49-3.22-0.76-4.25C78.22,38.52,77.47,38.26,76.7,38.26z"/>
		<g>
			<path class="st2" d="M65.4,37.94c0-0.13-0.02-0.24-0.06-0.35s-0.11-0.21-0.21-0.3c-0.09-0.09-0.22-0.18-0.37-0.26
				c-0.15-0.08-0.34-0.15-0.55-0.23c-0.27-0.08-0.51-0.18-0.72-0.28c-0.21-0.11-0.39-0.24-0.54-0.38s-0.26-0.31-0.34-0.51
				c-0.08-0.19-0.12-0.41-0.12-0.66c0-0.23,0.04-0.45,0.11-0.64s0.17-0.36,0.3-0.5s0.29-0.26,0.47-0.35
				c0.19-0.09,0.4-0.15,0.63-0.18v-0.92h0.63v0.93c0.47,0.06,0.84,0.26,1.1,0.6c0.26,0.33,0.4,0.79,0.4,1.36h-0.78
				c0-0.19-0.02-0.36-0.07-0.52c-0.04-0.16-0.11-0.29-0.2-0.41c-0.09-0.12-0.2-0.21-0.33-0.27c-0.13-0.06-0.28-0.1-0.45-0.1
				c-0.18,0-0.33,0.02-0.46,0.07c-0.13,0.05-0.24,0.11-0.32,0.2c-0.08,0.09-0.15,0.19-0.19,0.31c-0.04,0.12-0.06,0.25-0.06,0.4
				c0,0.14,0.02,0.26,0.06,0.37s0.11,0.21,0.2,0.3c0.09,0.09,0.22,0.17,0.37,0.26c0.15,0.08,0.35,0.16,0.58,0.23
				c0.27,0.09,0.51,0.19,0.72,0.29s0.39,0.23,0.53,0.38c0.14,0.14,0.25,0.31,0.33,0.5s0.11,0.41,0.11,0.65
				c0,0.25-0.04,0.46-0.11,0.66s-0.19,0.36-0.33,0.5c-0.14,0.14-0.31,0.25-0.52,0.34c-0.2,0.08-0.43,0.14-0.67,0.16v0.81h-0.63V39.6
				c-0.22-0.02-0.43-0.07-0.63-0.15c-0.2-0.08-0.38-0.19-0.54-0.34s-0.28-0.34-0.37-0.57s-0.14-0.5-0.14-0.83h0.78
				c0,0.24,0.04,0.44,0.11,0.6c0.07,0.16,0.16,0.28,0.28,0.38c0.11,0.09,0.24,0.16,0.38,0.19c0.14,0.04,0.28,0.05,0.42,0.05
				c0.19,0,0.36-0.02,0.5-0.07c0.15-0.05,0.27-0.11,0.37-0.2c0.1-0.09,0.18-0.19,0.23-0.31C65.37,38.23,65.4,38.09,65.4,37.94z"/>
		</g>
		<g>
			<path class="st2" d="M77.08,42.52c0-0.09-0.02-0.18-0.05-0.25c-0.03-0.08-0.08-0.15-0.15-0.22c-0.07-0.07-0.16-0.13-0.27-0.19
				c-0.11-0.06-0.24-0.11-0.4-0.17c-0.19-0.06-0.37-0.13-0.52-0.21c-0.15-0.08-0.29-0.17-0.39-0.28c-0.11-0.11-0.19-0.23-0.25-0.37
				c-0.06-0.14-0.09-0.3-0.09-0.48c0-0.17,0.03-0.32,0.08-0.46c0.05-0.14,0.12-0.26,0.22-0.36c0.09-0.1,0.21-0.19,0.34-0.25
				c0.14-0.06,0.29-0.11,0.46-0.13v-0.67h0.46v0.67c0.34,0.05,0.61,0.19,0.8,0.43c0.19,0.24,0.29,0.57,0.29,0.99h-0.56
				c0-0.14-0.02-0.26-0.05-0.38c-0.03-0.11-0.08-0.21-0.15-0.3c-0.06-0.08-0.14-0.15-0.24-0.2c-0.09-0.05-0.2-0.07-0.33-0.07
				c-0.13,0-0.24,0.02-0.33,0.05c-0.09,0.03-0.17,0.08-0.23,0.15c-0.06,0.06-0.11,0.14-0.14,0.23c-0.03,0.09-0.05,0.18-0.05,0.29
				c0,0.1,0.01,0.19,0.04,0.26c0.03,0.08,0.08,0.15,0.14,0.22c0.07,0.07,0.16,0.13,0.27,0.19c0.11,0.06,0.25,0.11,0.42,0.17
				c0.2,0.06,0.37,0.13,0.52,0.21c0.15,0.08,0.28,0.17,0.39,0.27c0.1,0.1,0.18,0.22,0.24,0.36c0.06,0.14,0.08,0.29,0.08,0.47
				c0,0.18-0.03,0.34-0.08,0.48c-0.06,0.14-0.13,0.26-0.24,0.36c-0.1,0.1-0.23,0.18-0.37,0.25c-0.15,0.06-0.31,0.1-0.49,0.12v0.58
				h-0.45v-0.58c-0.16-0.01-0.31-0.05-0.45-0.11c-0.15-0.06-0.28-0.14-0.39-0.25c-0.11-0.11-0.2-0.25-0.27-0.41
				c-0.07-0.17-0.1-0.37-0.1-0.6h0.57c0,0.17,0.03,0.32,0.08,0.43c0.05,0.11,0.12,0.21,0.2,0.27c0.08,0.07,0.17,0.11,0.28,0.14
				c0.1,0.03,0.2,0.04,0.3,0.04c0.14,0,0.26-0.02,0.36-0.05c0.11-0.03,0.2-0.08,0.27-0.14c0.07-0.06,0.13-0.14,0.17-0.23
				C77.06,42.73,77.08,42.63,77.08,42.52z"/>
		</g>
	</g>
</g>
</svg>
