<?xml version="1.0" encoding="utf-8"?>
<!-- Generator: Adobe Illustrator 24.0.1, SVG Export Plug-In . SVG Version: 6.00 Build 0)  -->
<svg version="1.1" id="Layer_1" xmlns="http://www.w3.org/2000/svg" xmlns:xlink="http://www.w3.org/1999/xlink" x="0px" y="0px"
	 viewBox="0 0 148 149" style="enable-background:new 0 0 148 149;" xml:space="preserve">
<style type="text/css">
	.st0{fill:#FBAE17;}
	.st1{fill:#FFFFFF;}
	.st2{fill:none;stroke:#FFFFFF;stroke-width:0.25;stroke-miterlimit:10;}
</style>
<g>
	<circle class="st1" cx="74" cy="74.5" r="69"/>
	<path class="st0" d="M61.46,105.52c-2.79,0-5.59,0-8.38-0.01c-4.01-0.01-7.29-2.62-8.16-6.49c-0.14-0.61-0.21-1.28-0.21-2.01
		c-0.02-3.39-0.02-6.7,0-9.84c0.01-0.81,0.18-1,0.2-1.02c0.34-0.32,0.86-0.56,1.3-0.59c0.43,0,0.76,0.29,0.9,0.79
		c0.09,0.32,0.1,0.68,0.1,1c0,1.65,0,3.3,0,4.95c0,1.52,0,3.05,0,4.57c0.01,3.79,2.36,6.15,6.13,6.16l20.31,0
		c7,0,13.99,0,20.99-0.01c3.7,0,6.11-2.4,6.12-6.1c0.01-1.75,0.01-3.51,0.01-5.26v-0.28c0-1.46,0-2.93,0-4.39
		c0-0.78,0.24-1.19,0.83-1.41c0.14-0.05,0.28-0.07,0.43-0.07c0.57,0,1.18,0.39,1.19,1.03c0.01,0.92,0.02,1.83,0.04,2.75
		c0.05,3.02,0.11,6.15-0.18,9.17c-0.39,4.14-3.77,7.04-8.22,7.05c-2.8,0.01-5.61,0.01-8.42,0.01l-12.52-0.01L61.46,105.52z"/>
	<path class="st0" d="M74,88.02c-0.33,0-0.67-0.17-0.98-0.48c-4.61-4.59-9.22-9.2-13.81-13.81c-0.58-0.59-0.63-1.33-0.11-1.86
		c0.24-0.24,0.53-0.37,0.84-0.37c0.37,0,0.75,0.18,1.08,0.51c2.22,2.21,4.43,4.42,6.65,6.63l3.46,3.46
		c0.14,0.14,0.28,0.27,0.46,0.43l1.17,1.09l0-38.43c0-0.2-0.01-0.38,0.01-0.56c0.06-0.67,0.6-1.17,1.24-1.17
		c0.68,0.01,1.17,0.48,1.23,1.19c0.02,0.24,0.02,0.47,0.01,0.71l0,38.29l1.17-1.1c0.2-0.18,0.32-0.3,0.45-0.43l2.32-2.32
		c2.6-2.59,5.19-5.18,7.78-7.79c0.35-0.35,0.69-0.52,1.05-0.52c0.12,0,0.25,0.02,0.38,0.06c0.5,0.15,0.8,0.46,0.8,0.85
		c-0.01,0.44-0.14,1.02-0.39,1.27c-4.74,4.82-9.44,9.5-13.85,13.88C74.64,87.87,74.31,88.02,74,88.02z"/>
</g>
</svg>
